<svg id="Layer_1" data-name="Layer 1" xmlns="http://www.w3.org/2000/svg" viewBox="0 0 150 150"><defs><style>.cls-1{fill:#fff;}.cls-2{fill:#085493;}.cls-3{fill:#217c7d;}.cls-4{fill:#0a6564;}</style></defs><g id="_6" data-name="6"><circle class="cls-1" cx="74.68" cy="75" r="73.44"/><path class="cls-2" d="M74.68,149.32a74.06,74.06,0,1,1,28.93-5.84A74,74,0,0,1,74.68,149.32Zm0-146.89A72.57,72.57,0,1,0,147.25,75,72.66,72.66,0,0,0,74.68,2.43Z"/><path class="cls-2" d="M24.29,111.84a4.85,4.85,0,0,1-1.8.76,3.45,3.45,0,0,1-1.24,0,2.92,2.92,0,0,1-1.1-.44A4.2,4.2,0,0,1,19,111a3.56,3.56,0,0,1-.59-2.79,4,4,0,0,1,1.85-2.4A3.91,3.91,0,0,1,23.2,105a3.51,3.51,0,0,1,2.3,1.65,3.58,3.58,0,0,1,.61,2.79A3.92,3.92,0,0,1,24.29,111.84Zm-.9-1.28a2.86,2.86,0,0,0,1.3-1.55,2,2,0,0,0-.27-1.62,1.92,1.92,0,0,0-1.36-.89,2.89,2.89,0,0,0-2,.59,2.82,2.82,0,0,0-1.3,1.53,1.9,1.9,0,0,0,.29,1.6,1.93,1.93,0,0,0,1.37.92A2.87,2.87,0,0,0,23.39,110.56Z"/><path class="cls-2" d="M17.44,100.29l.87,1.16a.92.92,0,0,0-.33,1.26,1.07,1.07,0,0,0,.72.6A1.88,1.88,0,0,0,20,103a2.21,2.21,0,0,0,1.08-.9,1.08,1.08,0,0,0,0-1,1,1,0,0,0-.51-.5,1.34,1.34,0,0,0-.88,0l-.42-1.37a2.52,2.52,0,0,1,1.69.09,2.64,2.64,0,0,1,1.2,1.28,2.55,2.55,0,0,1,.18,2,3,3,0,0,1-1.55,1.57,3,3,0,0,1-2.2.3A2.5,2.5,0,0,1,17,103.23a2.58,2.58,0,0,1-.32-1.6A2.37,2.37,0,0,1,17.44,100.29Z"/><path class="cls-2" d="M15.24,94.68,16,95.91a1.09,1.09,0,0,0-.49.54,1,1,0,0,0,0,.69,1.08,1.08,0,0,0,.66.66,1.87,1.87,0,0,0,1.27-.14,2.25,2.25,0,0,0,1.16-.8,1.08,1.08,0,0,0,.06-1,1,1,0,0,0-.46-.54,1.37,1.37,0,0,0-.88-.06l-.29-1.4a2.5,2.5,0,0,1,1.68.26,2.61,2.61,0,0,1,1.07,1.38,2.52,2.52,0,0,1,0,2A2.93,2.93,0,0,1,18.1,99a3,3,0,0,1-2.21.09,2.51,2.51,0,0,1-1.4-1.53,2.63,2.63,0,0,1-.17-1.62A2.38,2.38,0,0,1,15.24,94.68Z"/><path class="cls-2" d="M17.59,89l-.79.21a2.18,2.18,0,0,1,1.38,1.49,1.94,1.94,0,0,1,0,1,1.39,1.39,0,0,1-.49.79,3,3,0,0,1-1.11.51l-3.32.9-.38-1.39,2.41-.65a7.2,7.2,0,0,0,1.34-.45A.81.81,0,0,0,17,91a.86.86,0,0,0,0-.55,1.09,1.09,0,0,0-.37-.59,1,1,0,0,0-.59-.25,5.84,5.84,0,0,0-1.44.28l-2.21.61L12,89.12l5.25-1.43Z"/><path class="cls-2" d="M11.59,87.32,11.38,86l.79-.12a2,2,0,0,1-.77-.6,1.79,1.79,0,0,1-.41-.93,2.08,2.08,0,0,1,.47-1.71,3,3,0,0,1,1.94-1,3.07,3.07,0,0,1,2.2.32,2,2,0,0,1,1,1.47,1.92,1.92,0,0,1,0,.83,2.65,2.65,0,0,1-.49.86l2.71-.44L19,86.11ZM14,85.49a2.1,2.1,0,0,0,1.28-.58,1.09,1.09,0,0,0,.29-.94,1,1,0,0,0-.53-.76,2,2,0,0,0-1.36-.12,2,2,0,0,0-1.2.55,1.08,1.08,0,0,0-.27.9,1.13,1.13,0,0,0,.54.8A1.77,1.77,0,0,0,14,85.49Z"/><path class="cls-2" d="M12.2,79.4l-.15,1.32A2,2,0,0,1,10.83,80a2.76,2.76,0,0,1-.47-1.57A3.44,3.44,0,0,1,10.5,77a1.36,1.36,0,0,1,.54-.7,3,3,0,0,1,1.27-.27L14,76a5.86,5.86,0,0,0,1-.13,3,3,0,0,0,.71-.3L15.84,77a3.87,3.87,0,0,1-.42.16l-.16.06a2.57,2.57,0,0,1,.58.76,2.22,2.22,0,0,1,.24.88,1.84,1.84,0,0,1-.38,1.35,1.48,1.48,0,0,1-1.12.55,1.45,1.45,0,0,1-.83-.17,1.38,1.38,0,0,1-.59-.58,4.61,4.61,0,0,1-.41-1.12,7.78,7.78,0,0,0-.43-1.37h-.15a.79.79,0,0,0-.58.24,1.28,1.28,0,0,0-.13.79,1.09,1.09,0,0,0,.19.59A1.06,1.06,0,0,0,12.2,79.4Zm1.05-2c.07.18.16.47.27.86a2.73,2.73,0,0,0,.3.77.62.62,0,0,0,.53.25.71.71,0,0,0,.5-.26.8.8,0,0,0,.19-.59,1.3,1.3,0,0,0-.3-.72.94.94,0,0,0-.5-.32,2.92,2.92,0,0,0-.7,0Z"/><path class="cls-2" d="M10.39,72l1.15,0,0,1,2.2,0a5.82,5.82,0,0,0,.77,0,.31.31,0,0,0,.19-.13.36.36,0,0,0,.07-.24,1.93,1.93,0,0,0-.13-.58l1.12-.1a2.73,2.73,0,0,1,.2,1.14,1.94,1.94,0,0,1-.14.7,1.09,1.09,0,0,1-.35.45,1.37,1.37,0,0,1-.56.19,6.53,6.53,0,0,1-1,0l-2.37,0v.66l-1.15,0V74.4l-1.08,0-.81-1.46,1.92,0Z"/><path class="cls-2" d="M9.73,70.73,8.4,70.64l.09-1.43,1.33.09Zm6.16.42-5.43-.37.1-1.43,5.43.37Z"/><path class="cls-2" d="M13.25,68.3a2.89,2.89,0,0,1-1.32-.55,2.36,2.36,0,0,1-.87-1.13,3,3,0,0,1-.15-1.49A2.7,2.7,0,0,1,12,63.25a2.73,2.73,0,0,1,2.12-.49A2.75,2.75,0,0,1,16,63.84a2.66,2.66,0,0,1,.51,2.1A3.09,3.09,0,0,1,16,67.3a2.24,2.24,0,0,1-1.13.88A3.28,3.28,0,0,1,13.25,68.3Zm.29-1.45a1.8,1.8,0,0,0,1.28-.2,1.2,1.2,0,0,0,.56-.87,1.21,1.21,0,0,0-.29-1,1.85,1.85,0,0,0-1.18-.56,1.82,1.82,0,0,0-1.27.2,1.27,1.27,0,0,0-.27,1.88A1.75,1.75,0,0,0,13.54,66.85Z"/><path class="cls-2" d="M18.24,57.43l-.35,1.4-2.69-.69A4.38,4.38,0,0,0,14.07,58a.8.8,0,0,0-.46.19.78.78,0,0,0-.26.45,1.11,1.11,0,0,0,0,.7,1,1,0,0,0,.43.53,4.46,4.46,0,0,0,1.18.42l2.39.6L17,62.24,11.75,60.9l.33-1.3.77.2a2.2,2.2,0,0,1-.45-2,2.37,2.37,0,0,1,.38-.8,1.62,1.62,0,0,1,.57-.47,1.49,1.49,0,0,1,.66-.12,3.93,3.93,0,0,1,1,.16Z"/><path class="cls-2" d="M15.45,53.9l-.67,1.15A2,2,0,0,1,14,53.94a2.66,2.66,0,0,1,.19-1.63,3.37,3.37,0,0,1,.7-1.27,1.4,1.4,0,0,1,.77-.43,3.06,3.06,0,0,1,1.28.26l1.57.59a6.9,6.9,0,0,0,1,.3,3.3,3.3,0,0,0,.77,0l-.48,1.34a4.14,4.14,0,0,1-.45,0h-.18a2.67,2.67,0,0,1,.24.92,2.15,2.15,0,0,1-.14.9A1.83,1.83,0,0,1,18.36,56a1.65,1.65,0,0,1-1.95-.42,1.49,1.49,0,0,1-.3-.77,4.77,4.77,0,0,1,.07-1.19,8.58,8.58,0,0,0,.15-1.44l-.14-.05a.74.74,0,0,0-.62,0,1.22,1.22,0,0,0-.43.67,1.06,1.06,0,0,0-.07.61A1.13,1.13,0,0,0,15.45,53.9Zm1.76-1.41q0,.3-.09.9a2.76,2.76,0,0,0,0,.82.63.63,0,0,0,.38.44.71.71,0,0,0,.57,0,.8.8,0,0,0,.41-.47,1.29,1.29,0,0,0,0-.78.9.9,0,0,0-.33-.49,3.44,3.44,0,0,0-.64-.29Z"/><path class="cls-2" d="M20.68,50.88l-6.85-3.07.58-1.31,6.86,3.07Z"/><path class="cls-2" d="M23.09,45.81l-6.38-4,.79-1.29L20,42.12l1.56-2.53L19.07,38l.8-1.29,6.38,4L25.45,42l-2.79-1.73L21.1,42.79l2.79,1.73Z"/><path class="cls-2" d="M27.65,36.07l1.08-1a2.4,2.4,0,0,1,.41,1.42,2.55,2.55,0,0,1-.6,1.43,2.42,2.42,0,0,1-2,1.08,3.15,3.15,0,0,1-1.81-.73,3,3,0,0,1-1.23-1.87A2.33,2.33,0,0,1,24,34.54a2.43,2.43,0,0,1,1.81-1,3.59,3.59,0,0,1,2.35,1l-2.23,2.84a1.46,1.46,0,0,0,1,.34,1.09,1.09,0,0,0,.79-.43.91.91,0,0,0,.21-.56A1.11,1.11,0,0,0,27.65,36.07Zm-1.09-1a1.36,1.36,0,0,0-.95-.33,1,1,0,0,0-.71.39,1,1,0,0,0-.21.82,1.31,1.31,0,0,0,.54.81Z"/><path class="cls-2" d="M28.63,31.81l-1.08.78a2,2,0,0,1-.32-1.35,2.78,2.78,0,0,1,.83-1.42,3.42,3.42,0,0,1,1.16-.88,1.41,1.41,0,0,1,.87-.08,3,3,0,0,1,1.07.75l1.2,1.17a5.58,5.58,0,0,0,.82.68,3.26,3.26,0,0,0,.7.32l-1,1c-.1,0-.23-.11-.4-.2l-.16-.08a2.63,2.63,0,0,1-.16.95,2.19,2.19,0,0,1-.49.77,1.84,1.84,0,0,1-1.24.64,1.5,1.5,0,0,1-1.17-.44,1.55,1.55,0,0,1-.44-.73,1.47,1.47,0,0,1,0-.83,5.16,5.16,0,0,1,.55-1.06,7.3,7.3,0,0,0,.71-1.25l-.1-.1a.74.74,0,0,0-.57-.26,1.18,1.18,0,0,0-.66.43,1.09,1.09,0,0,0-.31.54A1,1,0,0,0,28.63,31.81Zm2.17-.59a8.57,8.57,0,0,1-.44.79,2.32,2.32,0,0,0-.36.74.57.57,0,0,0,.17.55.68.68,0,0,0,.53.2.8.8,0,0,0,.56-.26,1.2,1.2,0,0,0,.32-.72.85.85,0,0,0-.1-.57,2.9,2.9,0,0,0-.47-.53Z"/><path class="cls-2" d="M34.63,31.14l-5.05-5.56,1.07-1,5,5.56Z"/><path class="cls-2" d="M35.23,23.47l.73.89-.77.62,1.39,1.7a4.05,4.05,0,0,0,.52.58.26.26,0,0,0,.21.06.35.35,0,0,0,.23-.09,1.74,1.74,0,0,0,.36-.48l.81.79a2.8,2.8,0,0,1-.75.88,1.85,1.85,0,0,1-.62.35,1.13,1.13,0,0,1-.57,0,1.38,1.38,0,0,1-.52-.31,7.65,7.65,0,0,1-.67-.76l-1.5-1.83-.52.42-.72-.89.51-.42-.68-.84.58-1.56,1.22,1.48Z"/><path class="cls-2" d="M36.24,20.15l1.57,2.27a2.16,2.16,0,0,1,.91-1.62,2.06,2.06,0,0,1,.84-.36,1.46,1.46,0,0,1,.76,0,1.71,1.71,0,0,1,.59.36,5.35,5.35,0,0,1,.68.85l1.82,2.62-1.19.82-1.63-2.36a4.73,4.73,0,0,0-.69-.85.77.77,0,0,0-.45-.14A1,1,0,0,0,39,22a1.17,1.17,0,0,0-.43.51,1,1,0,0,0,0,.66,3,3,0,0,0,.48.93l1.56,2.24-1.19.82L35.06,21Z"/><path class="cls-2" d="M52.7,19.47l-1.48.71-1.34-1.25-2.7,1.31.18,1.8-1.44.7-.63-8,1.44-.7ZM48.9,18l-2.15-2.06.3,3Z"/><path class="cls-2" d="M58,17.68l-1.36.48-.91-2.63a4,4,0,0,0-.46-1,.71.71,0,0,0-.41-.28.85.85,0,0,0-.52,0,1.16,1.16,0,0,0-.57.42,1.07,1.07,0,0,0-.21.64,4.91,4.91,0,0,0,.31,1.22l.81,2.33-1.36.47-1.79-5.14,1.27-.44.26.76A2.17,2.17,0,0,1,54.4,13a2.1,2.1,0,0,1,.88-.13,1.61,1.61,0,0,1,.71.22,1.75,1.75,0,0,1,.46.48,3.86,3.86,0,0,1,.39.89Z"/><path class="cls-2" d="M64,16.2l-1.3.3-.18-.77a2.24,2.24,0,0,1-.61.85,2,2,0,0,1-.84.43,2.09,2.09,0,0,1-1.74-.37,3.1,3.1,0,0,1-1.12-1.9,3.07,3.07,0,0,1,.15-2.2,2.13,2.13,0,0,1,1.44-1.07,2,2,0,0,1,1.71.38l-.61-2.64,1.4-.32Zm-4.38-1.89a2.46,2.46,0,0,0,.52,1.17,1.09,1.09,0,0,0,1.8-.27A2,2,0,0,0,62,13.9a2.15,2.15,0,0,0-.63-1.24,1.07,1.07,0,0,0-.94-.21,1.1,1.1,0,0,0-.74.59A1.78,1.78,0,0,0,59.66,14.31Z"/><path class="cls-2" d="M67.51,13.17,69,12.92A1.8,1.8,0,0,0,69.58,14a1.61,1.61,0,0,0,1.12.28,1.73,1.73,0,0,0,1.08-.39.9.9,0,0,0,.32-.75.65.65,0,0,0-.18-.44,1.37,1.37,0,0,0-.57-.29c-.18-.05-.59-.13-1.24-.24a4,4,0,0,1-1.75-.62,2,2,0,0,1-.8-1.46A1.83,1.83,0,0,1,67.81,9a2,2,0,0,1,.88-.83,3.77,3.77,0,0,1,1.46-.36,3.12,3.12,0,0,1,2.16.47,2.16,2.16,0,0,1,.87,1.59L71.67,10a1.25,1.25,0,0,0-.48-.8,1.47,1.47,0,0,0-1-.19,1.75,1.75,0,0,0-1,.34.53.53,0,0,0-.21.49.61.61,0,0,0,.25.44,4.2,4.2,0,0,0,1.43.4,7.22,7.22,0,0,1,1.67.42,2.06,2.06,0,0,1,.88.71A2.26,2.26,0,0,1,73.62,13a2.23,2.23,0,0,1-.28,1.23,2.2,2.2,0,0,1-1,.91,4.19,4.19,0,0,1-1.61.38,3.25,3.25,0,0,1-2.23-.5A2.82,2.82,0,0,1,67.51,13.17Z"/><path class="cls-2" d="M76.06,11.46l-1.3-.28a2,2,0,0,1,.8-1.14,2.73,2.73,0,0,1,1.61-.32A3.51,3.51,0,0,1,78.6,10a1.46,1.46,0,0,1,.64.61,3,3,0,0,1,.15,1.29l-.08,1.68a6.13,6.13,0,0,0,0,1.06,2.71,2.71,0,0,0,.23.74l-1.42,0a4,4,0,0,1-.13-.43,1.47,1.47,0,0,0,0-.17,2.74,2.74,0,0,1-.81.51,2.24,2.24,0,0,1-.9.15A1.84,1.84,0,0,1,75,14.87a1.49,1.49,0,0,1-.44-1.16,1.61,1.61,0,0,1,.24-.82,1.51,1.51,0,0,1,.64-.53,4.9,4.9,0,0,1,1.16-.3,8,8,0,0,0,1.41-.3v-.14a.75.75,0,0,0-.18-.6,1.24,1.24,0,0,0-.77-.21,1,1,0,0,0-.6.13A1.07,1.07,0,0,0,76.06,11.46Zm1.88,1.24c-.18.05-.48.11-.88.19a2.6,2.6,0,0,0-.79.22.62.62,0,0,0-.3.5.69.69,0,0,0,.21.53.78.78,0,0,0,.56.24,1.25,1.25,0,0,0,.75-.23.91.91,0,0,0,.36-.47,2.38,2.38,0,0,0,.08-.7Z"/><path class="cls-2" d="M80.52,10l.79.09,0-.41a2.73,2.73,0,0,1,.26-1,1.16,1.16,0,0,1,.59-.49,2,2,0,0,1,1-.1,4,4,0,0,1,1.18.31l-.31,1a2.57,2.57,0,0,0-.64-.15.61.61,0,0,0-.47.09.87.87,0,0,0-.19.55l-.05.38,1.07.12-.12,1.12-1.07-.12-.48,4.28-1.43-.15.48-4.29-.8-.08Z"/><path class="cls-2" d="M87.3,14.76l1.36.5a2.4,2.4,0,0,1-1.08,1,2.53,2.53,0,0,1-1.54.13,2.44,2.44,0,0,1-1.89-1.3A3.14,3.14,0,0,1,84,13.16a3,3,0,0,1,1.08-1.95,2.36,2.36,0,0,1,1.9-.42,2.4,2.4,0,0,1,1.74,1.15,3.5,3.5,0,0,1,.2,2.53l-3.54-.66a1.47,1.47,0,0,0,.15,1,1.12,1.12,0,0,0,.75.5.93.93,0,0,0,.6-.07A1.18,1.18,0,0,0,87.3,14.76Zm.35-1.42a1.37,1.37,0,0,0-.14-1,1,1,0,0,0-.68-.46,1,1,0,0,0-.82.19,1.29,1.29,0,0,0-.47.86Z"/><path class="cls-2" d="M93.29,12.42,93,13.53,92,13.27l-.57,2.12a6.76,6.76,0,0,0-.18.76.37.37,0,0,0,.08.21.43.43,0,0,0,.22.13,2.07,2.07,0,0,0,.59,0L92,17.62a2.87,2.87,0,0,1-1.15-.09,1.87,1.87,0,0,1-.65-.31,1.06,1.06,0,0,1-.35-.44,1.26,1.26,0,0,1,0-.6,5.6,5.6,0,0,1,.22-1l.61-2.29L90,12.73l.29-1.11.64.17.28-1,1.62-.44-.5,1.86Z"/><path class="cls-2" d="M93.87,12.55l1.45.51-.06,4.07,2.48-3.22,1.41.5-3.56,4.3-.64.78a3.25,3.25,0,0,1-.58.56,1.54,1.54,0,0,1-.51.26,1.6,1.6,0,0,1-.59,0,2.6,2.6,0,0,1-.73-.16,3.77,3.77,0,0,1-.73-.35l.25-1.11a3.07,3.07,0,0,0,.55.27.92.92,0,0,0,.8,0,2,2,0,0,0,.6-.59Z"/><path class="cls-2" d="M100.59,20.92l3.65-6.56,2,1.1-1.29,5.14,3.66-3.83,2,1.11-3.64,6.57-1.23-.69,2.86-5.17L104.4,23l-1.27-.71,1.57-5.89-2.87,5.17Z"/><path class="cls-2" d="M111.07,22.78l-.92-1a2.08,2.08,0,0,1,1.3-.51A2.82,2.82,0,0,1,113,22a3.23,3.23,0,0,1,1,1,1.44,1.44,0,0,1,.2.86,2.93,2.93,0,0,1-.6,1.16l-1,1.35a4.76,4.76,0,0,0-.56.9,2.81,2.81,0,0,0-.22.74l-1.15-.84a4.33,4.33,0,0,1,.13-.42l.06-.17a2.5,2.5,0,0,1-.95,0,2.28,2.28,0,0,1-.84-.38,1.85,1.85,0,0,1-.8-1.15,1.52,1.52,0,0,1,.28-1.21,1.64,1.64,0,0,1,.67-.54,1.35,1.35,0,0,1,.82-.08,4.51,4.51,0,0,1,1.12.4,7.78,7.78,0,0,0,1.34.53l.09-.12a.75.75,0,0,0,.18-.6,1.25,1.25,0,0,0-.52-.59,1,1,0,0,0-.58-.23A1.08,1.08,0,0,0,111.07,22.78Zm.87,2.08a8.72,8.72,0,0,1-.83-.34,2.61,2.61,0,0,0-.79-.25.58.58,0,0,0-.52.24.74.74,0,0,0-.13.56.8.8,0,0,0,.34.51,1.26,1.26,0,0,0,.75.23.89.89,0,0,0,.56-.18,3.46,3.46,0,0,0,.46-.54Z"/><path class="cls-2" d="M116.22,31.87l-1.07-1L117,28.84a4.41,4.41,0,0,0,.69-.91.79.79,0,0,0,0-.5.81.81,0,0,0-.28-.44,1.12,1.12,0,0,0-.63-.3,1,1,0,0,0-.67.14,4.54,4.54,0,0,0-.91.86l-1.64,1.84-1.08-1,3.62-4.06,1,.89-.53.59a2.19,2.19,0,0,1,2,.51,2.13,2.13,0,0,1,.54.71,1.42,1.42,0,0,1,.15.72,1.63,1.63,0,0,1-.19.64,4.94,4.94,0,0,1-.59.78Z"/><path class="cls-2" d="M120.64,31l-.71-1.12a2,2,0,0,1,1.37-.23,2.76,2.76,0,0,1,1.36.92,3.5,3.5,0,0,1,.8,1.21,1.4,1.4,0,0,1,0,.88,2.9,2.9,0,0,1-.82,1l-1.25,1.13a5.87,5.87,0,0,0-.73.76,2.79,2.79,0,0,0-.36.69l-1-1.05a2.08,2.08,0,0,1,.22-.39.69.69,0,0,1,.09-.15,2.65,2.65,0,0,1-.93-.22,2.31,2.31,0,0,1-.74-.54,1.84,1.84,0,0,1-.56-1.29A1.49,1.49,0,0,1,118,31.5a1.6,1.6,0,0,1,.76-.4,1.46,1.46,0,0,1,.82.09,4.64,4.64,0,0,1,1,.61,7.2,7.2,0,0,0,1.21.79l.1-.09a.72.72,0,0,0,.3-.55,1.17,1.17,0,0,0-.39-.69,1,1,0,0,0-.52-.34A1,1,0,0,0,120.64,31Zm.44,2.21c-.17-.1-.42-.26-.76-.5a2.71,2.71,0,0,0-.71-.41.6.6,0,0,0-.57.14.74.74,0,0,0-.23.52.76.76,0,0,0,.23.57,1.17,1.17,0,0,0,.69.37.88.88,0,0,0,.58-.07,2.41,2.41,0,0,0,.56-.43Z"/><path class="cls-2" d="M120.57,37.08l.81,1.45a.55.55,0,0,0-.21.38,1,1,0,0,0,.26.61,1.68,1.68,0,0,0,.63.59.71.71,0,0,0,.46,0,2.28,2.28,0,0,0,.58-.34l.64-.47a1.93,1.93,0,0,1-1.67-.8,2,2,0,0,1-.27-2A3.08,3.08,0,0,1,123,35.1a3,3,0,0,1,2.07-.7,2.11,2.11,0,0,1,1.55.9,2,2,0,0,1,.26,1.87l.62-.45.79,1.09-4,2.87a4.89,4.89,0,0,1-1.25.72,1.92,1.92,0,0,1-.87.08,2.09,2.09,0,0,1-.79-.37,4,4,0,0,1-.84-.89,3.15,3.15,0,0,1-.77-1.87,1.48,1.48,0,0,1,.63-1.17Zm3.34-.84a2,2,0,0,0-.83,1,1,1,0,0,0,.16.9,1.13,1.13,0,0,0,.86.48,1.78,1.78,0,0,0,1.2-.42,1.85,1.85,0,0,0,.81-1,1.1,1.1,0,0,0-.18-1,1.06,1.06,0,0,0-.83-.45A1.91,1.91,0,0,0,123.91,36.24Z"/><path class="cls-2" d="M127.69,43.83l.54,1.35a2.37,2.37,0,0,1-1.48-.12A2.62,2.62,0,0,1,125.62,44a2.48,2.48,0,0,1-.29-2.28,3.12,3.12,0,0,1,1.33-1.43,3,3,0,0,1,2.18-.49,2.32,2.32,0,0,1,1.58,1.14,2.38,2.38,0,0,1,.3,2A3.55,3.55,0,0,1,129,44.83l-1.87-3.09a1.46,1.46,0,0,0-.67.81,1.1,1.1,0,0,0,.12.9.91.91,0,0,0,.46.39A1.13,1.13,0,0,0,127.69,43.83Zm1.29-.68a1.42,1.42,0,0,0,.65-.77,1,1,0,0,0-.81-1.3,1.34,1.34,0,0,0-.95.23Z"/><path class="cls-2" d="M132.44,44.51l.54,1.21-.68.31a2.14,2.14,0,0,1,1.48,1.19,1.83,1.83,0,0,1,.17.92,1.67,1.67,0,0,1-.33.84,2.52,2.52,0,0,1,.9.44,2,2,0,0,1,.56.72,2,2,0,0,1,.19,1,1.49,1.49,0,0,1-.4.86,3.09,3.09,0,0,1-1,.59L130.72,54l-.58-1.32L133,51.46a2.34,2.34,0,0,0,.89-.56.66.66,0,0,0,0-.69,1,1,0,0,0-.4-.45,1.06,1.06,0,0,0-.65-.13,4.12,4.12,0,0,0-1.07.35l-2.39,1.07-.58-1.32,2.72-1.21a4.49,4.49,0,0,0,.91-.49.62.62,0,0,0,.21-.36.73.73,0,0,0-.07-.44,1.07,1.07,0,0,0-.41-.48,1,1,0,0,0-.63-.14,4,4,0,0,0-1.07.36L128.06,48l-.59-1.31Z"/><path class="cls-2" d="M133.61,57.73l.18,1.44a2.34,2.34,0,0,1-1.4-.48,2.57,2.57,0,0,1-.82-1.31,2.42,2.42,0,0,1,.28-2.28A3.09,3.09,0,0,1,133.48,54a3,3,0,0,1,2.24.06A2.36,2.36,0,0,1,137,55.59a2.42,2.42,0,0,1-.22,2.07A3.53,3.53,0,0,1,134.6,59l-1-3.45a1.45,1.45,0,0,0-.85.62,1.09,1.09,0,0,0-.1.9.84.84,0,0,0,.34.49A1.11,1.11,0,0,0,133.61,57.73Zm1.42-.34a1.43,1.43,0,0,0,.81-.58,1,1,0,0,0,.1-.81,1,1,0,0,0-.56-.65,1.31,1.31,0,0,0-1,0Z"/><path class="cls-2" d="M133.57,65.51l-.27-1.41,2.72-.54a4.55,4.55,0,0,0,1.11-.3.82.82,0,0,0,.38-.89,1.17,1.17,0,0,0-.33-.62,1,1,0,0,0-.61-.3,4.93,4.93,0,0,0-1.25.13l-2.42.47-.27-1.41,5.34-1,.25,1.31-.78.16a2.17,2.17,0,0,1,1.25,1.58,2,2,0,0,1,0,.89,1.44,1.44,0,0,1-.31.67,1.78,1.78,0,0,1-.54.39,4.73,4.73,0,0,1-.94.26Z"/><path class="cls-2" d="M139.4,68.7l-1.14.12-.11-1-2.18.25a5.42,5.42,0,0,0-.77.11.35.35,0,0,0-.17.15.4.4,0,0,0,0,.25,1.73,1.73,0,0,0,.2.56l-1.1.24a2.84,2.84,0,0,1-.34-1.1,1.82,1.82,0,0,1,.06-.71,1,1,0,0,1,.28-.5,1.36,1.36,0,0,1,.54-.26,7,7,0,0,1,1-.16l2.36-.26-.08-.66,1.14-.12.08.65,1.07-.12,1,1.35-1.91.21Z"/><path class="cls-2" d="M136.69,72.65l.11,1.48a1.81,1.81,0,0,0-1.11.52,1.61,1.61,0,0,0-.37,1.09,1.69,1.69,0,0,0,.28,1.11.94.94,0,0,0,.72.39.73.73,0,0,0,.46-.15,1.22,1.22,0,0,0,.33-.54q.1-.26.36-1.2a4.15,4.15,0,0,1,.78-1.7,1.93,1.93,0,0,1,1.53-.65,1.8,1.8,0,0,1,1.06.35,2,2,0,0,1,.74,1,3.72,3.72,0,0,1,.23,1.48,3.14,3.14,0,0,1-.67,2.12,2.21,2.21,0,0,1-1.67.71l0-1.52a1.24,1.24,0,0,0,.84-.4,1.53,1.53,0,0,0,.28-1,1.76,1.76,0,0,0-.25-1,.54.54,0,0,0-.46-.25.57.57,0,0,0-.46.21,3.87,3.87,0,0,0-.54,1.38,7.55,7.55,0,0,1-.57,1.63,2.12,2.12,0,0,1-.79.81,2.22,2.22,0,0,1-1.2.27,2.19,2.19,0,0,1-1.2-.38,2.12,2.12,0,0,1-.81-1,4,4,0,0,1-.24-1.64,3.26,3.26,0,0,1,.71-2.17A2.85,2.85,0,0,1,136.69,72.65Z"/><path class="cls-2" d="M139.46,79.79l-.19,1.52-4,.8,3.67,1.75-.19,1.48-4.95-2.57-.89-.46a4.41,4.41,0,0,1-.68-.45,1.45,1.45,0,0,1-.35-.44,1.65,1.65,0,0,1-.17-.58,3,3,0,0,1,0-.74,4.14,4.14,0,0,1,.19-.79H133a3.28,3.28,0,0,0-.15.6.91.91,0,0,0,.2.77,2,2,0,0,0,.7.46Z"/><path class="cls-2" d="M134.82,85.24l-.1,1.45a1.05,1.05,0,0,0-.7.23,1.2,1.2,0,0,0-.39.72,1.48,1.48,0,0,0,0,.87.46.46,0,0,0,.34.26.31.31,0,0,0,.28,0,1,1,0,0,0,.29-.42,7.5,7.5,0,0,1,1.18-2,1.37,1.37,0,0,1,1.33-.36,1.49,1.49,0,0,1,1,.81,2.61,2.61,0,0,1,.09,1.79,3.11,3.11,0,0,1-.72,1.54,1.89,1.89,0,0,1-1.22.49l.06-1.38a.82.82,0,0,0,.54-.21,1.17,1.17,0,0,0,.32-.64,1.59,1.59,0,0,0,0-.83.36.36,0,0,0-.25-.23.33.33,0,0,0-.29.09A5.34,5.34,0,0,0,136,88.6,4,4,0,0,1,135,90a1.32,1.32,0,0,1-1.14.21,1.64,1.64,0,0,1-1.12-.9,2.74,2.74,0,0,1-.12-1.92,3.11,3.11,0,0,1,.83-1.62A2.07,2.07,0,0,1,134.82,85.24Z"/><path class="cls-2" d="M136.31,94.91l-1.09-.34.29-.94-2.1-.64a4.65,4.65,0,0,0-.75-.2.26.26,0,0,0-.21.06.38.38,0,0,0-.14.22,1.89,1.89,0,0,0,0,.59l-1.1-.21a2.74,2.74,0,0,1,.13-1.15,1.58,1.58,0,0,1,.33-.63.93.93,0,0,1,.45-.34,1.3,1.3,0,0,1,.6,0,6.5,6.5,0,0,1,1,.25l2.27.7.2-.63,1.09.34-.19.63,1,.32.38,1.62L136.6,94Z"/><path class="cls-2" d="M131.31,97.7,130.56,99a2.35,2.35,0,0,1-.8-1.25,2.55,2.55,0,0,1,.16-1.54,2.45,2.45,0,0,1,1.64-1.62,3.11,3.11,0,0,1,1.94.19,3,3,0,0,1,1.71,1.43,2.37,2.37,0,0,1,.06,2,2.39,2.39,0,0,1-1.45,1.48,3.55,3.55,0,0,1-2.53-.27L132.61,96a1.5,1.5,0,0,0-1.06,0,1.1,1.1,0,0,0-.63.64.9.9,0,0,0,0,.6A1.11,1.11,0,0,0,131.31,97.7Zm1.32.61a1.35,1.35,0,0,0,1,0,1,1,0,0,0,.58-.58,1,1,0,0,0,0-.85,1.34,1.34,0,0,0-.76-.62Z"/><path class="cls-2" d="M133.64,101.89l-.63,1.17-.65-.36a2.11,2.11,0,0,1-.06,1.9,1.62,1.62,0,0,1-1.49.94,2.65,2.65,0,0,1,.2,1,2,2,0,0,1-.24.88,1.89,1.89,0,0,1-.7.77,1.45,1.45,0,0,1-.92.21,3.16,3.16,0,0,1-1.06-.41L125,106.31l.69-1.26,2.73,1.49a2.53,2.53,0,0,0,1,.37.69.69,0,0,0,.57-.4,1,1,0,0,0,.11-.58,1.06,1.06,0,0,0-.29-.6,3.79,3.79,0,0,0-.93-.64l-2.3-1.25.69-1.27,2.62,1.43a3.94,3.94,0,0,0,.94.43.69.69,0,0,0,.41,0,.77.77,0,0,0,.31-.33,1,1,0,0,0,.13-.61,1,1,0,0,0-.27-.59,4,4,0,0,0-.93-.63l-2.32-1.27.69-1.26Z"/><path class="cls-2" d="M125.85,107.78l-.67,1.3a1,1,0,0,0-.74-.07,1.28,1.28,0,0,0-.64.51,1.47,1.47,0,0,0-.32.8.44.44,0,0,0,.2.38.42.42,0,0,0,.28.08,1.35,1.35,0,0,0,.44-.28,7.08,7.08,0,0,1,1.86-1.38,1.38,1.38,0,0,1,1.37.19,1.49,1.49,0,0,1,.63,1.15,2.53,2.53,0,0,1-.62,1.68,3,3,0,0,1-1.26,1.14,1.85,1.85,0,0,1-1.31,0l.59-1.25a.78.78,0,0,0,.58,0,1.2,1.2,0,0,0,.55-.46,1.6,1.6,0,0,0,.35-.76.34.34,0,0,0-.15-.3.32.32,0,0,0-.29,0,5.64,5.64,0,0,0-1.12.86,4,4,0,0,1-1.45.93A1.38,1.38,0,0,1,123,112a1.66,1.66,0,0,1-.67-1.26,2.73,2.73,0,0,1,.64-1.82,3,3,0,0,1,1.4-1.16A2,2,0,0,1,125.85,107.78Z"/><ellipse class="cls-3" cx="74.8" cy="75" rx="52.72" ry="52.74"/><path class="cls-4" d="M74.8,128.61a53.6,53.6,0,1,1,37.9-15.7A53.24,53.24,0,0,1,74.8,128.61Zm0-105.47A51.86,51.86,0,1,0,126.65,75,51.91,51.91,0,0,0,74.8,23.14Z"/><path class="cls-1" d="M74.8,103h0a29.7,29.7,0,1,1,21-8.7A29.51,29.51,0,0,1,74.8,103Zm0-2.62h0a27.07,27.07,0,1,0-19.15-7.93,26.95,26.95,0,0,0,19.15,7.93Z"/><rect class="cls-1" x="73.49" y="44.96" width="2.62" height="56.59"/><rect class="cls-1" x="46.51" y="71.94" width="56.59" height="2.62"/><path class="cls-1" d="M72.17,102.58A34.91,34.91,0,0,1,65.5,95a39,39,0,0,1,0-43.44,34.4,34.4,0,0,1,6.67-7.6L73.79,46a33.09,33.09,0,0,0-6.17,7.08,36.38,36.38,0,0,0,0,40.36,33.33,33.33,0,0,0,6.17,7.09Z"/><path class="cls-1" d="M77.44,102.58l-1.62-2.06A33.14,33.14,0,0,0,82,93.43a36.38,36.38,0,0,0,0-40.36A32.91,32.91,0,0,0,75.82,46l1.62-2.06a35,35,0,0,1,6.67,7.6,39,39,0,0,1,0,43.44A35.53,35.53,0,0,1,77.44,102.58Z"/><path class="cls-1" d="M74.8,65.44c-17.94,0-22.88-9.45-23.08-9.86l2.35-1.18a13.05,13.05,0,0,0,4.18,4.19c2.85,1.93,8,4.22,16.55,4.22,16.34,0,20.69-8.31,20.73-8.4l2.35,1.17C97.68,56,92.75,65.44,74.8,65.44Z"/><path class="cls-1" d="M54.07,92.1l-2.35-1.18c.2-.4,5.14-9.85,23.08-9.85s22.88,9.45,23.08,9.85l-2.35,1.17a13,13,0,0,0-4.17-4.17c-2.86-1.93-8-4.23-16.56-4.23S61.1,86,58.25,87.92A13,13,0,0,0,54.07,92.1Z"/><rect class="cls-3" x="43.17" y="62.03" width="62.95" height="23.04"/><path class="cls-1" d="M54.66,79.67v-12a.69.69,0,0,0-.43-.71,3,3,0,0,0-1.07-.17h-.39V65h8.32v1.84h-.36a3,3,0,0,0-1.09.17.68.68,0,0,0-.43.71v12a.69.69,0,0,0,.43.71,3,3,0,0,0,1.09.17h.36v1.83H52.77V80.55h.39a3,3,0,0,0,1.07-.17A.7.7,0,0,0,54.66,79.67Z"/><path class="cls-1" d="M71.79,80.82a4.8,4.8,0,0,0,1.65-.24,1.76,1.76,0,0,0,1-.74,2.5,2.5,0,0,0,.32-1.32,2.12,2.12,0,0,0-.34-1.22,2.72,2.72,0,0,0-1-.79A8.66,8.66,0,0,0,72,75.93c-.57-.17-1.21-.34-1.93-.52a19.93,19.93,0,0,1-2-.68,6,6,0,0,1-1.71-1,4.33,4.33,0,0,1-1.19-1.56,5.59,5.59,0,0,1-.44-2.38,5.12,5.12,0,0,1,.76-2.89,4.74,4.74,0,0,1,2.11-1.75,7.83,7.83,0,0,1,3.17-.6,6.8,6.8,0,0,1,2.64.45,4,4,0,0,1,1.73,1.42,7.15,7.15,0,0,1,1,2.59l-.93-.84.47-3.3h1.88v5h-2.2a4.72,4.72,0,0,0-.87-1.8A3.89,3.89,0,0,0,73,66.92a4.59,4.59,0,0,0-1.89-.38,4.05,4.05,0,0,0-1.52.25,1.71,1.71,0,0,0-.86.71,2.25,2.25,0,0,0-.27,1.15,1.91,1.91,0,0,0,.31,1.13,2.28,2.28,0,0,0,.88.72A7.09,7.09,0,0,0,71,71l1.79.45a21,21,0,0,1,2.17.64,6.87,6.87,0,0,1,1.86,1,4.25,4.25,0,0,1,1.28,1.56A5.43,5.43,0,0,1,78.6,77a6.16,6.16,0,0,1-.77,3.18,4.88,4.88,0,0,1-2.22,2,8.38,8.38,0,0,1-3.5.66,9,9,0,0,1-2.94-.45A4.75,4.75,0,0,1,67,80.79a7,7,0,0,1-1.25-3l1,.78-.47,3.87h-2V76.75h2.38a6,6,0,0,0,1.15,2.3,4.61,4.61,0,0,0,1.78,1.34A5.87,5.87,0,0,0,71.79,80.82Z"/><path class="cls-1" d="M90.69,82.8A10.64,10.64,0,0,1,87,82.2a7.89,7.89,0,0,1-2.85-1.77,8,8,0,0,1-1.85-2.88,11.76,11.76,0,0,1,0-7.71A7.77,7.77,0,0,1,84.18,67,8.19,8.19,0,0,1,87,65.19a10.95,10.95,0,0,1,7.32,0A8.19,8.19,0,0,1,97.2,67a7.77,7.77,0,0,1,1.85,2.87,11.76,11.76,0,0,1,0,7.71,8,8,0,0,1-1.85,2.88,7.89,7.89,0,0,1-2.85,1.77A10.64,10.64,0,0,1,90.69,82.8Zm0-2.08a3.82,3.82,0,0,0,1.82-.42A3.35,3.35,0,0,0,93.85,79a6.91,6.91,0,0,0,.82-2.19,17.69,17.69,0,0,0,0-6.27,6.91,6.91,0,0,0-.82-2.19,3.44,3.44,0,0,0-1.34-1.29,4.24,4.24,0,0,0-3.64,0,3.51,3.51,0,0,0-1.34,1.29,6.91,6.91,0,0,0-.82,2.19,17.69,17.69,0,0,0,0,6.27A6.91,6.91,0,0,0,87.53,79a3.41,3.41,0,0,0,1.34,1.28A3.85,3.85,0,0,0,90.69,80.72Z"/><path class="cls-1" d="M56.27,115.41H50.84V113l5.43-6.45h2.59v6.59h1.35v2.31H58.86v2H56.27Zm0-2.31v-3.37L53.4,113.1Z"/><path class="cls-1" d="M62.34,106.7h7.07v2.37H64.62l-.26,1.61a5.11,5.11,0,0,1,1-.35,4,4,0,0,1,1-.12,3.59,3.59,0,0,1,2.61,1,3.27,3.27,0,0,1,1,2.45,4.12,4.12,0,0,1-.52,2,3.48,3.48,0,0,1-1.46,1.46,5.2,5.2,0,0,1-2.42.5,6.93,6.93,0,0,1-1.82-.2,3.53,3.53,0,0,1-1.28-.6,3.33,3.33,0,0,1-.86-.9,4.92,4.92,0,0,1-.55-1.26l3-.33a1.78,1.78,0,0,0,.51,1.1,1.37,1.37,0,0,0,1,.38,1.32,1.32,0,0,0,1-.47,2.12,2.12,0,0,0,.4-1.41,2,2,0,0,0-.41-1.4,1.39,1.39,0,0,0-1.09-.45,1.79,1.79,0,0,0-.83.21,2.58,2.58,0,0,0-.66.56l-2.53-.37Z"/><path class="cls-1" d="M71.12,112c0-2,.36-3.46,1.1-4.28a4.29,4.29,0,0,1,3.35-1.22,5,5,0,0,1,1.78.27,3.38,3.38,0,0,1,1.13.69,4,4,0,0,1,.69.9,4.58,4.58,0,0,1,.4,1.1,10.31,10.31,0,0,1,.3,2.5,7.29,7.29,0,0,1-1,4.27,3.94,3.94,0,0,1-3.4,1.35,4.77,4.77,0,0,1-2.19-.43,3.57,3.57,0,0,1-1.36-1.26,5,5,0,0,1-.61-1.62A11.38,11.38,0,0,1,71.12,112Zm2.95,0a7.29,7.29,0,0,0,.36,2.79,1.13,1.13,0,0,0,1,.75,1.08,1.08,0,0,0,.79-.32,2,2,0,0,0,.49-1,11,11,0,0,0,.15-2.14,7.5,7.5,0,0,0-.36-2.87,1.16,1.16,0,0,0-1.08-.74,1.1,1.1,0,0,0-1.07.75A7.87,7.87,0,0,0,74.07,112Z"/><path class="cls-1" d="M81.1,112c0-2,.37-3.46,1.1-4.28a4.31,4.31,0,0,1,3.35-1.22,5,5,0,0,1,1.78.27,3.38,3.38,0,0,1,1.13.69,4,4,0,0,1,.69.9,4.58,4.58,0,0,1,.41,1.1,10.31,10.31,0,0,1,.3,2.5,7.29,7.29,0,0,1-1,4.27,3.94,3.94,0,0,1-3.4,1.35,4.7,4.7,0,0,1-2.18-.43,3.6,3.6,0,0,1-1.37-1.26,4.74,4.74,0,0,1-.6-1.62A10.66,10.66,0,0,1,81.1,112Zm3,0a7.24,7.24,0,0,0,.37,2.79,1.13,1.13,0,0,0,1,.75,1.06,1.06,0,0,0,.78-.32,1.91,1.91,0,0,0,.49-1,10.1,10.1,0,0,0,.16-2.14,7.5,7.5,0,0,0-.36-2.87,1.18,1.18,0,0,0-1.09-.74,1.11,1.11,0,0,0-1.07.75A7.87,7.87,0,0,0,84.05,112Z"/><path class="cls-1" d="M97.83,106.51v10.9h-3v-7.14a9.66,9.66,0,0,1-1.41.9,11.13,11.13,0,0,1-1.72.66v-2.45a7,7,0,0,0,2.36-1.17,4.91,4.91,0,0,0,1.32-1.7Z"/><path class="cls-3" d="M65.7,131.48l3.59-1.7,5.46,7a78.08,78.08,0,0,1,21.17-11c.47,1.74.46,1.73-1,2.6a75.52,75.52,0,0,0-20.32,17.79,1.94,1.94,0,0,1-.22.19Z"/></g></svg>