<svg id="Layer_1" data-name="Layer 1" xmlns="http://www.w3.org/2000/svg" viewBox="0 0 150 150"><defs><style>.cls-1{fill:#fff;}.cls-2{fill:#085493;}.cls-3{fill:#217c7d;}.cls-4{fill:#0a6564;}</style></defs><g id="_5" data-name="5"><circle class="cls-1" cx="75.16" cy="74.34" r="73.44"/><path class="cls-2" d="M75.16,148.66A74.34,74.34,0,0,1,46.23,5.86a74.34,74.34,0,1,1,28.93,142.8Zm0-146.89a72.57,72.57,0,1,0,72.57,72.57A72.65,72.65,0,0,0,75.16,1.77Z"/><ellipse class="cls-3" cx="75.16" cy="74.34" rx="52.72" ry="52.74"/><path class="cls-4" d="M75.16,128a53.59,53.59,0,1,1,37.9-15.7A53.25,53.25,0,0,1,75.16,128Zm0-105.47A51.86,51.86,0,1,0,127,74.34,51.91,51.91,0,0,0,75.16,22.48Z"/><path class="cls-1" d="M84.81,48.34c.24-.28.73,0,.9-.41h.85a.77.77,0,0,1,.2.45,20,20,0,0,1-1.91,3.71c-.38.12-.8.22-1.08-.14s0-.68.17-1c.43-.81.92-1.59,1.42-2.36l.18-.1c.07,0,.13,0,.12,0C85.43,48.42,85,48.71,84.81,48.34Z"/><path class="cls-1" d="M89.33,47.93h.85c.19.26.06.43-.15.57a2.67,2.67,0,0,1-1,.16c-.6,0-.75.54-1,1a13.46,13.46,0,0,1-1.57,2.43c-.85-.24-1-.53-.56-1.32s1.13-1.51,1.52-2.39a.91.91,0,0,1,.4-.28C88.37,48,88.87,48.16,89.33,47.93Z"/><path class="cls-1" d="M90,48.36a.43.43,0,0,0,.21-.43h.64c.24.43.77.15,1.07.43,0,.41-.3.38-.53.47-.62,0-.83.45-1.08.88a15.81,15.81,0,0,1-1.42,2.37c-.83-.15-1-.54-.58-1.27A17.2,17.2,0,0,1,90,48.36Z"/><path class="cls-1" d="M87.83,48.17l-.2.19a.79.79,0,0,1-1.07,0v-.43h.85C87.51,48.08,87.75,48,87.83,48.17Z"/><path class="cls-1" d="M43.08,75.62l.17,0a1.49,1.49,0,0,1,0,2l-.1,0-.08-.06Z"/><path class="cls-1" d="M87.83,48.17c-.17,0-.34,0-.42-.24h1.92C88.89,48.36,88.32,48,87.83,48.17Z"/><path class="cls-1" d="M72.93,73.49c-1.09,2.15-2.2,4.28-3.24,6.45a1.28,1.28,0,0,1-1.38.83c-2.67,0-2.66,0-2.86-2.71A50.77,50.77,0,0,0,64.84,73c-.28,1.34-.57,2.67-.86,4-.22,1-.47,2.08-.63,3.13-.09.54-.31.7-.84.68-.95,0-1.92-.05-2.87,0-.63,0-.69-.21-.57-.74q1.09-5.2,2.15-10.41c.1-.53.35-.67.86-.67,1.74,0,3.48,0,5.22,0,.56,0,.71.19.74.73.11,1.91.28,3.82.42,5.74.4,0,.39-.38.5-.6q1.28-2.56,2.52-5.15c.21-.45.43-.74,1-.72,1.74,0,3.49,0,5.22,0,.72,0,.69.24.57.8-.73,3.43-1.45,6.87-2.13,10.31-.11.51-.27.73-.82.7-1,0-2,0-3,0-.37,0-.62,0-.52-.52.45-2.17.88-4.34,1.32-6.51C73.22,73.51,73.26,73.32,72.93,73.49Z"/><path class="cls-1" d="M92.12,73.71c-1.07,2.11-2.15,4.22-3.19,6.34a1,1,0,0,1-1.11.71c-.91-.07-2,.26-2.68-.18s-.27-1.65-.36-2.53c-.16-1.44-.26-2.89-.38-4.33-.19-.08.15-.61-.36-.41l-1.38,6.77c-.08.4-.16.71-.72.69-1.2,0-2.41,0-3.7,0,.8-3.83,1.59-7.57,2.34-11.31.09-.44.31-.48.66-.48,1.81,0,3.62,0,5.43,0,.64,0,.66.34.69.79.13,1.91.28,3.81.44,6,1.1-2.23,2.07-4.14,3-6.08A1.1,1.1,0,0,1,92,69c1.66,0,3.33,0,5,0,.66,0,.76.2.63.79q-1.1,5.15-2.13,10.3c-.12.56-.35.75-.92.73-1,0-1.92,0-2.88,0-.54,0-.63-.13-.51-.67.43-1.9.79-3.81,1.17-5.72.21-.33-.06-.69,0-.83S92.26,73.62,92.12,73.71Z"/><path class="cls-1" d="M43.26,77.57v-2a7.14,7.14,0,0,1,6.34-6.81,17,17,0,0,1,6.35,0,4,4,0,0,1,3.55,4c0,.56-.14.75-.71.73-1.31,0-2.63,0-3.94,0-.48,0-.65-.13-.73-.63a1.64,1.64,0,0,0-1.64-1.4,4.11,4.11,0,0,0-4.14,5.36,1.8,1.8,0,0,0,1,1c1.15.5,3,.26,3.59-.81s1.5-1.06,2.5-1,2.24,0,3.48,0a6.56,6.56,0,0,1-4.71,4.59,16.43,16.43,0,0,1-7.38.18C45,80.51,43.55,79.61,43.26,77.57Z"/><path class="cls-1" d="M99.84,80.75c-.63-.09-1.68.36-2.07-.19s.17-1.4.32-2.13c.6-2.91,1.23-5.82,1.81-8.74.11-.56.31-.76.89-.74,1.09,0,2.2,0,3.3,0,.55,0,.65.17.54.68-.73,3.47-1.46,6.94-2.16,10.41-.11.55-.33.78-.91.72S100.5,80.75,99.84,80.75Z"/><path class="cls-1" d="M67.16,58.55C64.35,60.26,61.61,62.06,59,64c-.6.43-1.24.82-1.94,1.28.34-1.47,7.42-7.88,10.8-9.88.76-.06.43.39.28.66A5.15,5.15,0,0,0,67.16,58.55Z"/><path class="cls-1" d="M86.57,89.49c3.21-2,6.39-4.15,9.5-6.38a39.87,39.87,0,0,1-6.92,7,1.74,1.74,0,0,0-.67.56c0,.07-.07.1-.14.09a1.26,1.26,0,0,0-.71.57c-.54.15-.83.66-1.31.9-.94,0-.47-.56-.33-.87A3.12,3.12,0,0,0,86.57,89.49Z"/><path class="cls-1" d="M106.18,64.24a3.1,3.1,0,1,1-6.2.12,3.1,3.1,0,1,1,6.2-.12Z"/><path class="cls-1" d="M86.57,89.49c.71.49.18.91,0,1.41s-1,.76-.23,1.33a14.45,14.45,0,0,1-3.12,2.15c-.31-.36-.33-.36-.2-.66a8,8,0,0,1,.71-1.54c.28-.43.05-.68-.13-1Z"/><path class="cls-1" d="M83.58,91.19c.52.14.8.27.46,1s-1,1.35-.84,2.24a21.37,21.37,0,0,1-3.66,1.94c-.18-.43.22-.53.41-.76a5.38,5.38,0,0,0,1.51-3.29Z"/><path class="cls-1" d="M72.49,55.79l-3,1.47c-.82-.18-.62-.72-.38-1.22a5.52,5.52,0,0,0,.76-2A9.92,9.92,0,0,1,72,52.82c.82-.14.66.4.52.82A18.31,18.31,0,0,1,71.39,56C72,55.38,72,55.38,72.49,55.79Z"/><path class="cls-1" d="M100,57.73a5.36,5.36,0,0,1-1.29-1.27c.34-1.14.59-2.34,1.94-2.79.59.33.56,1.1,1,1.51.37,1.09-.3,1.85-.86,2.63C100.58,58.17,100.23,58.12,100,57.73Z"/><path class="cls-1" d="M74.58,51.54A4,4,0,0,1,77,50.71a26.27,26.27,0,0,1-1.57,2.72,1,1,0,0,0,.08,1.1,8.33,8.33,0,0,1-2.14.83c-.56-.09-.73-.45-.48-.9A13.19,13.19,0,0,1,74.58,51.54Z"/><path class="cls-1" d="M69.88,54.08c.53.68-.07,1.12-.32,1.66s-.86,1-.06,1.52l-2.34,1.29c-.41-.69-.1-1.24.24-1.86.21-.37.85-.7.41-1.3A9.52,9.52,0,0,1,69.88,54.08Z"/><path class="cls-1" d="M77.65,97.36a7.9,7.9,0,0,1-2.16.9c-.38-.37-.2-.78,0-1.17a4.11,4.11,0,0,1,.5-.92c.38-.54.68-1.07,0-1.59a11.49,11.49,0,0,1,2.34-.85c.68.14.63.57.37,1s-.54,1.07-.82,1.6A1.17,1.17,0,0,0,77.65,97.36Z"/><path class="cls-1" d="M93.8,48.81a2,2,0,0,1,1.08.38c-.38.73-1,1.31-1.39,2a2.16,2.16,0,0,0-.3,1.87.26.26,0,0,1-.28,0l-2.76-.65a.79.79,0,0,1,.38-.26,5.81,5.81,0,0,0,1.84-2.53A1.31,1.31,0,0,1,93.8,48.81Z"/><path class="cls-1" d="M79.46,49.6a3.1,3.1,0,0,1,2-.38c0,1.15-.76,2-1.25,2.93-.17.33-.51.58,0,.9l-1.5.4c-.87-.07-.9-.52-.59-1.2A25.58,25.58,0,0,0,79.46,49.6Z"/><path class="cls-1" d="M80.17,53.05c-.26-.23-.68-.3-.33-.85.6-1,1.07-2,1.6-3,.6-.52,1.41-.4,2.1-.66.26-.1.53-.2.72.12-.08.31-.37.35-.6.47-1.08.53-1.32,1.66-1.88,2.57-.25.41.43.52.31.9Z"/><path class="cls-1" d="M75.48,54.53c-.19-.34-.5-.09-.81-.18A12.76,12.76,0,0,1,77,50.71c.25-.51.76-.53,1.22-.67.62-.17.61.09.32.5-.43.59-.78,1.23-1.16,1.86a1.7,1.7,0,0,0-.17,1.47A5,5,0,0,1,75.48,54.53Z"/><path class="cls-1" d="M75.91,94.58c.26.4.64,0,1,.09-.17,1.35-1.56,2.17-1.4,3.59a10.12,10.12,0,0,1-2.14.77,4.46,4.46,0,0,1,1.05-2.41A1.55,1.55,0,0,0,74.62,95Z"/><path class="cls-1" d="M71.7,99.5a4.81,4.81,0,0,1-1.74.41c-.62-.08-.43-.52-.36-.86a2.34,2.34,0,0,1,.48-.94,1.56,1.56,0,0,0,.07-2.06l1.93-.39c.74,0,.9.39.6,1a16.7,16.7,0,0,1-1.24,2.23C71.09,99.47,71.66,99.3,71.7,99.5Z"/><path class="cls-1" d="M74.58,51.54c.11,0,.38.08.25.18-.93.76-1.09,2-1.8,2.87-.3.37.12.55.31.77-.27.17-.5.42-.85.43-.41-.46-.76.16-1.28,0,.37-.73.73-1.44,1.07-2.15.16-.34.44-.74-.24-.86A8.67,8.67,0,0,1,74.58,51.54Z"/><path class="cls-1" d="M77.65,97.36c-.65-.11-.45-.49-.26-.85.33-.61.64-1.23,1-1.81a.61.61,0,0,0-.15-1,2.26,2.26,0,0,1,1-.46c.4.13.82-.54,1.15,0s-.14.79-.32,1.16c-.39.78-.83,1.54-1.16,2.36C78.62,97.13,78.05,97.07,77.65,97.36Z"/><path class="cls-1" d="M77.18,53.87c-.49-.2-.67-.46-.35-1a16.15,16.15,0,0,1,1.57-2.58c.25-.28-.12-.18-.21-.25a2.71,2.71,0,0,1,1.27-.43c.19,0,.4,0,.18.36-.48.77-.79,1.66-1.32,2.39s-.12.84.35,1.09C78.17,53.59,77.73,53.94,77.18,53.87Z"/><path class="cls-1" d="M74.62,95c.71.27.76.72.31,1.26A27.08,27.08,0,0,0,73.35,99c-.5-.08-.83.36-1.29.42-.46-.26-.17-.53,0-.77.35-.49.57-1.05.9-1.54a1.65,1.65,0,0,0,.16-1.72A4.37,4.37,0,0,1,74.62,95Z"/><path class="cls-1" d="M79,96.74C78.84,95.65,79.71,95,80,94c.08-.25.41-.41.3-.74-.35-.26-.7.48-1,0l2.16-1c.2.21.56.37.31.77-.69,1-.92,2.41-2.15,3.09-.05,0-.06.12-.08.19C79.46,96.61,79.09,96.5,79,96.74Z"/><path class="cls-1" d="M96.55,54.77a2.07,2.07,0,0,1-1.08-.62c.35-1.38.7-2.76,2.17-3.44.43,0,.65.31.87.61s-.17.73-.39,1C97.54,53.12,97.31,54.11,96.55,54.77Z"/><path class="cls-1" d="M63.79,96.26l4,0c-.47.89-1.31.32-2,.49-.46,0-.78-.1-.9.61a5.71,5.71,0,0,1-1.46,2.55,1,1,0,0,1-1.16.26c-.38-.32-.15-.65,0-1a12.7,12.7,0,0,1,.91-1.66c.34-.5.26-.83-.29-1.07C63.05,95.88,63.48,96.25,63.79,96.26Z"/><path class="cls-1" d="M100,57.73c.25.12.48.26.7-.1a5,5,0,0,0,1-2.45,7,7,0,0,1,.86,2.12,2.25,2.25,0,0,1-1.28,2.13C100.91,58.82,100.15,58.5,100,57.73Z"/><path class="cls-1" d="M70.15,96.05c.94.25,1,.78.52,1.53-.27.41-.51.85-.74,1.28s-.38.71,0,1a2.23,2.23,0,0,1-1.24.22,1.76,1.76,0,0,1-1.11,0,.24.24,0,0,1,0-.28c1.09-.52,1.34-1.66,1.91-2.56.2-.33,0-.52-.37-.55s-.56-.09-.49-.48a.11.11,0,0,1,.15,0c.36-.19.78,0,1.13-.17Z"/><path class="cls-1" d="M73.13,95.42c.76.32.67.72.32,1.39a11.11,11.11,0,0,0-1.39,2.64l-.36,0c-.61,0-.65-.29-.44-.71a24.16,24.16,0,0,1,1.16-2.12c.33-.53.15-.8-.34-1Z"/><path class="cls-1" d="M100.64,53.67c-1,.67-1.27,1.88-1.94,2.79l-1-.87c.69-1,.82-2.43,2.14-3C100.21,52.85,100.32,53.34,100.64,53.67Z"/><path class="cls-1" d="M61.43,95.84a1.36,1.36,0,0,1,.88.2,5.35,5.35,0,0,1-2.41,3.88l-.84-.23c0-.79.7-1.25.94-1.93s.84-1,.78-1.78C60.75,95.63,61.17,95.74,61.43,95.84Z"/><path class="cls-1" d="M59.9,99.92c1-1.13,2-2.22,2.13-3.79,0,0,.18-.06.28-.09a3.24,3.24,0,0,1,1.48.22c-.2.16-.58-.22-.67.23,0,1.34-1.44,3.37-2.55,3.6A.81.81,0,0,1,59.9,99.92Z"/><path class="cls-1" d="M86.56,48.36h1.07c-.06,1-1,1.57-1.4,2.38-.27.52-.61,1,.33,1.24.24-.14.41-.15.42.2l-1.48,0c-.17-.23-.48,0-.64-.22A25.92,25.92,0,0,1,86.56,48.36Z"/><path class="cls-1" d="M93.8,48.81c-1,.16-1.14,1.07-1.63,1.7s-.55,1.68-1.57,1.89c-.54-.15-.66-.47-.37-.93a25.64,25.64,0,0,0,1.35-2.39c.24-.51.72-.5,1.18-.54A2,2,0,0,1,93.8,48.81Z"/><path class="cls-1" d="M61.43,95.84c-.14,0-.4,0-.4.06-.07,1.57-1.26,2.55-2,3.79A2.68,2.68,0,0,1,58,99.31a20,20,0,0,0,2.16-3.65c.08-.18.3-.13.46,0A1.14,1.14,0,0,1,61.43,95.84Z"/><path class="cls-1" d="M56.94,98.82l-.84-.44c.51-1.25,1.25-2.37,1.88-3.56.09-.17.28-.17.44,0a1.58,1.58,0,0,1,.9.4A9.48,9.48,0,0,1,56.94,98.82Z"/><path class="cls-1" d="M96.55,54.77a15.91,15.91,0,0,1,2-3.45l.83.68a6,6,0,0,1-2.15,3.2A.88.88,0,0,1,96.55,54.77Z"/><path class="cls-1" d="M84.86,52c.23,0,.48,0,.64.22h-.38c-.49.23-1.05-.07-1.54.19l-.21,0c-1.06-.14-1.08-.17-.54-1.11a18.79,18.79,0,0,1,1.58-2.62,1,1,0,0,1,1.09-.12A8.26,8.26,0,0,1,84.19,51C83.68,52,84.07,52.06,84.86,52Z"/><path class="cls-1" d="M60.57,100.09c1.37-.83,1.87-2.28,2.55-3.6.81,0,1,.15.52.94a10.79,10.79,0,0,0-1.38,2.68c-.1.15-.31.06-.42.19A2.62,2.62,0,0,1,60.57,100.09Z"/><path class="cls-1" d="M90,48.36a5.9,5.9,0,0,1-1.29,2.3c-.3.41-1,1.09.22,1.32.28-.13.48-.15.42.26a1.27,1.27,0,0,1-.88,0l-.39,0c-1.11-.22-1.22-.39-.61-1.4a16.71,16.71,0,0,1,1.47-2.43Z"/><path class="cls-1" d="M88.44,52.21l.88,0a7.31,7.31,0,0,1,1.93-3.62c.23,0,.48,0,.64-.21a1.22,1.22,0,0,1,.87.18c-1.48.65-1.55,2.34-2.49,3.39-.14.16.26.28.33.47l-.45,0A4.31,4.31,0,0,1,88.44,52.21Z"/><path class="cls-1" d="M61.84,100.3a.44.44,0,0,1,.42-.19,1.15,1.15,0,0,0,1.3-.68c.42-.9,1.29-1.56,1.24-2.72,0-.44.58-.13.89-.21.12.09.27.14.28.33a12.37,12.37,0,0,1-2,3.67A6.13,6.13,0,0,1,61.84,100.3Z"/><path class="cls-1" d="M93.16,53c-.21-.27-.73-.4-.42-.9.63-1,1-2.31,2.14-3a.67.67,0,0,1,.66.44c-.52.95-1.06,1.89-1.66,2.8C93.71,52.69,93.65,53.14,93.16,53Z"/><path class="cls-1" d="M68.65,96.26c.15.26.41.22.65.23a5.18,5.18,0,0,1-1.71,3.41h0c-.26.4-.65.38-1,.28-.29-.34-.12-.68.07-1,.62-.94,1-2,1.62-2.94Z"/><path class="cls-1" d="M97.64,50.71c-1.13.89-1.44,2.3-2.17,3.44a1.37,1.37,0,0,1-1-.47c.44-.86,1-1.69,1.45-2.53a1.55,1.55,0,0,1,1.1-.86C97.35,50.22,97.41,50.6,97.64,50.71Z"/><path class="cls-1" d="M68.23,96.28c.07,1-.62,1.65-1,2.45-.23.46-.67.82-.69,1.38-.17.24-.45.2-.68.28-.59-.29-.31-.7-.1-1,.35-.57.64-1.17,1-1.75.2-.35.17-.61-.31-.64a.81.81,0,0,1-.53-.26l-.2-.2c.7-.1,1.44.19,2.11-.21Z"/><path class="cls-1" d="M65.89,96.7h.64a.69.69,0,0,1,.09.87,16,16,0,0,1-1.8,2.93H64C64.37,99.11,65.34,98,65.89,96.7Z"/><path class="cls-1" d="M56.74,93.92a1.36,1.36,0,0,1,.83.44,22.49,22.49,0,0,1-1.92,3.28.77.77,0,0,1-.42.13l-.63-.45A9.17,9.17,0,0,1,56.74,93.92Z"/><path class="cls-1" d="M60.59,95.62a7,7,0,0,0-1.21,2.09A3.85,3.85,0,0,1,58,99.31l-.6-.28a20.07,20.07,0,0,0,2-3.43.38.38,0,0,1,.61-.19A.83.83,0,0,1,60.59,95.62Z"/><path class="cls-1" d="M60,95.41c-.71.27-.59,1-.91,1.54A5.64,5.64,0,0,1,57.37,99l-.43-.21A29.85,29.85,0,0,0,59,95.29c0-.06.18-.07.28-.1A.78.78,0,0,1,60,95.41Z"/><path class="cls-1" d="M64.82,100.5A9.44,9.44,0,0,1,66,98.13c.25-.45.62-.85.51-1.43.74,0,.88.27.51.89s-.72,1.28-1.11,1.92c-.16.27-.42.51,0,.81a1.23,1.23,0,0,1,1.12,0A5.22,5.22,0,0,1,64.82,100.5Z"/><path class="cls-1" d="M82.09,52.62c-.79-.23-.87-.66-.43-1.31s.67-1.15,1-1.72c.2-.32.41-.68.9-.59.44.67-.13,1.14-.37,1.64a6.15,6.15,0,0,0-.91,2Z"/><path class="cls-1" d="M95.72,49.67a1,1,0,0,1,1.09.6c-.85.32-1,1.2-1.48,1.83-.36.48-.36,1.24-1.11,1.42a.79.79,0,0,1-.31-1.09A10,10,0,0,1,95.72,49.67Z"/><path class="cls-1" d="M55.86,93.3l.47.39a12.55,12.55,0,0,1-1.47,2.81.77.77,0,0,1-.69.41.71.71,0,0,1-.43-.42,12.72,12.72,0,0,1,1.58-3.12A.33.33,0,0,1,55.86,93.3Z"/><path class="cls-1" d="M97.19,55.2c.72-1.07,1.43-2.14,2.15-3.2l.45.6c-1,.78-1.07,2.24-2.14,3Z"/><path class="cls-1" d="M55.23,97.77l.21-.22c.59.12.68-.41.81-.74.32-.82.94-1.45,1.31-2.23,0-.09.17-.1.27,0s.45,0,.59.24a11.85,11.85,0,0,0-1.65,2.81,4.29,4.29,0,0,1-.67.78Z"/><path class="cls-1" d="M82.3,52.6a1.22,1.22,0,0,1,.19-1.25A4.68,4.68,0,0,0,83.58,49c.15-.25.4-.21.64-.21a.13.13,0,0,1,.21,0,19.88,19.88,0,0,1-1.77,3.27c.18.24.57,0,.71.36A2.18,2.18,0,0,1,82.3,52.6Z"/><path class="cls-1" d="M53.31,96.06a.67.67,0,0,1-.44-.62,10.31,10.31,0,0,1,1.73-3,.75.75,0,0,1,.63.45C54.82,94.06,54.52,95.33,53.31,96.06Z"/><path class="cls-1" d="M88.91,48.36c-.08,1-.9,1.73-1.31,2.62-.32.7-.23,1,.45,1.21H87a.44.44,0,0,0-.42-.2C87.22,50.7,87.62,49.24,88.91,48.36Z"/><path class="cls-1" d="M54.17,96.91c1-.86,1.2-2.31,2.16-3.22l.41.23a20.68,20.68,0,0,1-2.14,3.4A.67.67,0,0,1,54.17,96.91Z"/><path class="cls-1" d="M52.24,94.58a.67.67,0,0,1-.42-.64,8.59,8.59,0,0,1,1-2.13c.15-.26.33-.55.73-.44l.43.43c-.09.81-.69,1.41-.92,2.17C52.86,94.28,52.66,94.58,52.24,94.58Z"/><path class="cls-1" d="M53.31,96.06c.88-.92,1.15-2.21,1.92-3.19l.63.43c-.45,0-.54.41-.66.71a11.63,11.63,0,0,1-1.46,2.48A.73.73,0,0,1,53.31,96.06Z"/><path class="cls-1" d="M95.72,49.67c-.47.84-.9,1.72-1.43,2.53a1.07,1.07,0,0,0-.06,1.26.14.14,0,0,1-.23,0,2.73,2.73,0,0,1-1.09-.41l.25,0,1.69-2.72c.18-.29.25-.68.69-.69A.39.39,0,0,1,95.72,49.67Z"/><path class="cls-1" d="M54.6,92.42a8.68,8.68,0,0,1-1.73,3c-.14-.15-.27-.3-.41-.44-.11-.53.52-.68.57-1.13.29-.68.49-1.44,1.36-1.65Z"/><path class="cls-1" d="M94,53.48l.23,0a9.82,9.82,0,0,0,1.39-2.41,1.16,1.16,0,0,1,1.19-.78l.19,0A9.39,9.39,0,0,0,95.13,53c-.19.28-.23.7-.68.72Z"/><path class="cls-1" d="M52.24,89.67l.43.64a5.6,5.6,0,0,1-1.49,2.35,1.2,1.2,0,0,1-.43-.86C51,90.89,51.2,90,52.24,89.67Z"/><path class="cls-1" d="M57.83,94.55a22.61,22.61,0,0,0-1.56,2.81c-.15.36-.45.59-.83.19.57-.94,1.15-1.87,1.69-2.83.11-.2.2-.34.44-.36Z"/><path class="cls-1" d="M52.24,89.67c-.74.54-.94,1.46-1.49,2.13a3.3,3.3,0,0,1,.81-2.57C52,89,52.07,89.44,52.24,89.67Z"/><path class="cls-1" d="M51.18,92.66a8,8,0,0,1,1.49-2.35.45.45,0,0,1,.22.42,3.35,3.35,0,0,1-1.5,2.35A.43.43,0,0,1,51.18,92.66Z"/><path class="cls-1" d="M53.53,91.37a3.11,3.11,0,0,0-1,1.65,2.66,2.66,0,0,1-.67.92.47.47,0,0,1-.22-.43A6.69,6.69,0,0,1,53.1,91Z"/><path class="cls-1" d="M53.1,91a17.31,17.31,0,0,1-1.5,2.56.47.47,0,0,1-.21-.43l1.5-2.35Z"/><path class="cls-1" d="M54.39,92.22a8,8,0,0,0-1.29,1.71c-.07.08-.14.08-.22,0A4.75,4.75,0,0,1,54,91.8Z"/><path class="cls-1" d="M101.27,59.43a4.33,4.33,0,0,0,1.28-2.13,2.73,2.73,0,0,1-.91,2.43C101.45,59.79,101.34,59.6,101.27,59.43Z"/><path class="cls-1" d="M67,100.35l-1.12,0c.15-.25.4-.2.64-.21a1.78,1.78,0,0,0,1.06-.21c.32.36.76.14,1.13.23A3.82,3.82,0,0,1,67,100.35Z"/><path class="cls-1" d="M84.43,48.79h-.21c-.17-.26-.44-.2-.68-.23a2.42,2.42,0,0,1,1.27-.22h1.13c-.1.32-.3.19-.44.23A1.73,1.73,0,0,0,84.43,48.79Z"/><path class="cls-1" d="M92.12,73.71a1.49,1.49,0,0,1,.57-1,3.7,3.7,0,0,1-.35,1.62C92.2,74.17,92.44,73.85,92.12,73.71Z"/><path class="cls-1" d="M52.88,93.93h.22c0,.5-.49.67-.64,1.07a.45.45,0,0,1-.22-.42Z"/><path class="cls-1" d="M84,73.31c0-.24-.07-.65.23-.53s.19.6.13.94Z"/><path class="cls-1" d="M83.58,52.4c.47-.39,1-.15,1.54-.19A3.36,3.36,0,0,1,83.58,52.4Z"/><path class="cls-1" d="M72.93,73.49a.53.53,0,0,1,.36-.56.74.74,0,0,1-.14.8Z"/><path class="cls-1" d="M69.93,96.08c-.33.34-.75.15-1.13.17A1.91,1.91,0,0,1,69.93,96.08Z"/><path class="cls-1" d="M88.48,90.67a.58.58,0,0,1,.67-.56Z"/><path class="cls-1" d="M87.63,91.33a.58.58,0,0,1,.71-.57A1.64,1.64,0,0,1,87.63,91.33Z"/><path class="cls-1" d="M91.25,48.57c-.46.84-.9,1.67-1.37,2.5-.17.29-.52.53-.14.91.12.12,0,.18-.1.2s-.21,0-.32,0c-.09-.18-.25-.2-.42-.21a13.8,13.8,0,0,1,1.67-3.21C90.71,48.53,91,48.58,91.25,48.57Z"/><path class="cls-1" d="M105.31,63.06a.44.44,0,0,0,.21.42,1.72,1.72,0,0,1-.2,1.71v.42a.41.41,0,0,1-.28.11.45.45,0,0,1-.25-.16.9.9,0,0,1,0-.46,2.89,2.89,0,0,0,.08-.83,1.67,1.67,0,0,0-1.39-1.73,1.81,1.81,0,0,0-2,1.14c-.24.49.12,1.18-.49,1.55a2.61,2.61,0,0,1-.11-2v-.21a2.69,2.69,0,0,1,1.92-1.28h0c.54-.26,1,.15,1.49.21h0A3.6,3.6,0,0,1,105.31,63.06Z"/><path class="cls-1" d="M104.89,65.61h.22c.08.51-.4.6-.65.85-.61.29-1.22.72-1.92.22.24-.31.64-.22.94-.4C104,66.13,104.27,65.51,104.89,65.61Z"/><path class="cls-1" d="M102.76,61.78a7.49,7.49,0,0,0-1.92,1.28A1.73,1.73,0,0,1,102.76,61.78Z"/><path class="cls-1" d="M103.61,66.46c-.3.36-.71.16-1.07.22s-.48,0-.64-.21-.41-.26-.14-.51A3.17,3.17,0,0,1,103.61,66.46Z"/><path class="cls-1" d="M100.84,63.27c.09.63-.21,1.31.21,1.91a.31.31,0,0,1,.09.35l-.09.09C100.31,64.89,100.58,64.08,100.84,63.27Z"/><path class="cls-1" d="M105.32,65.19a4.3,4.3,0,0,0,.2-1.71C105.77,64.09,106.1,64.7,105.32,65.19Z"/><path class="cls-1" d="M105.31,63.06A3.38,3.38,0,0,1,104.25,62,1.22,1.22,0,0,1,105.31,63.06Z"/><path class="cls-1" d="M104.25,62l-1.49-.21C103.33,61.31,103.78,61.75,104.25,62Z"/><path class="cls-1" d="M101.69,66l.21.43a.92.92,0,0,1-.85-.85v0C101.44,65.5,101.59,65.73,101.69,66Z"/><path class="cls-1" d="M104.46,66.46l.65-.85h.21A.89.89,0,0,1,104.46,66.46Z"/><path class="cls-1" d="M67.59,99.9l1.71-3.41c.59,0,.78.28.54.78-.39.8-.84,1.58-1.3,2.35C68.33,100,67.93,99.87,67.59,99.9Z"/><path class="cls-1" d="M101.27,63.48a1.94,1.94,0,0,1,2.65-1.07c1.08.43,1.44,1.48,1,2.78-.13.15-.24.37-.49.17a1.3,1.3,0,0,1,0-.73c0-1-.47-1.71-1.31-1.7s-1.28.65-1.29,1.64c0,.29.31.72-.25.87C100.87,64.85,101.19,64.15,101.27,63.48Z"/><path class="cls-1" d="M101.27,63.48c.13.64-.35,1.42.43,1.91a4.41,4.41,0,0,0,2.76,0l.43-.2v.42l-1.28.85c-.7.15-1.28-.28-1.92-.42l-.63-.44c0-.14,0-.28,0-.42C101.15,64.62,100.84,64,101.27,63.48Z"/><path class="cls-1" d="M104.46,65.39a2,2,0,0,1-2.76,0c-.3-.91-.42-1.8.49-2.46a1.43,1.43,0,0,1,1.77,0C104.88,63.59,104.76,64.48,104.46,65.39Z"/><path class="cls-1" d="M103.16,65.4c-.7-.06-1.23-.4-1.22-1.14a1.1,1.1,0,0,1,1.14-1.15,1.13,1.13,0,0,1,1.14,1.25C104.2,65,103.92,65.46,103.16,65.4Z"/><path class="cls-1" d="M103.17,63.7c.35,0,.64.16.61.55a.71.71,0,0,1-.69.68c-.33,0-.51-.21-.53-.53A.59.59,0,0,1,103.17,63.7Z"/></g></svg>