<svg id="Layer_1" data-name="Layer 1" xmlns="http://www.w3.org/2000/svg" viewBox="0 0 150 150"><defs><style>.cls-1{fill:#fff;}.cls-2{fill:#085493;}.cls-3{fill:#217c7d;}.cls-4{fill:#0a6564;}</style></defs><g id="_3" data-name="3"><circle class="cls-1" cx="74.34" cy="74.43" r="73.44"/><path class="cls-2" d="M74.34,148.75A74.3,74.3,0,0,1,21.79,21.88a74.32,74.32,0,1,1,81.48,121A73.75,73.75,0,0,1,74.34,148.75Zm0-146.89a72.57,72.57,0,1,0,72.57,72.57A72.64,72.64,0,0,0,74.34,1.86Z"/><path class="cls-2" d="M15.69,68,8.26,66.89l.8-5.51,1.26.18-.58,4,1.64.24.55-3.73,1.25.19L12.63,66l2,.29.6-4.15,1.25.18Z"/><path class="cls-2" d="M18,56.47l-.36,1.4L15,57.17a4,4,0,0,0-1.12-.2.86.86,0,0,0-.47.19.91.91,0,0,0-.26.45,1.19,1.19,0,0,0,0,.7,1,1,0,0,0,.42.53,4.46,4.46,0,0,0,1.18.42l2.39.62-.36,1.39L11.49,59.9l.34-1.29.77.2a2.17,2.17,0,0,1-.44-2,2.37,2.37,0,0,1,.38-.8,1.44,1.44,0,0,1,.58-.46,1.42,1.42,0,0,1,.65-.12,4.39,4.39,0,0,1,1,.16Z"/><path class="cls-2" d="M18.92,53.86,13.06,54l.53-1.42h3l1,0-.39-.3-.38-.3-2.24-1.94L15,48.72l4.34,3.92Z"/><path class="cls-2" d="M14.86,47.38l-1.21-.55.6-1.31,1.21.55ZM20.48,50l-5-2.26.6-1.31,4.95,2.26Z"/><path class="cls-2" d="M22.31,46.18l-.67,1.27-4.81-2.54.62-1.18.69.36a2.25,2.25,0,0,1-.35-.88,1.16,1.16,0,0,1,.13-.63,1.88,1.88,0,0,1,.69-.71l.9,1a1.23,1.23,0,0,0-.52.48.81.81,0,0,0-.1.54,1.23,1.23,0,0,0,.38.57,8.83,8.83,0,0,0,1.56,1Z"/><path class="cls-2" d="M21,42.69a3,3,0,0,1-1-1,2.39,2.39,0,0,1-.32-1.4,2.92,2.92,0,0,1,.49-1.41,2.68,2.68,0,0,1,1.76-1.26,2.77,2.77,0,0,1,2.14.43,2.83,2.83,0,0,1,1.29,1.78A2.69,2.69,0,0,1,25,41.9a3.2,3.2,0,0,1-1.05,1,2.31,2.31,0,0,1-1.4.33A3.34,3.34,0,0,1,21,42.69Zm.87-1.2a1.81,1.81,0,0,0,1.25.35,1.2,1.2,0,0,0,.87-.57,1.17,1.17,0,0,0,.15-1A2.22,2.22,0,0,0,22,38.9a1.25,1.25,0,0,0-1,1.59A1.82,1.82,0,0,0,21.85,41.49Z"/><path class="cls-2" d="M30,34.87,29.14,36,27,34.26a4.47,4.47,0,0,0-.95-.65.86.86,0,0,0-.5,0,.94.94,0,0,0-.43.3,1.26,1.26,0,0,0-.26.66,1.06,1.06,0,0,0,.17.65,4.51,4.51,0,0,0,.91.87l1.92,1.55-.91,1.12-4.24-3.41.84-1,.63.5a2.16,2.16,0,0,1,.4-2,2.27,2.27,0,0,1,.68-.57,1.43,1.43,0,0,1,.71-.19,1.64,1.64,0,0,1,.65.16,4.66,4.66,0,0,1,.81.54Z"/><path class="cls-2" d="M27,30.05l1-.92.52.53a2.12,2.12,0,0,1,.62-1.79,1.8,1.8,0,0,1,.81-.48,1.64,1.64,0,0,1,.9,0,2.52,2.52,0,0,1,.11-1,1.91,1.91,0,0,1,.49-.77,2,2,0,0,1,.9-.52,1.46,1.46,0,0,1,.94.08,3.24,3.24,0,0,1,.89.71l2.41,2.51-1,1-2.15-2.25a2.57,2.57,0,0,0-.84-.65.7.7,0,0,0-.65.21.92.92,0,0,0-.28.52,1,1,0,0,0,.09.66,3.79,3.79,0,0,0,.7.89l1.81,1.89-1,1L31,29.54a3.82,3.82,0,0,0-.76-.68.63.63,0,0,0-.41-.08.77.77,0,0,0-.4.22,1,1,0,0,0-.22,1.18,3.81,3.81,0,0,0,.69.89L31.77,33l-1,1Z"/><path class="cls-2" d="M39,24.45l1.29-.66a2.28,2.28,0,0,1,0,1.48,2.55,2.55,0,0,1-1,1.23,2.46,2.46,0,0,1-2.24.51,3.07,3.07,0,0,1-1.55-1.18,3,3,0,0,1-.7-2.12,2.31,2.31,0,0,1,1-1.68,2.38,2.38,0,0,1,2-.51,3.58,3.58,0,0,1,2,1.57L37,25.25a1.47,1.47,0,0,0,.87.59,1.15,1.15,0,0,0,.88-.21.92.92,0,0,0,.35-.49A1.16,1.16,0,0,0,39,24.45Zm-.8-1.21a1.4,1.4,0,0,0-.83-.57,1,1,0,0,0-.8.19,1,1,0,0,0-.41.74,1.32,1.32,0,0,0,.31.93Z"/><path class="cls-2" d="M46.32,21.83l-1.24.74-1.43-2.38a4.09,4.09,0,0,0-.66-.92.8.8,0,0,0-.47-.19.79.79,0,0,0-.5.13,1.18,1.18,0,0,0-.47.52,1.06,1.06,0,0,0-.07.68A4.69,4.69,0,0,0,42,21.53l1.27,2.12-1.23.74-2.81-4.66L40.41,19l.41.68A2.16,2.16,0,0,1,41.88,18a1.94,1.94,0,0,1,.84-.3,1.43,1.43,0,0,1,.73.06,1.64,1.64,0,0,1,.56.38,4,4,0,0,1,.56.78Z"/><path class="cls-2" d="M47.32,15.27l.51,1-.88.43,1,2a4.43,4.43,0,0,0,.37.68.33.33,0,0,0,.19.11.38.38,0,0,0,.25,0,1.83,1.83,0,0,0,.46-.38l.6,1a2.91,2.91,0,0,1-.92.7,1.79,1.79,0,0,1-.69.19,1.08,1.08,0,0,1-.56-.1,1.48,1.48,0,0,1-.43-.41,8,8,0,0,1-.49-.89l-1.05-2.12-.59.29-.51-1,.59-.29-.48-1,.92-1.4.85,1.73Z"/><path class="cls-2" d="M50.1,15.86l-1.3.27a2,2,0,0,1,.27-1.37,2.74,2.74,0,0,1,1.34-.95,3.48,3.48,0,0,1,1.41-.33,1.44,1.44,0,0,1,.83.29,2.92,2.92,0,0,1,.66,1.13l.62,1.56a5.64,5.64,0,0,0,.46.95,3,3,0,0,0,.51.58l-1.32.54-.29-.34-.11-.14a2.49,2.49,0,0,1-.53.79,2.06,2.06,0,0,1-.76.5,1.86,1.86,0,0,1-1.4.08,1.52,1.52,0,0,1-.88-.89,1.49,1.49,0,0,1-.1-.85,1.39,1.39,0,0,1,.36-.74,4.94,4.94,0,0,1,.94-.74A8.1,8.1,0,0,0,52,15.35l0-.13a.78.78,0,0,0-.41-.48,1.33,1.33,0,0,0-.79.13,1.18,1.18,0,0,0-.5.36A1.14,1.14,0,0,0,50.1,15.86Zm2.22.36c-.15.12-.39.3-.73.53a2.57,2.57,0,0,0-.63.53.59.59,0,0,0-.07.57.69.69,0,0,0,.4.4.79.79,0,0,0,.62,0,1.21,1.21,0,0,0,.59-.51.93.93,0,0,0,.14-.57,2.74,2.74,0,0,0-.21-.68Z"/><path class="cls-2" d="M55.84,17.72l-2.3-7.14,1.37-.45,2.3,7.15Z"/><path class="cls-2" d="M61.17,16.1,59.92,8.7l2.24-.38,2.2,4.82.47-5.27,2.25-.38,1.25,7.4-1.39.24L66,9.3l-.48,6.08L64,15.62,61.58,10l1,5.83Z"/><path class="cls-2" d="M70.51,11l-1.31-.18a2,2,0,0,1,.7-1.2,2.8,2.8,0,0,1,1.58-.46,3.55,3.55,0,0,1,1.44.16,1.45,1.45,0,0,1,.69.55,3,3,0,0,1,.25,1.28l.07,1.68a5.21,5.21,0,0,0,.12,1.05,2.65,2.65,0,0,0,.29.72l-1.42.07a3.46,3.46,0,0,1-.16-.42l-.06-.17a2.75,2.75,0,0,1-.76.58,2.43,2.43,0,0,1-.89.22,1.9,1.9,0,0,1-1.34-.39,1.51,1.51,0,0,1-.54-1.13,1.49,1.49,0,0,1,.18-.84,1.43,1.43,0,0,1,.59-.58,4.83,4.83,0,0,1,1.13-.39,6.86,6.86,0,0,0,1.38-.42V11a.73.73,0,0,0-.23-.58,1.21,1.21,0,0,0-.78-.14,1,1,0,0,0-.6.18A1.14,1.14,0,0,0,70.51,11Zm2,1.07a8.14,8.14,0,0,1-.86.26,2.55,2.55,0,0,0-.77.29.59.59,0,0,0-.26.52.7.7,0,0,0,.25.51.75.75,0,0,0,.58.19,1.19,1.19,0,0,0,.73-.29.83.83,0,0,0,.32-.49,2.76,2.76,0,0,0,0-.7Z"/><path class="cls-2" d="M80.21,14.89l-1.43-.08L78.92,12a4.42,4.42,0,0,0,0-1.14.79.79,0,0,0-.28-.42.87.87,0,0,0-.49-.17,1.13,1.13,0,0,0-.68.17A1,1,0,0,0,77,11a4.85,4.85,0,0,0-.17,1.24L76.7,14.7l-1.44-.07.29-5.44,1.33.07,0,.8a2.17,2.17,0,0,1,1.84-.82,2,2,0,0,1,.86.21,1.44,1.44,0,0,1,.57.47,1.53,1.53,0,0,1,.25.62,4.68,4.68,0,0,1,0,1Z"/><path class="cls-2" d="M83.12,11.46,81.87,11a2,2,0,0,1,.92-1,2.8,2.8,0,0,1,1.64-.14,3.35,3.35,0,0,1,1.38.45,1.38,1.38,0,0,1,.57.67,3,3,0,0,1,0,1.3l-.27,1.66A6.1,6.1,0,0,0,86,15a2.91,2.91,0,0,0,.15.76l-1.41-.22a4.05,4.05,0,0,1-.08-.44,1.09,1.09,0,0,0,0-.17,2.94,2.94,0,0,1-.86.41,2.32,2.32,0,0,1-.91,0,1.86,1.86,0,0,1-1.25-.65,1.52,1.52,0,0,1-.3-1.21,1.54,1.54,0,0,1,.34-.78,1.41,1.41,0,0,1,.7-.46,4.72,4.72,0,0,1,1.18-.15A8.26,8.26,0,0,0,85,12l0-.15a.73.73,0,0,0-.12-.61,1.17,1.17,0,0,0-.74-.29.87.87,0,0,0-1,.53Zm1.73,1.44A8.29,8.29,0,0,1,84,13a2.59,2.59,0,0,0-.81.13.58.58,0,0,0-.35.46.69.69,0,0,0,.14.55.75.75,0,0,0,.53.3,1.28,1.28,0,0,0,.78-.14.88.88,0,0,0,.41-.42,2.92,2.92,0,0,0,.16-.68Z"/><path class="cls-2" d="M86.86,16.25l1.55.61a.5.5,0,0,0,.08.42,1,1,0,0,0,.59.31,1.64,1.64,0,0,0,.86.05.7.7,0,0,0,.37-.28,2.32,2.32,0,0,0,.23-.62l.19-.77a2,2,0,0,1-1.79.45,2,2,0,0,1-1.45-1.34,3.09,3.09,0,0,1,0-1.89,3.05,3.05,0,0,1,1.16-1.86A2.17,2.17,0,0,1,90.38,11a2,2,0,0,1,1.39,1.27l.19-.74,1.3.34-1.21,4.73A4.9,4.9,0,0,1,91.54,18a1.92,1.92,0,0,1-.62.62,2.08,2.08,0,0,1-.85.22,3.8,3.8,0,0,1-1.21-.16,3.08,3.08,0,0,1-1.78-.94,1.48,1.48,0,0,1-.27-1.31C86.83,16.37,86.84,16.32,86.86,16.25Zm2-2.77a2,2,0,0,0,0,1.31,1,1,0,0,0,.7.6,1.13,1.13,0,0,0,1-.18,1.86,1.86,0,0,0,.66-1.09,1.88,1.88,0,0,0,0-1.3,1.11,1.11,0,0,0-.75-.62,1,1,0,0,0-.93.18A1.9,1.9,0,0,0,88.9,13.48Z"/><path class="cls-2" d="M96.65,17l1.26.72a2.32,2.32,0,0,1-1.23.83,2.65,2.65,0,0,1-1.55-.13,2.47,2.47,0,0,1-1.65-1.6,3.08,3.08,0,0,1,.15-1.94A3,3,0,0,1,95,13.16a2.34,2.34,0,0,1,1.94-.1,2.4,2.4,0,0,1,1.52,1.41A3.52,3.52,0,0,1,98.27,17l-3.39-1.24a1.47,1.47,0,0,0,0,1.05,1.09,1.09,0,0,0,.66.62.89.89,0,0,0,.6,0A1.23,1.23,0,0,0,96.65,17Zm.58-1.34a1.38,1.38,0,0,0,0-1,.94.94,0,0,0-.59-.56,1,1,0,0,0-.85,0,1.3,1.3,0,0,0-.6.77Z"/><path class="cls-2" d="M100.79,14.6l1.17.61-.34.66a2.14,2.14,0,0,1,1.91,0,1.76,1.76,0,0,1,.7.61,1.62,1.62,0,0,1,.26.86,2.7,2.7,0,0,1,1-.22,1.86,1.86,0,0,1,.89.22,2,2,0,0,1,.78.68,1.46,1.46,0,0,1,.23.92A3.13,3.13,0,0,1,107,20l-1.6,3.09-1.28-.66,1.43-2.76a2.27,2.27,0,0,0,.35-1,.69.69,0,0,0-.4-.56,1,1,0,0,0-.59-.09.94.94,0,0,0-.59.3,3.67,3.67,0,0,0-.62.94l-1.21,2.32-1.27-.66,1.37-2.65a4.5,4.5,0,0,0,.4-.94.72.72,0,0,0,0-.42.93.93,0,0,0-.34-.3,1,1,0,0,0-.62-.11,1,1,0,0,0-.57.28,3.75,3.75,0,0,0-.62.94l-1.22,2.35-1.27-.66Z"/><path class="cls-2" d="M110,24.19l1,1a2.33,2.33,0,0,1-1.4.5,2.56,2.56,0,0,1-1.46-.51,2.45,2.45,0,0,1-1.21-2,3.13,3.13,0,0,1,.62-1.85A3,3,0,0,1,109.33,20a2.37,2.37,0,0,1,1.91.38,2.45,2.45,0,0,1,1.13,1.75,3.58,3.58,0,0,1-.84,2.41l-3-2a1.43,1.43,0,0,0-.28,1,1.08,1.08,0,0,0,.48.76.85.85,0,0,0,.57.17A1.12,1.12,0,0,0,110,24.19Zm.89-1.15a1.36,1.36,0,0,0,.27-1,1,1,0,0,0-.43-.69,1,1,0,0,0-.84-.16,1.33,1.33,0,0,0-.77.6Z"/><path class="cls-2" d="M114.79,30.28l-1.1-.93,1.79-2.12a4.25,4.25,0,0,0,.67-.93.79.79,0,0,0,0-.5.81.81,0,0,0-.29-.43,1.2,1.2,0,0,0-.64-.28,1.08,1.08,0,0,0-.66.15,5,5,0,0,0-.9.89L112.1,28l-1.1-.93,3.52-4.16,1,.87-.52.61a2.21,2.21,0,0,1,2,.45,2.27,2.27,0,0,1,.55.7,1.31,1.31,0,0,1,.17.72,1.65,1.65,0,0,1-.17.64,4.75,4.75,0,0,1-.57.79Z"/><path class="cls-2" d="M121.32,29.12l-.81.82-.69-.7-1.55,1.55c-.31.32-.49.51-.53.57a.34.34,0,0,0,0,.22.49.49,0,0,0,.13.23,2.09,2.09,0,0,0,.5.31l-.7.87a2.77,2.77,0,0,1-1-.65,1.83,1.83,0,0,1-.4-.58,1.1,1.1,0,0,1-.09-.57,1.46,1.46,0,0,1,.26-.54,6.12,6.12,0,0,1,.68-.75l1.67-1.68-.46-.46.81-.82.46.47.77-.77,1.61.43-1.35,1.36Z"/><path class="cls-2" d="M121.69,33.9l1,1.09a1.79,1.79,0,0,0-.54,1.09,1.6,1.6,0,0,0,.39,1.08,1.71,1.71,0,0,0,.92.69.92.92,0,0,0,.8-.15.69.69,0,0,0,.27-.4,1.28,1.28,0,0,0-.08-.63c-.06-.17-.22-.56-.48-1.16a4.24,4.24,0,0,1-.45-1.81,2,2,0,0,1,.78-1.47,1.92,1.92,0,0,1,1-.39,2,2,0,0,1,1.17.28,3.69,3.69,0,0,1,1.11,1,3.18,3.18,0,0,1,.8,2.07,2.16,2.16,0,0,1-.85,1.6l-1-1.16a1.32,1.32,0,0,0,.41-.84,1.56,1.56,0,0,0-.38-.92,1.73,1.73,0,0,0-.85-.65.54.54,0,0,0-.52.09.58.58,0,0,0-.22.46,4,4,0,0,0,.45,1.41,7.44,7.44,0,0,1,.57,1.63,2.13,2.13,0,0,1-.11,1.12,2.27,2.27,0,0,1-.76,1,2.25,2.25,0,0,1-1.18.45,2.11,2.11,0,0,1-1.28-.3,4.06,4.06,0,0,1-1.21-1.13,3.22,3.22,0,0,1-.81-2.14A2.86,2.86,0,0,1,121.69,33.9Z"/><path class="cls-2" d="M128.32,37.73l.8,1.31-2.61,3.12,4-.93.78,1.27-5.47,1.1-1,.2a3.76,3.76,0,0,1-.81.07,1.58,1.58,0,0,1-.55-.12,1.85,1.85,0,0,1-.5-.34,3.06,3.06,0,0,1-.45-.58,3.88,3.88,0,0,1-.36-.74l.9-.7a3.55,3.55,0,0,0,.26.55.88.88,0,0,0,.64.48,1.88,1.88,0,0,0,.83-.08Z"/><path class="cls-2" d="M128.12,44.88l.83,1.21a1,1,0,0,0-.41.61,1.26,1.26,0,0,0,.15.81,1.44,1.44,0,0,0,.55.66.47.47,0,0,0,.43,0,.32.32,0,0,0,.2-.21,1.08,1.08,0,0,0,0-.51,7.94,7.94,0,0,1-.34-2.3,1.41,1.41,0,0,1,.82-1.11,1.47,1.47,0,0,1,1.31,0,2.59,2.59,0,0,1,1.2,1.34,3.07,3.07,0,0,1,.4,1.65,1.89,1.89,0,0,1-.64,1.15l-.82-1.11a.89.89,0,0,0,.29-.51,1.22,1.22,0,0,0-.15-.7,1.64,1.64,0,0,0-.5-.66.35.35,0,0,0-.34,0,.3.3,0,0,0-.17.24,5.47,5.47,0,0,0,.23,1.39,3.85,3.85,0,0,1,.12,1.72,1.32,1.32,0,0,1-.76.88,1.63,1.63,0,0,1-1.43,0A2.74,2.74,0,0,1,127.76,48a3,3,0,0,1-.37-1.78A2.07,2.07,0,0,1,128.12,44.88Z"/><path class="cls-2" d="M135.33,51.5l-1.06.42L133.9,51l-2,.81a4.82,4.82,0,0,0-.72.31.29.29,0,0,0-.12.18.4.4,0,0,0,0,.26,1.65,1.65,0,0,0,.34.48l-1,.53a2.92,2.92,0,0,1-.61-1,1.62,1.62,0,0,1-.14-.7,1,1,0,0,1,.14-.55,1.64,1.64,0,0,1,.45-.4,7,7,0,0,1,.93-.41l2.2-.88-.24-.61,1.07-.42.24.61,1-.4,1.32,1-1.79.71Z"/><path class="cls-2" d="M133.17,56.8l.2,1.44a2.41,2.41,0,0,1-1.41-.47,2.62,2.62,0,0,1-.84-1.31,2.42,2.42,0,0,1,.27-2.28A3.12,3.12,0,0,1,133,53.11a3,3,0,0,1,2.23,0,2.31,2.31,0,0,1,1.26,1.48,2.39,2.39,0,0,1-.2,2.07,3.56,3.56,0,0,1-2.14,1.37l-1.07-3.45a1.47,1.47,0,0,0-.85.63,1.09,1.09,0,0,0-.09.9.88.88,0,0,0,.34.49A1.11,1.11,0,0,0,133.17,56.8Zm1.41-.35a1.39,1.39,0,0,0,.82-.59,1,1,0,0,0,.09-.81,1,1,0,0,0-.56-.64,1.32,1.32,0,0,0-1,0Z"/><path class="cls-2" d="M137.61,58.62l.24,1.31-.74.13a2.09,2.09,0,0,1,1.15,1.51,1.9,1.9,0,0,1,0,.93,1.73,1.73,0,0,1-.53.74,2.49,2.49,0,0,1,.77.65,1.9,1.9,0,0,1,.37.83,2,2,0,0,1-.06,1,1.54,1.54,0,0,1-.6.74,3,3,0,0,1-1.08.34l-3.43.61L133.4,66l3.06-.54a2.41,2.41,0,0,0,1-.33.68.68,0,0,0,.2-.66,1,1,0,0,0-.28-.53,1,1,0,0,0-.6-.28,3.74,3.74,0,0,0-1.13.08l-2.57.45-.25-1.42,2.94-.51a4.2,4.2,0,0,0,1-.26.7.7,0,0,0,.3-.29.82.82,0,0,0,0-.45,1,1,0,0,0-.28-.56,1,1,0,0,0-.57-.29,4.15,4.15,0,0,0-1.13.08l-2.6.46-.25-1.41Z"/><ellipse class="cls-3" cx="74.46" cy="74.43" rx="52.72" ry="52.74"/><path class="cls-4" d="M74.46,128A53.61,53.61,0,0,1,36.57,36.52a53.6,53.6,0,0,1,75.79,75.82A53.25,53.25,0,0,1,74.46,128Zm0-105.47a51.86,51.86,0,1,0,51.85,51.86A51.91,51.91,0,0,0,74.46,22.57Z"/><path class="cls-1" d="M74.47,102.39h0a29.7,29.7,0,1,1,21-8.7A29.51,29.51,0,0,1,74.46,102.39Zm0-2.63h0a27.07,27.07,0,1,0-19.16-7.93,26.9,26.9,0,0,0,19.16,7.93Z"/><rect class="cls-1" x="73.15" y="44.38" width="2.62" height="56.59"/><rect class="cls-1" x="46.17" y="71.37" width="56.59" height="2.62"/><path class="cls-1" d="M71.83,102a34.4,34.4,0,0,1-6.67-7.6,39,39,0,0,1,0-43.44,34.91,34.91,0,0,1,6.67-7.61l1.62,2.06h0a32.56,32.56,0,0,0-6.16,7.08,36.37,36.37,0,0,0,6.16,47.44Z"/><path class="cls-1" d="M77.1,102l-1.62-2.06a32.91,32.91,0,0,0,6.16-7.08,36.37,36.37,0,0,0-6.16-47.44l1.62-2.07A34.91,34.91,0,0,1,83.77,51a39,39,0,0,1,0,43.44A34.4,34.4,0,0,1,77.1,102Z"/><path class="cls-1" d="M74.46,64.86c-17.94,0-22.87-9.45-23.07-9.85l2.34-1.17-1.17.58,1.17-.59A13.05,13.05,0,0,0,57.91,58c2.86,1.92,8,4.22,16.55,4.22S88.16,59.94,91,58a13.19,13.19,0,0,0,4.18-4.19L97.54,55C97.34,55.41,92.41,64.86,74.46,64.86Z"/><path class="cls-1" d="M95.2,91.52A13.34,13.34,0,0,0,91,87.34c-2.86-1.93-8-4.22-16.56-4.22-16.34,0-20.69,8.32-20.73,8.4l-2.34-1.17c.2-.41,5.13-9.86,23.07-9.86s22.88,9.45,23.08,9.86Z"/><rect class="cls-3" x="42.83" y="61.46" width="62.95" height="23.04"/><path class="cls-1" d="M54.32,79.09V67.15a.69.69,0,0,0-.43-.71,2.78,2.78,0,0,0-1.07-.18h-.39V64.43h8.33v1.83h-.37a2.82,2.82,0,0,0-1.09.18.68.68,0,0,0-.43.71V79.09a.68.68,0,0,0,.43.71,2.83,2.83,0,0,0,1.09.17h.37v1.84H52.43V80h.39a2.79,2.79,0,0,0,1.07-.17A.69.69,0,0,0,54.32,79.09Z"/><path class="cls-1" d="M71.45,80.24A4.92,4.92,0,0,0,73.11,80a1.74,1.74,0,0,0,1-.75,2.39,2.39,0,0,0,.32-1.32,2,2,0,0,0-.34-1.21,2.74,2.74,0,0,0-1-.8,8.24,8.24,0,0,0-1.46-.57c-.58-.17-1.22-.35-1.94-.53a20.78,20.78,0,0,1-2-.67,6.28,6.28,0,0,1-1.71-1,4.28,4.28,0,0,1-1.19-1.57,5.73,5.73,0,0,1-.44-2.37,5.12,5.12,0,0,1,.76-2.89,4.71,4.71,0,0,1,2.12-1.75,7.76,7.76,0,0,1,3.17-.6,6.78,6.78,0,0,1,2.63.45,4,4,0,0,1,1.74,1.42,7.17,7.17,0,0,1,1,2.58l-.93-.83.47-3.3h1.88v5H75a4.58,4.58,0,0,0-.87-1.8,3.84,3.84,0,0,0-1.44-1.13,4.67,4.67,0,0,0-1.9-.38,3.86,3.86,0,0,0-1.52.25,1.71,1.71,0,0,0-.86.71,2.25,2.25,0,0,0-.27,1.15,2,2,0,0,0,.31,1.12,2.12,2.12,0,0,0,.88.72,6.8,6.8,0,0,0,1.39.49l1.78.46c.75.18,1.48.39,2.17.63a7.16,7.16,0,0,1,1.86,1,4.19,4.19,0,0,1,1.28,1.57,5.41,5.41,0,0,1,.47,2.37,6.2,6.2,0,0,1-.77,3.19,4.87,4.87,0,0,1-2.22,2,8.22,8.22,0,0,1-3.5.67,9,9,0,0,1-2.94-.46,4.72,4.72,0,0,1-2.17-1.55,6.78,6.78,0,0,1-1.25-3l1,.78-.46,3.87h-2V76.18h2.38a6,6,0,0,0,1.15,2.3,4.55,4.55,0,0,0,1.79,1.33A5.6,5.6,0,0,0,71.45,80.24Z"/><path class="cls-1" d="M90.35,82.23a10.73,10.73,0,0,1-3.66-.6A7.74,7.74,0,0,1,82,77a11.76,11.76,0,0,1,0-7.71,7.86,7.86,0,0,1,1.85-2.86,8.22,8.22,0,0,1,2.85-1.79,11.11,11.11,0,0,1,7.32,0,8.17,8.17,0,0,1,2.86,1.79,7.71,7.71,0,0,1,1.84,2.86,11.76,11.76,0,0,1,0,7.71A7.68,7.68,0,0,1,94,81.63,10.64,10.64,0,0,1,90.35,82.23Zm0-2.08a3.86,3.86,0,0,0,1.83-.42,3.49,3.49,0,0,0,1.33-1.29,6.91,6.91,0,0,0,.82-2.19,17.63,17.63,0,0,0,0-6.26,6.88,6.88,0,0,0-.82-2.2,3.53,3.53,0,0,0-1.33-1.28,4.18,4.18,0,0,0-3.65,0,3.46,3.46,0,0,0-1.33,1.28,6.65,6.65,0,0,0-.82,2.2,17,17,0,0,0,0,6.26,6.68,6.68,0,0,0,.82,2.19,3.42,3.42,0,0,0,1.33,1.29A3.85,3.85,0,0,0,90.35,80.15Z"/><path class="cls-1" d="M57.38,105.94v10.9h-3V109.7a8.78,8.78,0,0,1-1.41.89,11.13,11.13,0,0,1-1.72.66v-2.44a7.2,7.2,0,0,0,2.36-1.18,4.78,4.78,0,0,0,1.32-1.69Z"/><path class="cls-1" d="M65.74,114.83H60.31v-2.44l5.43-6.45h2.59v6.58h1.35v2.31H68.33v2H65.74Zm0-2.31v-3.37l-2.87,3.37Z"/><path class="cls-1" d="M70.61,111.43c0-2,.36-3.46,1.1-4.27a4.29,4.29,0,0,1,3.35-1.22,4.92,4.92,0,0,1,1.77.27,3.13,3.13,0,0,1,1.14.69,3.61,3.61,0,0,1,.69.9,4.86,4.86,0,0,1,.4,1.1,10.25,10.25,0,0,1,.3,2.5,7.39,7.39,0,0,1-1,4.27A4,4,0,0,1,75,117a4.74,4.74,0,0,1-2.19-.43,3.62,3.62,0,0,1-1.37-1.27,4.78,4.78,0,0,1-.6-1.62A11.31,11.31,0,0,1,70.61,111.43Zm3,0a7.31,7.31,0,0,0,.36,2.8,1.13,1.13,0,0,0,1,.75,1.1,1.1,0,0,0,.78-.32,1.88,1.88,0,0,0,.49-1,10,10,0,0,0,.16-2.14,7.53,7.53,0,0,0-.36-2.87,1.15,1.15,0,0,0-1.09-.73,1.1,1.1,0,0,0-1.06.75A7.8,7.8,0,0,0,73.56,111.44Z"/><path class="cls-1" d="M80.59,111.43c0-2,.37-3.46,1.1-4.27A4.29,4.29,0,0,1,85,105.94a5,5,0,0,1,1.78.27,3.09,3.09,0,0,1,1.13.69,3.61,3.61,0,0,1,.69.9,4.86,4.86,0,0,1,.41,1.1,10.25,10.25,0,0,1,.3,2.5,7.31,7.31,0,0,1-1,4.27A3.94,3.94,0,0,1,85,117a4.7,4.7,0,0,1-2.18-.43,3.48,3.48,0,0,1-1.37-1.27,4.58,4.58,0,0,1-.6-1.62A10.6,10.6,0,0,1,80.59,111.43Zm3,0a7.31,7.31,0,0,0,.36,2.8,1.15,1.15,0,0,0,1,.75,1.1,1.1,0,0,0,.79-.32,2,2,0,0,0,.49-1,10.76,10.76,0,0,0,.16-2.14,7.28,7.28,0,0,0-.37-2.87,1.15,1.15,0,0,0-1.08-.73,1.11,1.11,0,0,0-1.07.75A7.8,7.8,0,0,0,83.54,111.44Z"/><path class="cls-1" d="M97.32,105.94v10.9h-3V109.7a8.42,8.42,0,0,1-1.42.89,10.59,10.59,0,0,1-1.71.66v-2.44a7.3,7.3,0,0,0,2.36-1.18,4.78,4.78,0,0,0,1.32-1.69Z"/><path class="cls-3" d="M65.36,130.91,69,129.2l5.47,7a77.84,77.84,0,0,1,21.16-11c.47,1.74.46,1.72-1,2.6A75.52,75.52,0,0,0,74.3,145.62l-.22.18Z"/></g></svg>