<svg id="Layer_1" data-name="Layer 1" xmlns="http://www.w3.org/2000/svg" viewBox="0 0 150 150"><defs><style>.cls-1{fill:#fff;}.cls-2{fill:#085493;}.cls-3{fill:#217c7d;}.cls-4{fill:#0a6564;}</style></defs><g id="_1" data-name="1"><circle class="cls-1" cx="74.54" cy="75.13" r="73.44"/><path class="cls-2" d="M74.54,149.45A74.34,74.34,0,0,1,45.62,6.65a74.34,74.34,0,0,1,57.85,137A73.92,73.92,0,0,1,74.54,149.45Zm0-146.89a72.57,72.57,0,1,0,72.57,72.57A72.66,72.66,0,0,0,74.54,2.56Z"/><path class="cls-2" d="M16,80.67l-7.48.69-.14-1.51,7.48-.69Z"/><path class="cls-2" d="M15.62,72.92l0,1.44-2.77,0a4.52,4.52,0,0,0-1.14.11.89.89,0,0,0-.4.31.83.83,0,0,0-.13.5,1.13,1.13,0,0,0,.21.67,1.1,1.1,0,0,0,.55.4,4.71,4.71,0,0,0,1.25.09l2.47,0,0,1.44L10.26,78l0-1.33.8,0a2.16,2.16,0,0,1-.95-1.77,2.12,2.12,0,0,1,.16-.88,1.39,1.39,0,0,1,1-.89,4.5,4.5,0,0,1,1-.1Z"/><path class="cls-2" d="M10.25,71.88l.05-.8-.41,0a2.7,2.7,0,0,1-1-.21,1.17,1.17,0,0,1-.52-.57,2.1,2.1,0,0,1-.14-1,3.73,3.73,0,0,1,.26-1.18l1,.26a3.12,3.12,0,0,0-.13.65.62.62,0,0,0,.12.46.88.88,0,0,0,.55.17l.38,0,.07-1.07,1.13.07-.07,1.08,4.3.28-.09,1.44-4.3-.29,0,.8Z"/><path class="cls-2" d="M13.12,68.18a3,3,0,0,1-1.33-.56,2.38,2.38,0,0,1-.86-1.14A2.93,2.93,0,0,1,10.79,65,2.73,2.73,0,0,1,14,62.63a2.82,2.82,0,0,1,1.91,1.09,2.7,2.7,0,0,1,.51,2.11,3.29,3.29,0,0,1-.55,1.36,2.32,2.32,0,0,1-1.13.87A3.29,3.29,0,0,1,13.12,68.18Zm.29-1.45a1.8,1.8,0,0,0,1.28-.2,1.24,1.24,0,0,0,.57-.87,1.22,1.22,0,0,0-.29-1,1.85,1.85,0,0,0-1.18-.56,1.77,1.77,0,0,0-1.27.2,1.25,1.25,0,0,0-.28,1.87A1.85,1.85,0,0,0,13.41,66.73Z"/><path class="cls-2" d="M17.28,60.75l-.34,1.4-5.29-1.26.31-1.3.76.18a2.28,2.28,0,0,1-.56-.77,1.19,1.19,0,0,1,0-.65,1.94,1.94,0,0,1,.48-.86l1.12.73a1.19,1.19,0,0,0-.38.6.76.76,0,0,0,0,.54,1.11,1.11,0,0,0,.51.46,9.12,9.12,0,0,0,1.74.54Z"/><path class="cls-2" d="M12.64,56.55l.44-1.25.7.25a2.15,2.15,0,0,1-.24-1.89,1.83,1.83,0,0,1,.51-.78,1.62,1.62,0,0,1,.83-.37,2.41,2.41,0,0,1-.35-.95,1.88,1.88,0,0,1,.09-.91,2.06,2.06,0,0,1,.57-.87,1.46,1.46,0,0,1,.89-.34,2.9,2.9,0,0,1,1.11.24l3.27,1.17L20,52.21l-2.92-1.05a2.4,2.4,0,0,0-1-.22.7.7,0,0,0-.49.48,1,1,0,0,0,.36,1.14,3.44,3.44,0,0,0,1,.49l2.45.89-.48,1.35-2.81-1a3.87,3.87,0,0,0-1-.27.58.58,0,0,0-.4.11.77.77,0,0,0-.26.37,1.13,1.13,0,0,0,0,.63,1,1,0,0,0,.36.53,3.75,3.75,0,0,0,1,.49l2.49.89-.48,1.36Z"/><path class="cls-2" d="M18.16,47.11l-.8,1.06a2.09,2.09,0,0,1-.7-1.21,2.79,2.79,0,0,1,.39-1.59,3.34,3.34,0,0,1,.85-1.18,1.46,1.46,0,0,1,.82-.33,3,3,0,0,1,1.23.41l1.49.77a5.71,5.71,0,0,0,1,.42,2.94,2.94,0,0,0,.77.1l-.65,1.27-.44-.07-.17,0a2.64,2.64,0,0,1,.12,1,2.16,2.16,0,0,1-.25.88,1.81,1.81,0,0,1-1,1,1.53,1.53,0,0,1-1.25-.09,1.47,1.47,0,0,1-.85-1.36,5.09,5.09,0,0,1,.22-1.18,7.91,7.91,0,0,0,.32-1.4l-.13-.07a.75.75,0,0,0-.62-.08c-.17.06-.33.27-.51.61a1,1,0,0,0-.13.6A1,1,0,0,0,18.16,47.11Zm1.92-1.19c0,.19-.1.49-.2.88a2.43,2.43,0,0,0-.13.81.58.58,0,0,0,.32.48.71.71,0,0,0,.57,0,.79.79,0,0,0,.45-.41,1.2,1.2,0,0,0,.11-.78.85.85,0,0,0-.27-.52,2.45,2.45,0,0,0-.6-.37Z"/><path class="cls-2" d="M20.35,39.79l1,.59-.51.84,1.87,1.14a5.5,5.5,0,0,0,.68.38.29.29,0,0,0,.22,0,.39.39,0,0,0,.19-.17A1.73,1.73,0,0,0,24,42l1,.47a2.82,2.82,0,0,1-.41,1.08,1.78,1.78,0,0,1-.47.54,1.05,1.05,0,0,1-.53.21,1.38,1.38,0,0,1-.59-.11c-.15-.07-.45-.23-.89-.49l-2-1.23-.35.56-1-.59.34-.57-.92-.56,0-1.67,1.64,1Z"/><path class="cls-2" d="M20.41,38.38l-1.11-.75.82-1.19,1.1.75Zm5.1,3.48L21,38.8l.81-1.19,4.49,3.06Z"/><path class="cls-2" d="M24.67,38.07a2.93,2.93,0,0,1-.86-1.15,2.48,2.48,0,0,1-.18-1.42,3.09,3.09,0,0,1,.63-1.35,2.72,2.72,0,0,1,1.89-1.08,3,3,0,0,1,3.18,2.55,2.71,2.71,0,0,1-.62,2.07,3.3,3.3,0,0,1-1.15.91,2.33,2.33,0,0,1-1.42.18A3.22,3.22,0,0,1,24.67,38.07Zm1-1.11a1.83,1.83,0,0,0,1.21.48,1.22,1.22,0,0,0,.93-.48A1.17,1.17,0,0,0,28,36a2.18,2.18,0,0,0-1.93-1.55,1.23,1.23,0,0,0-.93.47,1.21,1.21,0,0,0-.25,1A1.75,1.75,0,0,0,25.65,37Z"/><path class="cls-2" d="M34.48,31.21l-1,1-2-1.95a4.32,4.32,0,0,0-.88-.73.77.77,0,0,0-.49-.07.8.8,0,0,0-.45.26,1.08,1.08,0,0,0-.33.62,1,1,0,0,0,.1.67,4.63,4.63,0,0,0,.81.95L32,33.71l-1,1-3.88-3.82.94-1,.57.56a2.22,2.22,0,0,1,.6-1.93,2.17,2.17,0,0,1,.74-.49A1.41,1.41,0,0,1,30.7,28a1.64,1.64,0,0,1,.63.22,5.1,5.1,0,0,1,.74.62Z"/><path class="cls-2" d="M35.82,26.76l1.1-1a1.83,1.83,0,0,0,1.08.56,2,2,0,0,0,1.8-1.28.92.92,0,0,0-.13-.8.72.72,0,0,0-.4-.27,1.23,1.23,0,0,0-.63.06c-.18.05-.57.21-1.17.45a4.15,4.15,0,0,1-1.82.42,2,2,0,0,1-1.83-1.86,2,2,0,0,1,.31-1.17,3.73,3.73,0,0,1,1-1.09A3.17,3.17,0,0,1,37.24,20a2.17,2.17,0,0,1,1.59.89l-1.18.95a1.3,1.3,0,0,0-.83-.42,1.57,1.57,0,0,0-.93.36,1.8,1.8,0,0,0-.67.83.56.56,0,0,0,.08.52.6.6,0,0,0,.46.24A4.14,4.14,0,0,0,37.18,23a7.61,7.61,0,0,1,1.63-.53,2.16,2.16,0,0,1,1.13.12,2.18,2.18,0,0,1,1,.79,2.31,2.31,0,0,1,.43,1.18A2.19,2.19,0,0,1,41,25.81,4.44,4.44,0,0,1,39.84,27a3.2,3.2,0,0,1-2.15.76A2.84,2.84,0,0,1,35.82,26.76Z"/><path class="cls-2" d="M45,21.46,46.31,21a2.33,2.33,0,0,1-.14,1.47,2.69,2.69,0,0,1-1.08,1.12,2.48,2.48,0,0,1-2.29.26,3.19,3.19,0,0,1-1.41-1.35,3,3,0,0,1-.46-2.19,2.32,2.32,0,0,1,1.16-1.56,2.43,2.43,0,0,1,2.06-.28A3.58,3.58,0,0,1,46,20.21L42.86,22a1.43,1.43,0,0,0,.8.68,1.1,1.1,0,0,0,.9-.11.89.89,0,0,0,.39-.45A1.15,1.15,0,0,0,45,21.46Zm-.66-1.29a1.35,1.35,0,0,0-.76-.66,1,1,0,0,0-.81.1,1,1,0,0,0-.5.69,1.32,1.32,0,0,0,.21.95Z"/><path class="cls-2" d="M50.73,16.27l-1.18.83a1,1,0,0,0-.56-.44.94.94,0,0,0-.69.08,1.06,1.06,0,0,0-.62.69,1.88,1.88,0,0,0,.23,1.27,2.2,2.2,0,0,0,.87,1.1,1.08,1.08,0,0,0,1,0,1,1,0,0,0,.51-.49,1.48,1.48,0,0,0,0-.89l1.38-.37a2.5,2.5,0,0,1-.15,1.69,2.64,2.64,0,0,1-1.31,1.15,2.51,2.51,0,0,1-2.05.12,2.91,2.91,0,0,1-1.51-1.6,2.91,2.91,0,0,1-.24-2.2,2.53,2.53,0,0,1,1.44-1.49,2.65,2.65,0,0,1,1.61-.28A2.46,2.46,0,0,1,50.73,16.27Z"/><path class="cls-2" d="M56.57,18.25l-.26-.77A2.23,2.23,0,0,1,54.91,19a2.08,2.08,0,0,1-1,.1,1.41,1.41,0,0,1-.82-.44,3.19,3.19,0,0,1-.57-1.07l-1.12-3.26,1.36-.47.81,2.37a6.41,6.41,0,0,0,.54,1.3.74.74,0,0,0,.4.3,1,1,0,0,0,.56,0,1.11,1.11,0,0,0,.55-.4,1,1,0,0,0,.22-.61,5.78,5.78,0,0,0-.38-1.42l-.75-2.17,1.37-.47,1.77,5.14Z"/><path class="cls-2" d="M60.47,17.15l-1.39.35-1.33-5.28,1.3-.33.19.76a2.35,2.35,0,0,1,.42-.86,1.25,1.25,0,0,1,.56-.32,1.86,1.86,0,0,1,1,0l-.13,1.32a1.28,1.28,0,0,0-.71-.06.8.8,0,0,0-.46.28,1.2,1.2,0,0,0-.17.67,8.17,8.17,0,0,0,.33,1.8Z"/><path class="cls-2" d="M61.85,10.5,61.6,9.19,63,8.92l.25,1.31ZM63,16.57l-1-5.34L63.4,11l1,5.34Z"/><path class="cls-2" d="M67.52,10.34l.16,1.14-1,.13.3,2.17c.06.44.11.7.13.77a.31.31,0,0,0,.16.16.4.4,0,0,0,.25,0,1.86,1.86,0,0,0,.55-.22l.27,1.09a2.81,2.81,0,0,1-1.09.37,1.9,1.9,0,0,1-.72,0,1.06,1.06,0,0,1-.5-.28,1.41,1.41,0,0,1-.27-.52,6.3,6.3,0,0,1-.19-1l-.32-2.35-.65.09-.16-1.14.65-.09L65,9.6l1.31-1,.27,1.9Z"/><path class="cls-2" d="M68.11,10.23l1.53-.09,1.53,3.77,1-3.93,1.49-.09-1.6,5.34-.28,1a4,4,0,0,1-.32.75,1.53,1.53,0,0,1-.37.43,1.76,1.76,0,0,1-.53.27,2.56,2.56,0,0,1-.73.14,4.36,4.36,0,0,1-.81,0l-.2-1.12a3.31,3.31,0,0,0,.61,0,.86.86,0,0,0,.72-.34,2,2,0,0,0,.33-.77Z"/><path class="cls-2" d="M77.56,15.32l.8-7.47,2.25.24.82,5.24,1.88-4.95,2.26.24-.79,7.47-1.4-.15L84,10.06l-2.11,5.72-1.45-.15-.85-6L79,15.47Z"/><path class="cls-2" d="M87.93,12.94l-1.22-.52a2,2,0,0,1,1-1,2.8,2.8,0,0,1,1.64,0A3.55,3.55,0,0,1,90.7,12a1.36,1.36,0,0,1,.51.71,2.85,2.85,0,0,1-.1,1.3l-.39,1.63a6.06,6.06,0,0,0-.17,1,2.72,2.72,0,0,0,.09.77l-1.39-.32c0-.1,0-.25,0-.45s0-.14,0-.17a2.64,2.64,0,0,1-.89.34,2.15,2.15,0,0,1-.91,0,1.88,1.88,0,0,1-1.19-.74A1.53,1.53,0,0,1,86,14.85a1.6,1.6,0,0,1,.4-.75,1.5,1.5,0,0,1,.73-.4,5,5,0,0,1,1.19-.07,7.51,7.51,0,0,0,1.44,0l0-.14a.73.73,0,0,0-.06-.62,1.26,1.26,0,0,0-.72-.35,1,1,0,0,0-.61,0A1,1,0,0,0,87.93,12.94Zm1.61,1.57a7.49,7.49,0,0,1-.9,0,2.94,2.94,0,0,0-.82.07.62.62,0,0,0-.39.43.73.73,0,0,0,.1.56.85.85,0,0,0,.51.35,1.25,1.25,0,0,0,.78-.09.94.94,0,0,0,.45-.38,3.5,3.5,0,0,0,.21-.68Z"/><path class="cls-2" d="M96.22,19.3l-1.37-.47.9-2.62A4.27,4.27,0,0,0,96,15.1a.76.76,0,0,0-.15-.48.86.86,0,0,0-.43-.3,1.19,1.19,0,0,0-.7,0,1,1,0,0,0-.56.38,4.74,4.74,0,0,0-.5,1.15l-.8,2.34-1.36-.47,1.75-5.15,1.27.43-.26.76a2.23,2.23,0,0,1,2.76.14,1.56,1.56,0,0,1,.43.61,1.62,1.62,0,0,1,.07.66,4.2,4.2,0,0,1-.24,1Z"/><path class="cls-2" d="M100,16.79,98.87,16a2,2,0,0,1,1.17-.75,2.81,2.81,0,0,1,1.61.32,3.26,3.26,0,0,1,1.21.8,1.48,1.48,0,0,1,.37.8,3.05,3.05,0,0,1-.36,1.25L102.15,20a5.93,5.93,0,0,0-.37,1,3,3,0,0,0-.07.77l-1.29-.59a3.25,3.25,0,0,1,0-.44c0-.09,0-.15,0-.18a2.45,2.45,0,0,1-.94.16,2.32,2.32,0,0,1-.89-.21,1.86,1.86,0,0,1-1-1,1.52,1.52,0,0,1,0-1.25,1.61,1.61,0,0,1,.54-.66,1.39,1.39,0,0,1,.79-.24,5,5,0,0,1,1.18.16,6.85,6.85,0,0,0,1.42.26l.06-.13a.7.7,0,0,0,.06-.62,1.21,1.21,0,0,0-.63-.48.94.94,0,0,0-.61-.11A1,1,0,0,0,100,16.79Zm1.26,1.87a8.43,8.43,0,0,1-.88-.17,2.65,2.65,0,0,0-.82-.09.59.59,0,0,0-.47.34.71.71,0,0,0,0,.57.8.8,0,0,0,.43.44,1.21,1.21,0,0,0,.78.07.82.82,0,0,0,.51-.29,2.72,2.72,0,0,0,.35-.61Z"/><path class="cls-2" d="M102.24,22.43l1.32,1a.52.52,0,0,0,0,.43,1.12,1.12,0,0,0,.48.46,1.73,1.73,0,0,0,.82.28.71.71,0,0,0,.43-.17,2.07,2.07,0,0,0,.39-.54l.4-.68a2,2,0,0,1-1.85-.06,2,2,0,0,1-1-1.68,3.08,3.08,0,0,1,.48-1.83,3,3,0,0,1,1.62-1.47,2.11,2.11,0,0,1,1.78.2,2,2,0,0,1,1,1.6l.39-.65,1.16.67-2.46,4.22a5,5,0,0,1-.86,1.17,1.81,1.81,0,0,1-.76.42,2,2,0,0,1-.88,0,3.8,3.8,0,0,1-1.12-.48A3.08,3.08,0,0,1,102,23.9a1.49,1.49,0,0,1,.11-1.33A.8.8,0,0,1,102.24,22.43ZM105,20.32a1.94,1.94,0,0,0-.35,1.26,1,1,0,0,0,.51.76,1.16,1.16,0,0,0,1,.1,1.9,1.9,0,0,0,.93-.87,2,2,0,0,0,.33-1.26,1.09,1.09,0,0,0-.56-.8,1,1,0,0,0-.94-.08A1.82,1.82,0,0,0,105,20.32Z"/><path class="cls-2" d="M111.44,25.84l1,1a2.33,2.33,0,0,1-1.41.46,2.56,2.56,0,0,1-1.45-.54,2.42,2.42,0,0,1-1.15-2,3.12,3.12,0,0,1,.66-1.83,3,3,0,0,1,1.82-1.3,2.31,2.31,0,0,1,1.89.43,2.4,2.4,0,0,1,1.08,1.77,3.51,3.51,0,0,1-.9,2.39l-2.91-2.12a1.43,1.43,0,0,0-.31,1,1.1,1.1,0,0,0,.46.77.87.87,0,0,0,.57.19A1.09,1.09,0,0,0,111.44,25.84Zm.93-1.13a1.38,1.38,0,0,0,.29-.95,1,1,0,0,0-.41-.71,1,1,0,0,0-.83-.18,1.38,1.38,0,0,0-.8.58Z"/><path class="cls-2" d="M116.08,24.63l1,.9-.5.55a2.09,2.09,0,0,1,1.82.52,1.82,1.82,0,0,1,.52.78,1.61,1.61,0,0,1,0,.9,2.57,2.57,0,0,1,1,.06,1.79,1.79,0,0,1,.79.45,2.05,2.05,0,0,1,.58.87,1.45,1.45,0,0,1,0,.94,3.23,3.23,0,0,1-.66.93l-2.38,2.54-1-1,2.13-2.27a2.31,2.31,0,0,0,.6-.86.7.7,0,0,0-.24-.65,1,1,0,0,0-1.19-.12,4,4,0,0,0-.85.74l-1.79,1.91-1-1,2-2.18a4.26,4.26,0,0,0,.64-.8.62.62,0,0,0,.06-.41.83.83,0,0,0-.24-.39,1,1,0,0,0-.56-.27,1,1,0,0,0-.64.11,4.2,4.2,0,0,0-.85.74l-1.8,1.94-1-1Z"/><path class="cls-2" d="M122.32,36.34l.73,1.26a2.37,2.37,0,0,1-1.48.09,2.46,2.46,0,0,1-1.27-.88,2.42,2.42,0,0,1-.64-2.2,3.09,3.09,0,0,1,1.1-1.62,3,3,0,0,1,2.08-.81,2.32,2.32,0,0,1,1.73.88,2.4,2.4,0,0,1,.61,2,3.51,3.51,0,0,1-1.45,2.09l-2.31-2.77a1.47,1.47,0,0,0-.55.91,1.09,1.09,0,0,0,.26.86.89.89,0,0,0,.51.32A1.17,1.17,0,0,0,122.32,36.34Zm1.17-.87a1.4,1.4,0,0,0,.52-.86,1,1,0,0,0-.23-.78,1,1,0,0,0-.76-.38,1.31,1.31,0,0,0-.91.37Z"/><path class="cls-2" d="M125.33,43.5l-.81-1.19,2.3-1.55a4.12,4.12,0,0,0,.89-.72.84.84,0,0,0,.17-.47.91.91,0,0,0-.17-.5,1.16,1.16,0,0,0-.54-.44,1.06,1.06,0,0,0-.68,0,5,5,0,0,0-1.1.61l-2,1.38-.8-1.19,4.5-3,.75,1.11-.66.44a2.21,2.21,0,0,1,1.77,1,2.14,2.14,0,0,1,.34.82,1.4,1.4,0,0,1,0,.74,1.69,1.69,0,0,1-.35.57,4.66,4.66,0,0,1-.75.61Z"/><path class="cls-2" d="M131.93,44.16l-1,.56-.48-.85-1.91,1.07a5,5,0,0,0-.66.41.3.3,0,0,0-.1.2.4.4,0,0,0,.06.25,1.82,1.82,0,0,0,.4.43l-.91.66a2.89,2.89,0,0,1-.75-.89,2,2,0,0,1-.23-.67,1.14,1.14,0,0,1,.07-.57,1.57,1.57,0,0,1,.39-.45,7,7,0,0,1,.86-.54l2.07-1.16-.32-.58,1-.56.33.58.94-.54,1.44.85-1.67.94Z"/><path class="cls-2" d="M131,48.87l.67,1.31a1.86,1.86,0,0,0-.81.91,1.61,1.61,0,0,0,.08,1.15,1.66,1.66,0,0,0,.7.91.94.94,0,0,0,.81.08.67.67,0,0,0,.36-.32,1.2,1.2,0,0,0,.1-.62,12.41,12.41,0,0,0-.14-1.25,4.22,4.22,0,0,1,.06-1.87A1.93,1.93,0,0,1,134,48a1.91,1.91,0,0,1,1.11-.09,2,2,0,0,1,1.06.59,3.84,3.84,0,0,1,.79,1.28,3.24,3.24,0,0,1,.21,2.2,2.2,2.2,0,0,1-1.26,1.31l-.63-1.38a1.27,1.27,0,0,0,.62-.7,1.48,1.48,0,0,0-.12-1,1.76,1.76,0,0,0-.63-.87.57.57,0,0,0-.86.33,3.77,3.77,0,0,0,.05,1.48,7.48,7.48,0,0,1,.1,1.72A2.08,2.08,0,0,1,133,54.63a2.21,2.21,0,0,1-1.25.12,2.24,2.24,0,0,1-1.16-.64,4.19,4.19,0,0,1-.85-1.41,3.27,3.27,0,0,1-.2-2.28A2.85,2.85,0,0,1,131,48.87Z"/><path class="cls-2" d="M136.33,54.36l.41,1.47-3.37,2.3,4.07.18.4,1.44-5.56-.44-1-.08a4.79,4.79,0,0,1-.8-.15,1.77,1.77,0,0,1-.49-.27,1.88,1.88,0,0,1-.39-.47,3.31,3.31,0,0,1-.28-.68,3.8,3.8,0,0,1-.13-.81l1-.42a3.26,3.26,0,0,0,.1.6.91.91,0,0,0,.48.64,2.07,2.07,0,0,0,.82.15Z"/><path class="cls-2" d="M134.18,61.18l.47,1.38a1.06,1.06,0,0,0-.57.48,1.27,1.27,0,0,0-.07.82,1.39,1.39,0,0,0,.35.79.45.45,0,0,0,.41.12.38.38,0,0,0,.25-.15,1.16,1.16,0,0,0,.1-.51,8.07,8.07,0,0,1,.3-2.3,1.44,1.44,0,0,1,1.1-.85,1.5,1.5,0,0,1,1.26.34,2.58,2.58,0,0,1,.78,1.62,3.09,3.09,0,0,1-.06,1.7,1.91,1.91,0,0,1-.93.93l-.49-1.29a.86.86,0,0,0,.42-.42,1.15,1.15,0,0,0,.05-.71,1.61,1.61,0,0,0-.3-.77.33.33,0,0,0-.32-.11.32.32,0,0,0-.23.18,5.75,5.75,0,0,0-.16,1.4,4,4,0,0,1-.35,1.69,1.36,1.36,0,0,1-1,.64,1.71,1.71,0,0,1-1.38-.39A2.76,2.76,0,0,1,133,64a3,3,0,0,1,.13-1.81A2.05,2.05,0,0,1,134.18,61.18Z"/><path class="cls-2" d="M139.31,69.52l-1.14.11-.1-1-2.18.22a6.31,6.31,0,0,0-.77.1.35.35,0,0,0-.17.15.4.4,0,0,0,0,.25,2,2,0,0,0,.2.56l-1.1.23a2.77,2.77,0,0,1-.33-1.11,2.05,2.05,0,0,1,.06-.71,1.16,1.16,0,0,1,.29-.49,1.36,1.36,0,0,1,.54-.25,6.33,6.33,0,0,1,1-.15l2.36-.23-.07-.66,1.14-.12.07.66,1.07-.1,1,1.35-1.91.19Z"/><path class="cls-2" d="M135.79,74l-.2,1.44a2.32,2.32,0,0,1-1.22-.84,2.59,2.59,0,0,1-.46-1.49,2.44,2.44,0,0,1,.88-2.12,3.1,3.1,0,0,1,1.86-.59,3,3,0,0,1,2.13.66,2.29,2.29,0,0,1,.82,1.76,2.4,2.4,0,0,1-.76,1.94,3.49,3.49,0,0,1-2.43.73l-.1-3.6a1.46,1.46,0,0,0-1,.37,1.09,1.09,0,0,0-.33.84.92.92,0,0,0,.2.57A1.15,1.15,0,0,0,135.79,74Zm1.46,0a1.37,1.37,0,0,0,.94-.34,1.06,1.06,0,0,0,.31-.76,1,1,0,0,0-.37-.77,1.32,1.32,0,0,0-.94-.28Z"/><path class="cls-2" d="M139.58,77l-.13,1.32-.74-.07A2.11,2.11,0,0,1,139.4,80a1.74,1.74,0,0,1-.3.88,1.7,1.7,0,0,1-.71.57,2.29,2.29,0,0,1,.57.83,1.85,1.85,0,0,1,.13.9,2,2,0,0,1-.34,1,1.55,1.55,0,0,1-.77.55,3.32,3.32,0,0,1-1.14,0l-3.46-.34.14-1.43,3.09.3a2.31,2.31,0,0,0,1.06,0,.69.69,0,0,0,.37-.58,1,1,0,0,0-.13-.59,1,1,0,0,0-.5-.43,4,4,0,0,0-1.11-.23l-2.6-.26.14-1.43,3,.29a4.16,4.16,0,0,0,1,0,.68.68,0,0,0,.36-.21.73.73,0,0,0,.16-.42,1.05,1.05,0,0,0-.12-.61,1,1,0,0,0-.48-.44,4.24,4.24,0,0,0-1.11-.22L134,77.87l.15-1.43Z"/><ellipse class="cls-3" cx="74.66" cy="75.13" rx="52.72" ry="52.74"/><path class="cls-4" d="M74.66,128.13A53,53,0,0,1,37.2,37.65a53,53,0,1,1,37.46,90.48Zm0-105.47a52.47,52.47,0,1,0,52.46,52.47A52.53,52.53,0,0,0,74.66,22.66Z"/><path class="cls-1" d="M74.67,103.09h0a29.7,29.7,0,1,1,21-8.7A29.55,29.55,0,0,1,74.66,103.09Zm0-2.62h0a27.07,27.07,0,1,0-19.16-7.93,26.94,26.94,0,0,0,19.16,7.93Z"/><rect class="cls-1" x="73.35" y="45.09" width="2.62" height="56.59"/><rect class="cls-1" x="46.37" y="72.07" width="56.59" height="2.62"/><path class="cls-1" d="M72,102.71a34.91,34.91,0,0,1-6.67-7.61,39,39,0,0,1,0-43.44A34.4,34.4,0,0,1,72,44.06l1.62,2.06-.81-1,.81,1a33.09,33.09,0,0,0-6.17,7.08,36.39,36.39,0,0,0,6.17,47.44Z"/><path class="cls-1" d="M77.3,102.71l-1.62-2.07a32.91,32.91,0,0,0,6.16-7.08,36.33,36.33,0,0,0,0-40.36,32.91,32.91,0,0,0-6.16-7.08l1.62-2.06A34.4,34.4,0,0,1,84,51.66,39,39,0,0,1,84,95.1,34.91,34.91,0,0,1,77.3,102.71Z"/><path class="cls-1" d="M74.66,65.57c-17.94,0-22.87-9.45-23.08-9.86l2.35-1.18a13.05,13.05,0,0,0,4.18,4.19c2.86,1.93,8,4.22,16.55,4.22s13.7-2.29,16.56-4.22a13.19,13.19,0,0,0,4.18-4.19l2.34,1.18C97.54,56.12,92.61,65.57,74.66,65.57Z"/><path class="cls-1" d="M53.93,92.23l-2.35-1.18c.21-.4,5.14-9.85,23.08-9.85s22.88,9.45,23.08,9.85L95.4,92.22A13.34,13.34,0,0,0,91.22,88c-2.86-1.92-8-4.22-16.56-4.22S61,86.12,58.11,88A13.05,13.05,0,0,0,53.93,92.23Z"/><rect class="cls-3" x="43.03" y="62.16" width="62.95" height="23.04"/><path class="cls-1" d="M54.52,79.8v-12a.69.69,0,0,0-.43-.71A2.79,2.79,0,0,0,53,67h-.39V65.13H61V67h-.36a2.83,2.83,0,0,0-1.09.17.68.68,0,0,0-.43.71v12a.69.69,0,0,0,.43.71,3,3,0,0,0,1.09.17H61v1.83H52.63V80.68H53a3,3,0,0,0,1.07-.17A.71.71,0,0,0,54.52,79.8Z"/><path class="cls-1" d="M71.65,81a4.9,4.9,0,0,0,1.66-.24,1.77,1.77,0,0,0,1-.74,2.54,2.54,0,0,0,.32-1.33,2,2,0,0,0-.34-1.21,2.62,2.62,0,0,0-1-.79,8.34,8.34,0,0,0-1.47-.58c-.57-.17-1.21-.34-1.93-.52a19.93,19.93,0,0,1-2-.68,6.13,6.13,0,0,1-1.71-1A4.28,4.28,0,0,1,65,72.3a5.67,5.67,0,0,1-.44-2.37A5.12,5.12,0,0,1,65.29,67a4.71,4.71,0,0,1,2.12-1.75,7.76,7.76,0,0,1,3.17-.6,6.78,6.78,0,0,1,2.63.45A4.08,4.08,0,0,1,75,66.56a7.33,7.33,0,0,1,1,2.59L75,68.31,75.5,65h1.88v5h-2.2a4.72,4.72,0,0,0-.87-1.8,3.89,3.89,0,0,0-1.45-1.13A4.59,4.59,0,0,0,71,66.67a4.05,4.05,0,0,0-1.52.25,1.71,1.71,0,0,0-.86.71,2.25,2.25,0,0,0-.27,1.15,1.93,1.93,0,0,0,.31,1.12,2.22,2.22,0,0,0,.88.73,8.12,8.12,0,0,0,1.38.49l1.79.45a21,21,0,0,1,2.17.64,6.87,6.87,0,0,1,1.86,1A4.25,4.25,0,0,1,78,74.75a5.43,5.43,0,0,1,.47,2.38,6.19,6.19,0,0,1-.77,3.18,4.94,4.94,0,0,1-2.22,2,8.38,8.38,0,0,1-3.5.66A9,9,0,0,1,69,82.48a4.82,4.82,0,0,1-2.18-1.56,6.84,6.84,0,0,1-1.24-3l1,.78-.46,3.87h-2V76.88h2.38a6,6,0,0,0,1.15,2.3,4.61,4.61,0,0,0,1.78,1.34A5.87,5.87,0,0,0,71.65,81Z"/><path class="cls-1" d="M90.55,82.93a10.64,10.64,0,0,1-3.66-.6,7.76,7.76,0,0,1-4.7-4.65,11.76,11.76,0,0,1,0-7.71A7.77,7.77,0,0,1,84,67.1a8.36,8.36,0,0,1,2.85-1.79,11.11,11.11,0,0,1,7.32,0,8.36,8.36,0,0,1,2.85,1.79A7.77,7.77,0,0,1,98.91,70a11.76,11.76,0,0,1,0,7.71,7.76,7.76,0,0,1-4.7,4.65A10.64,10.64,0,0,1,90.55,82.93Zm0-2.08a3.86,3.86,0,0,0,1.83-.42,3.46,3.46,0,0,0,1.33-1.28A6.91,6.91,0,0,0,94.53,77a15.18,15.18,0,0,0,.28-3.14,15,15,0,0,0-.28-3.13,6.91,6.91,0,0,0-.82-2.19,3.49,3.49,0,0,0-1.33-1.29,4.27,4.27,0,0,0-3.65,0,3.51,3.51,0,0,0-1.34,1.29,7.16,7.16,0,0,0-.82,2.19,15.73,15.73,0,0,0-.28,3.13A15.91,15.91,0,0,0,86.57,77a7.16,7.16,0,0,0,.82,2.19,3.48,3.48,0,0,0,1.34,1.28A3.85,3.85,0,0,0,90.55,80.85Z"/><path class="cls-1" d="M59.72,117.54H50.79a5.58,5.58,0,0,1,.93-2.49,12.73,12.73,0,0,1,2.92-2.75,8.66,8.66,0,0,0,1.68-1.48,1.64,1.64,0,0,0,.36-1,1.11,1.11,0,0,0-.36-.83,1.37,1.37,0,0,0-1.84,0A2.25,2.25,0,0,0,54,110.3l-3-.24a4.8,4.8,0,0,1,.64-2A3.07,3.07,0,0,1,53,107a6,6,0,0,1,2.36-.38,6.57,6.57,0,0,1,2.44.36,2.93,2.93,0,0,1,1.88,2.76,3.39,3.39,0,0,1-.57,1.87,7.87,7.87,0,0,1-2.09,2q-.9.63-1.2.87c-.21.17-.44.38-.72.65h4.65Z"/><path class="cls-1" d="M61.05,106.82h8.69v2a10.93,10.93,0,0,0-1.9,2.22,12.75,12.75,0,0,0-1.45,3.22,15.55,15.55,0,0,0-.57,3.27h-3a17.52,17.52,0,0,1,1.1-4.4,16.54,16.54,0,0,1,2.39-3.8H61.05Z"/><path class="cls-1" d="M71,112.14c0-2,.37-3.46,1.1-4.28a4.29,4.29,0,0,1,3.35-1.22,5,5,0,0,1,1.78.27,3.38,3.38,0,0,1,1.13.69,4,4,0,0,1,.69.9,5,5,0,0,1,.41,1.1,10.25,10.25,0,0,1,.3,2.5,7.29,7.29,0,0,1-1,4.27,3.94,3.94,0,0,1-3.4,1.35,4.77,4.77,0,0,1-2.19-.43A3.57,3.57,0,0,1,71.8,116a5,5,0,0,1-.61-1.62A11.38,11.38,0,0,1,71,112.14Zm3,0a7.31,7.31,0,0,0,.36,2.8,1.13,1.13,0,0,0,1,.75,1.12,1.12,0,0,0,.79-.32,2,2,0,0,0,.49-1,10.83,10.83,0,0,0,.16-2.14,7.44,7.44,0,0,0-.37-2.87,1.16,1.16,0,0,0-1.08-.74,1.11,1.11,0,0,0-1.07.75A7.84,7.84,0,0,0,73.93,112.14Z"/><path class="cls-1" d="M81,112.14c0-2,.37-3.46,1.1-4.28a4.31,4.31,0,0,1,3.35-1.22,4.94,4.94,0,0,1,1.78.27,3.38,3.38,0,0,1,1.13.69,3.49,3.49,0,0,1,.69.9,4.58,4.58,0,0,1,.41,1.1,10.25,10.25,0,0,1,.3,2.5,7.29,7.29,0,0,1-1,4.27,3.94,3.94,0,0,1-3.4,1.35,4.7,4.7,0,0,1-2.18-.43A3.6,3.6,0,0,1,81.78,116a4.74,4.74,0,0,1-.6-1.62A10.66,10.66,0,0,1,81,112.14Zm3,0a7.31,7.31,0,0,0,.36,2.8,1.13,1.13,0,0,0,1,.75,1.1,1.1,0,0,0,.78-.32,1.91,1.91,0,0,0,.49-1,10.1,10.1,0,0,0,.16-2.14,7.5,7.5,0,0,0-.36-2.87,1.17,1.17,0,0,0-1.09-.74,1.11,1.11,0,0,0-1.07.75A8.16,8.16,0,0,0,83.92,112.14Z"/><path class="cls-1" d="M97.69,106.64v10.9h-3V110.4a9.66,9.66,0,0,1-1.41.9,10.25,10.25,0,0,1-1.72.65v-2.44a7.2,7.2,0,0,0,2.36-1.17,4.79,4.79,0,0,0,1.32-1.7Z"/><path class="cls-3" d="M65.56,131.61l3.59-1.7,5.46,7a77.8,77.8,0,0,1,21.17-11c.47,1.74.46,1.73-1,2.6A75.52,75.52,0,0,0,74.5,146.32l-.22.19Z"/></g></svg>