<svg id="Layer_1" data-name="Layer 1" xmlns="http://www.w3.org/2000/svg" viewBox="0 0 150 150"><defs><style>.cls-1{fill:#fff;}.cls-2{fill:#085493;}.cls-3{fill:#217c7d;}.cls-4{fill:#0a6564;}</style></defs><g id="_4" data-name="4"><circle class="cls-1" cx="74.67" cy="74.78" r="73.44"/><path class="cls-2" d="M74.67,149.1a74.06,74.06,0,1,1,28.93-5.84A74,74,0,0,1,74.67,149.1Zm0-146.89a72.57,72.57,0,1,0,72.57,72.57A72.66,72.66,0,0,0,74.67,2.21Z"/><path class="cls-2" d="M18.41,56.76l-7.15-2.3L11.73,53l7.15,2.3Z"/><path class="cls-2" d="M19.9,52.5l-5.78-2.35-.84,2.06-1.17-.48,2.25-5.53,1.18.48-.84,2.06,5.78,2.36Z"/><path class="cls-2" d="M20.67,44.87l.64-1.33a1.83,1.83,0,0,0,1.22.1,1.56,1.56,0,0,0,.86-.76,1.63,1.63,0,0,0,.31-1.1,1,1,0,0,0-.42-.7.73.73,0,0,0-.47-.1,1.24,1.24,0,0,0-.56.3c-.15.12-.45.41-.91.87a4.06,4.06,0,0,1-1.53,1.07A2,2,0,0,1,18.16,43a2,2,0,0,1-.75-.83,2.09,2.09,0,0,1-.16-1.2,3.73,3.73,0,0,1,.54-1.4,3.25,3.25,0,0,1,1.64-1.5,2.18,2.18,0,0,1,1.8.22l-.73,1.33a1.28,1.28,0,0,0-.93-.07,1.49,1.49,0,0,0-.71.69,1.74,1.74,0,0,0-.31,1,.57.57,0,0,0,.78.49,4,4,0,0,0,1.16-.93,7.25,7.25,0,0,1,1.31-1.12,2.11,2.11,0,0,1,1.08-.31,2.33,2.33,0,0,1,1.18.36,2.27,2.27,0,0,1,.85.94A2.2,2.2,0,0,1,25.1,42a4.44,4.44,0,0,1-.62,1.54,3.27,3.27,0,0,1-1.7,1.53A2.9,2.9,0,0,1,20.67,44.87Z"/><path class="cls-2" d="M27.1,36.5l1.07-1a2.41,2.41,0,0,1,.42,1.42A2.47,2.47,0,0,1,28,38.36a2.44,2.44,0,0,1-2,1.11,3.12,3.12,0,0,1-1.81-.71,3,3,0,0,1-1.26-1.85A2.31,2.31,0,0,1,23.41,35a2.4,2.4,0,0,1,1.79-1,3.51,3.51,0,0,1,2.36,1l-2.18,2.86a1.46,1.46,0,0,0,1,.33,1.08,1.08,0,0,0,.79-.44,1,1,0,0,0,.2-.57A1.17,1.17,0,0,0,27.1,36.5Zm-1.1-1a1.38,1.38,0,0,0-.95-.32,1,1,0,0,0-.72.4,1,1,0,0,0-.2.82,1.36,1.36,0,0,0,.56.81Z"/><path class="cls-2" d="M31,34.56l-1,1.07L26,32l.89-1,.58.52a2.43,2.43,0,0,1-.13-.94,1.23,1.23,0,0,1,.29-.58,1.82,1.82,0,0,1,.84-.52l.63,1.17a1.26,1.26,0,0,0-.63.34.82.82,0,0,0-.21.5,1,1,0,0,0,.22.64,8.14,8.14,0,0,0,1.28,1.32Z"/><path class="cls-2" d="M33.83,31.64,28.5,29.19l1.1-1,2.65,1.32.86.47-.22-.44c-.07-.14-.13-.29-.2-.44l-1.15-2.73,1.08-1,2.15,5.45Z"/><path class="cls-2" d="M33.06,24l-.84-1,1.11-.91.84,1ZM37,28.83l-3.44-4.22,1.12-.9,3.44,4.21Z"/><path class="cls-2" d="M40.8,21.2l-1,1a1,1,0,0,0-.64-.34,1,1,0,0,0-.66.2,1.1,1.1,0,0,0-.49.8,1.91,1.91,0,0,0,.45,1.2,2.22,2.22,0,0,0,1.06.93,1.12,1.12,0,0,0,1.36-.75,1.42,1.42,0,0,0-.16-.87L42,22.79a2.48,2.48,0,0,1,.16,1.69,2.67,2.67,0,0,1-1.09,1.37,2.5,2.5,0,0,1-2,.47A2.91,2.91,0,0,1,37.3,25a3,3,0,0,1-.62-2.13,2.52,2.52,0,0,1,1.14-1.72,2.63,2.63,0,0,1,1.54-.56A2.4,2.4,0,0,1,40.8,21.2Z"/><path class="cls-2" d="M45.68,20.79l1.36-.5a2.36,2.36,0,0,1-.16,1.48,2.59,2.59,0,0,1-1.1,1.1,2.43,2.43,0,0,1-2.28.23,3.08,3.08,0,0,1-1.39-1.36,3,3,0,0,1-.44-2.19A2.31,2.31,0,0,1,42.85,18a2.39,2.39,0,0,1,2.06-.25,3.54,3.54,0,0,1,1.8,1.8l-3.14,1.78a1.48,1.48,0,0,0,.8.7,1.1,1.1,0,0,0,.9-.11.85.85,0,0,0,.4-.44A1.22,1.22,0,0,0,45.68,20.79ZM45,19.49a1.43,1.43,0,0,0-.75-.67,1,1,0,0,0-.81.09,1,1,0,0,0-.51.68,1.34,1.34,0,0,0,.2,1Z"/><path class="cls-2" d="M51.24,19.87l-2.58-7L50.79,12l3,4.34-.49-5.27,2.13-.79,2.58,7.06-1.32.48-2-5.55.63,6.06L54,18.88l-3.43-5,2,5.55Z"/><path class="cls-2" d="M59.5,13.16l-1.33.07a2.1,2.1,0,0,1,.47-1.31,2.81,2.81,0,0,1,1.47-.74,3.48,3.48,0,0,1,1.45-.1,1.4,1.4,0,0,1,.78.41,2.9,2.9,0,0,1,.48,1.21l.37,1.64a6.66,6.66,0,0,0,.31,1,3.24,3.24,0,0,0,.42.65l-1.38.33c-.06-.09-.14-.21-.24-.38s-.07-.13-.08-.16a2.63,2.63,0,0,1-.65.71,2.17,2.17,0,0,1-.83.38,1.84,1.84,0,0,1-1.39-.14,1.51,1.51,0,0,1-.74-1,1.53,1.53,0,0,1,0-.85,1.34,1.34,0,0,1,.47-.68,4.65,4.65,0,0,1,1-.59,8,8,0,0,0,1.28-.67l0-.14a.75.75,0,0,0-.33-.53,1.26,1.26,0,0,0-.8,0,1,1,0,0,0-.54.28A1.07,1.07,0,0,0,59.5,13.16Zm2.14.69a5.93,5.93,0,0,1-.8.42,3.38,3.38,0,0,0-.71.42.6.6,0,0,0-.15.56.69.69,0,0,0,.34.46.75.75,0,0,0,.61.08,1.25,1.25,0,0,0,.66-.42.86.86,0,0,0,.22-.54,2.66,2.66,0,0,0-.1-.7Z"/><path class="cls-2" d="M69.74,15.19l-1.43.19L68,12.63a3.8,3.8,0,0,0-.24-1.12.81.81,0,0,0-.35-.36.86.86,0,0,0-.51-.08,1.22,1.22,0,0,0-.64.29,1,1,0,0,0-.33.6,4.33,4.33,0,0,0,.05,1.25l.32,2.44-1.42.19-.72-5.39,1.33-.18.1.79A2.17,2.17,0,0,1,67.2,9.92a2,2,0,0,1,.89.05,1.51,1.51,0,0,1,.65.36,1.61,1.61,0,0,1,.35.56,3.77,3.77,0,0,1,.21.95Z"/><path class="cls-2" d="M72,11.29l-1.31-.19a2,2,0,0,1,.72-1.19A2.74,2.74,0,0,1,73,9.48a3.31,3.31,0,0,1,1.44.19,1.37,1.37,0,0,1,.68.55,2.94,2.94,0,0,1,.23,1.29l0,1.68a5.67,5.67,0,0,0,.1,1.05,3,3,0,0,0,.28.72l-1.42,0c0-.1-.1-.24-.16-.42a1.34,1.34,0,0,0,0-.17,2.85,2.85,0,0,1-.77.56,2.28,2.28,0,0,1-.89.21,1.91,1.91,0,0,1-1.34-.42,1.5,1.5,0,0,1-.52-1.14,1.64,1.64,0,0,1,.19-.83,1.47,1.47,0,0,1,.61-.57,5,5,0,0,1,1.13-.37,8.13,8.13,0,0,0,1.39-.39v-.15a.74.74,0,0,0-.22-.58,1.19,1.19,0,0,0-.78-.16,1.09,1.09,0,0,0-.59.17A1.17,1.17,0,0,0,72,11.29Zm2,1.11c-.19.07-.48.15-.87.25a3,3,0,0,0-.78.27.64.64,0,0,0-.27.52.74.74,0,0,0,.25.52.76.76,0,0,0,.58.2,1.26,1.26,0,0,0,.73-.28.9.9,0,0,0,.33-.49,3.1,3.1,0,0,0,0-.7Z"/><path class="cls-2" d="M76.52,15.34l1.63.31a.52.52,0,0,0,.16.41,1.09,1.09,0,0,0,.63.2,1.61,1.61,0,0,0,.85-.11.71.71,0,0,0,.32-.34,2.29,2.29,0,0,0,.11-.66l.06-.79a1.93,1.93,0,0,1-1.69.76,2,2,0,0,1-1.67-1,3.17,3.17,0,0,1-.37-1.86,3,3,0,0,1,.81-2A2.1,2.1,0,0,1,79,9.58a2,2,0,0,1,1.6,1l0-.76,1.35.1-.35,4.87a4.93,4.93,0,0,1-.26,1.42,1.77,1.77,0,0,1-.5.71,1.93,1.93,0,0,1-.79.37,3.87,3.87,0,0,1-1.22.07A3.16,3.16,0,0,1,77,16.75a1.51,1.51,0,0,1-.49-1.24A1.11,1.11,0,0,1,76.52,15.34ZM78,12.24a2,2,0,0,0,.24,1.29,1,1,0,0,0,.8.46,1.12,1.12,0,0,0,.92-.35,1.79,1.79,0,0,0,.45-1.19,1.89,1.89,0,0,0-.26-1.27,1.13,1.13,0,0,0-.85-.48,1.08,1.08,0,0,0-.88.34A1.94,1.94,0,0,0,78,12.24Z"/><path class="cls-2" d="M86.29,14.35l1.37.48a2.39,2.39,0,0,1-1.06,1,2.56,2.56,0,0,1-1.55.15,2.42,2.42,0,0,1-1.91-1.27,3.1,3.1,0,0,1-.21-1.94,3.06,3.06,0,0,1,1.06-2,2.3,2.3,0,0,1,1.89-.44,2.4,2.4,0,0,1,1.75,1.11A3.6,3.6,0,0,1,87.88,14l-3.56-.62a1.46,1.46,0,0,0,.18,1,1.07,1.07,0,0,0,.75.5.9.9,0,0,0,.59-.09A1.12,1.12,0,0,0,86.29,14.35Zm.33-1.42a1.38,1.38,0,0,0-.16-1,1,1,0,0,0-.68-.44,1,1,0,0,0-.82.2,1.28,1.28,0,0,0-.46.87Z"/><path class="cls-2" d="M90,11.19l1.26.39-.22.71A2.16,2.16,0,0,1,92.88,12a1.93,1.93,0,0,1,.8.48,1.64,1.64,0,0,1,.41.81,2.32,2.32,0,0,1,.93-.39,2.09,2.09,0,0,1,1.8.59,1.5,1.5,0,0,1,.38.87A3.06,3.06,0,0,1,97,15.45l-1,3.32-1.38-.43.93-3a2.28,2.28,0,0,0,.17-1,.7.7,0,0,0-.49-.48,1,1,0,0,0-1.13.41,4.3,4.3,0,0,0-.45,1l-.78,2.49-1.37-.43.89-2.84a3.73,3.73,0,0,0,.23-1,.62.62,0,0,0-.12-.4.69.69,0,0,0-.39-.24,1,1,0,0,0-.62,0,1,1,0,0,0-.52.38,4,4,0,0,0-.45,1l-.79,2.52-1.37-.43Z"/><path class="cls-2" d="M100.68,19l1.21.8a2.37,2.37,0,0,1-1.29.74,2.59,2.59,0,0,1-1.53-.23,2.42,2.42,0,0,1-1.54-1.7,3.06,3.06,0,0,1,.27-1.93A3,3,0,0,1,99.3,15a2.33,2.33,0,0,1,2,0,2.4,2.4,0,0,1,1.42,1.51,3.51,3.51,0,0,1-.38,2.51L99,17.59a1.45,1.45,0,0,0-.08,1.05,1.09,1.09,0,0,0,.61.67.91.91,0,0,0,.6.06A1.22,1.22,0,0,0,100.68,19Zm.66-1.3a1.38,1.38,0,0,0,.09-1,1,1,0,0,0-.55-.6,1,1,0,0,0-.85,0,1.28,1.28,0,0,0-.65.73Z"/><path class="cls-2" d="M106.54,24.07l-1.25-.72,1.38-2.41a4.17,4.17,0,0,0,.48-1,.71.71,0,0,0-.06-.5.8.8,0,0,0-.36-.37,1.11,1.11,0,0,0-.68-.16,1.06,1.06,0,0,0-.63.27,4.83,4.83,0,0,0-.71,1l-1.22,2.14-1.25-.71,2.69-4.73,1.16.67-.39.69a2.16,2.16,0,0,1,2,.09,2.12,2.12,0,0,1,.67.58,1.28,1.28,0,0,1,.3.68,1.48,1.48,0,0,1-.05.66,4.55,4.55,0,0,1-.41.88Z"/><path class="cls-2" d="M112.76,21.74l-.65.94-.81-.55-1.24,1.81a6.39,6.39,0,0,0-.42.65.36.36,0,0,0,0,.23.36.36,0,0,0,.16.19,1.76,1.76,0,0,0,.55.22l-.53,1a2.91,2.91,0,0,1-1.06-.47,1.7,1.7,0,0,1-.5-.5,1,1,0,0,1-.19-.54,1.42,1.42,0,0,1,.15-.58,7.53,7.53,0,0,1,.54-.86l1.34-2-.55-.37.65-1,.54.38.61-.9,1.67.13L112,21.18Z"/><path class="cls-2" d="M114,26.38l1.19.88a1.76,1.76,0,0,0-.33,1.17,1.61,1.61,0,0,0,.58,1,1.76,1.76,0,0,0,1,.51,1,1,0,0,0,.77-.29.69.69,0,0,0,.18-.44,1.18,1.18,0,0,0-.18-.61c-.09-.16-.32-.52-.68-1.06a4,4,0,0,1-.77-1.7,1.93,1.93,0,0,1,.5-1.58,1.89,1.89,0,0,1,1-.58,2,2,0,0,1,1.2.07,3.68,3.68,0,0,1,1.27.79,3.22,3.22,0,0,1,1.17,1.89,2.19,2.19,0,0,1-.56,1.73l-1.16-1a1.25,1.25,0,0,0,.24-.89,1.5,1.5,0,0,0-.54-.84,1.74,1.74,0,0,0-.95-.49.54.54,0,0,0-.49.19.55.55,0,0,0-.14.48A4.08,4.08,0,0,0,118,27a7.8,7.8,0,0,1,.85,1.5,2.06,2.06,0,0,1,.1,1.12,2.12,2.12,0,0,1-.58,1.09,2.16,2.16,0,0,1-1.07.66,2.14,2.14,0,0,1-1.32-.06,4.42,4.42,0,0,1-1.39-.89,3.22,3.22,0,0,1-1.18-2A2.82,2.82,0,0,1,114,26.38Z"/><path class="cls-2" d="M121.21,29l1,1.14-2,3.54L124,32l1,1.11-5.18,2.06-.94.38a4,4,0,0,1-.78.22,1.8,1.8,0,0,1-.57,0,2,2,0,0,1-.54-.25,2.77,2.77,0,0,1-.56-.49,4.54,4.54,0,0,1-.48-.67l.76-.84a3.37,3.37,0,0,0,.35.5.92.92,0,0,0,.72.35,2,2,0,0,0,.8-.22Z"/><path class="cls-2" d="M122.29,36l1,1a1.06,1.06,0,0,0-.29.68,1.23,1.23,0,0,0,.29.76,1.47,1.47,0,0,0,.67.56.46.46,0,0,0,.42-.08.38.38,0,0,0,.16-.24,1.22,1.22,0,0,0-.14-.5,7.66,7.66,0,0,1-.74-2.2,1.39,1.39,0,0,1,.6-1.24,1.51,1.51,0,0,1,1.29-.26A2.59,2.59,0,0,1,127,35.64a3,3,0,0,1,.7,1.55,1.86,1.86,0,0,1-.43,1.24l-1-.94a.85.85,0,0,0,.19-.56,1.27,1.27,0,0,0-.27-.66,1.66,1.66,0,0,0-.61-.56.37.37,0,0,0-.34,0,.32.32,0,0,0-.12.27,5.44,5.44,0,0,0,.47,1.33A4.15,4.15,0,0,1,126,39a1.35,1.35,0,0,1-.6,1,1.66,1.66,0,0,1-1.4.26,2.81,2.81,0,0,1-1.53-1.17,3.11,3.11,0,0,1-.69-1.69A2.11,2.11,0,0,1,122.29,36Z"/><path class="cls-2" d="M130.58,41.22l-1,.61-.52-.83-1.86,1.16a6,6,0,0,0-.64.43.4.4,0,0,0-.09.21.44.44,0,0,0,.07.24,1.7,1.7,0,0,0,.43.42l-.89.7a2.92,2.92,0,0,1-.78-.85,1.7,1.7,0,0,1-.26-.67,1.06,1.06,0,0,1,0-.57,1.49,1.49,0,0,1,.37-.47,7.71,7.71,0,0,1,.84-.57l2-1.26-.35-.56,1-.61.35.56.92-.57,1.47.78-1.62,1Z"/><path class="cls-2" d="M129.41,46.83l.46,1.39A2.37,2.37,0,0,1,128.4,48a2.59,2.59,0,0,1-1.06-1.13,2.45,2.45,0,0,1-.16-2.29,3.16,3.16,0,0,1,1.42-1.35,3,3,0,0,1,2.2-.36,2.34,2.34,0,0,1,1.51,1.23,2.46,2.46,0,0,1,.18,2.07,3.6,3.6,0,0,1-1.87,1.74L129,44.71a1.51,1.51,0,0,0-.72.77,1.05,1.05,0,0,0,.07.9.88.88,0,0,0,.43.42A1.09,1.09,0,0,0,129.41,46.83Zm1.33-.6a1.34,1.34,0,0,0,.69-.73,1,1,0,0,0-.06-.81,1,1,0,0,0-.66-.53,1.3,1.3,0,0,0-1,.17Z"/><path class="cls-2" d="M134.11,47.8l.46,1.25-.69.26a2.13,2.13,0,0,1,1.41,1.28,1.81,1.81,0,0,1,.11.93,1.53,1.53,0,0,1-.39.81,2.72,2.72,0,0,1,.89.5,1.93,1.93,0,0,1,.51.75,2,2,0,0,1,.13,1,1.55,1.55,0,0,1-.45.83,3.44,3.44,0,0,1-1,.54l-3.25,1.22-.51-1.35,2.91-1.09a2.26,2.26,0,0,0,.93-.51.68.68,0,0,0,.07-.68,1,1,0,0,0-.37-.47,1,1,0,0,0-.64-.17,3.88,3.88,0,0,0-1.1.28l-2.44.92-.51-1.35,2.79-1a4.16,4.16,0,0,0,.93-.43.65.65,0,0,0,.24-.35.73.73,0,0,0,0-.45,1,1,0,0,0-.38-.5,1,1,0,0,0-.61-.17,3.91,3.91,0,0,0-1.09.28l-2.48.93-.5-1.35Z"/><ellipse class="cls-3" cx="74.79" cy="74.78" rx="52.72" ry="52.74"/><path class="cls-4" d="M74.79,128.39a53.6,53.6,0,1,1,37.9-15.7A53.29,53.29,0,0,1,74.79,128.39Zm0-105.47a51.86,51.86,0,1,0,51.85,51.86A51.91,51.91,0,0,0,74.79,22.92Z"/><path class="cls-1" d="M74.79,102.74h0a29.7,29.7,0,1,1,21-8.7A29.51,29.51,0,0,1,74.79,102.74Zm0-2.62h0a27.07,27.07,0,1,0-19.15-7.93,26.9,26.9,0,0,0,19.15,7.93Z"/><rect class="cls-1" x="73.48" y="44.74" width="2.62" height="56.59"/><rect class="cls-1" x="46.5" y="71.72" width="56.59" height="2.62"/><path class="cls-1" d="M72.16,102.36a34.91,34.91,0,0,1-6.67-7.61,39,39,0,0,1,0-43.44,34.4,34.4,0,0,1,6.67-7.6l1.62,2.06-.81-1,.81,1a33.09,33.09,0,0,0-6.17,7.08,36.38,36.38,0,0,0,0,40.36,33.65,33.65,0,0,0,6.17,7.09Z"/><path class="cls-1" d="M77.43,102.36l-1.62-2.06A33.46,33.46,0,0,0,82,93.21a36.38,36.38,0,0,0,0-40.36,32.46,32.46,0,0,0-6.17-7.08l1.63-2.06a35,35,0,0,1,6.67,7.6,39,39,0,0,1,0,43.44A35.53,35.53,0,0,1,77.43,102.36Z"/><path class="cls-1" d="M74.79,65.22c-18,0-22.88-9.45-23.08-9.86l2.35-1.17-1.17.59,1.16-.6a13.31,13.31,0,0,0,4.19,4.19c2.85,1.93,8,4.22,16.55,4.22,16.34,0,20.69-8.32,20.73-8.4l2.35,1.17C97.67,55.77,92.74,65.22,74.79,65.22Z"/><path class="cls-1" d="M54.05,91.88,51.71,90.7c.2-.4,5.13-9.85,23.08-9.85S97.67,90.3,97.87,90.7l-2.35,1.17a13,13,0,0,0-4.17-4.17c-2.86-1.93-8-4.23-16.56-4.23s-13.7,2.3-16.55,4.23A13.23,13.23,0,0,0,54.05,91.88Z"/><rect class="cls-3" x="43.16" y="61.81" width="62.95" height="23.04"/><path class="cls-1" d="M54.64,79.45v-12a.68.68,0,0,0-.42-.71,2.79,2.79,0,0,0-1.07-.17h-.39V64.78h8.32v1.84h-.36a2.83,2.83,0,0,0-1.09.17.68.68,0,0,0-.43.71v12a.69.69,0,0,0,.43.71,3,3,0,0,0,1.09.17h.36v1.83H52.76V80.33h.39a3,3,0,0,0,1.07-.17A.7.7,0,0,0,54.64,79.45Z"/><path class="cls-1" d="M71.78,80.6a4.8,4.8,0,0,0,1.65-.24,1.76,1.76,0,0,0,1-.74,2.54,2.54,0,0,0,.32-1.33,2.11,2.11,0,0,0-.34-1.21,2.62,2.62,0,0,0-1-.79A8.66,8.66,0,0,0,72,75.71c-.57-.17-1.21-.34-1.93-.52a19.93,19.93,0,0,1-2-.68,6.19,6.19,0,0,1-1.72-1A4.37,4.37,0,0,1,65.1,72a5.51,5.51,0,0,1-.44-2.37,5.12,5.12,0,0,1,.76-2.89,4.74,4.74,0,0,1,2.11-1.75,7.83,7.83,0,0,1,3.17-.6,6.8,6.8,0,0,1,2.64.45,4.05,4.05,0,0,1,1.73,1.42,7.15,7.15,0,0,1,1,2.59L75.16,68l.46-3.3h1.89v5h-2.2a4.72,4.72,0,0,0-.87-1.8A3.89,3.89,0,0,0,73,66.7a4.59,4.59,0,0,0-1.89-.38,4.05,4.05,0,0,0-1.52.25,1.71,1.71,0,0,0-.86.71,2.25,2.25,0,0,0-.27,1.15,1.91,1.91,0,0,0,.31,1.13,2.28,2.28,0,0,0,.88.72,7.09,7.09,0,0,0,1.38.49l1.79.45a21,21,0,0,1,2.17.64,6.87,6.87,0,0,1,1.86,1,4.25,4.25,0,0,1,1.28,1.56,5.43,5.43,0,0,1,.47,2.38A6.19,6.19,0,0,1,77.82,80a4.94,4.94,0,0,1-2.22,2,8.38,8.38,0,0,1-3.5.66,9,9,0,0,1-2.94-.45A4.82,4.82,0,0,1,67,80.57a7,7,0,0,1-1.25-3l1,.78-.47,3.87h-2V76.53h2.38a6,6,0,0,0,1.15,2.3,4.61,4.61,0,0,0,1.78,1.34A5.87,5.87,0,0,0,71.78,80.6Z"/><path class="cls-1" d="M90.68,82.58A10.64,10.64,0,0,1,87,82a7.76,7.76,0,0,1-4.7-4.65,11.76,11.76,0,0,1,0-7.71,7.77,7.77,0,0,1,1.85-2.87A8.36,8.36,0,0,1,87,65a11.11,11.11,0,0,1,7.32,0,8.36,8.36,0,0,1,2.85,1.79A7.77,7.77,0,0,1,99,69.62a11.76,11.76,0,0,1,0,7.71A7.76,7.76,0,0,1,94.34,82,10.64,10.64,0,0,1,90.68,82.58Zm0-2.08a3.82,3.82,0,0,0,1.82-.42,3.48,3.48,0,0,0,1.34-1.28,6.91,6.91,0,0,0,.82-2.19,15.18,15.18,0,0,0,.28-3.14,15,15,0,0,0-.28-3.13,6.91,6.91,0,0,0-.82-2.19,3.51,3.51,0,0,0-1.34-1.29,4.24,4.24,0,0,0-3.64,0,3.51,3.51,0,0,0-1.34,1.29,6.91,6.91,0,0,0-.82,2.19,15,15,0,0,0-.28,3.13,15.18,15.18,0,0,0,.28,3.14,6.91,6.91,0,0,0,.82,2.19,3.48,3.48,0,0,0,1.34,1.28A3.85,3.85,0,0,0,90.68,80.5Z"/><path class="cls-1" d="M55.9,117.19H48.07a4.85,4.85,0,0,1,.82-2.18,10.82,10.82,0,0,1,2.56-2.41,7.4,7.4,0,0,0,1.46-1.3,1.38,1.38,0,0,0,.32-.83,1,1,0,0,0-.31-.74,1.23,1.23,0,0,0-1.62,0,1.92,1.92,0,0,0-.42,1.11l-2.62-.21a4.28,4.28,0,0,1,.57-1.72A2.64,2.64,0,0,1,50,108a5.26,5.26,0,0,1,2.07-.33,5.77,5.77,0,0,1,2.14.32,2.62,2.62,0,0,1,1.21,1,2.55,2.55,0,0,1,.43,1.46,3,3,0,0,1-.5,1.64,6.68,6.68,0,0,1-1.83,1.71c-.52.36-.87.62-1,.76s-.39.34-.62.57H55.9Z"/><path class="cls-1" d="M57,112.46a5.57,5.57,0,0,1,1-3.75,3.76,3.76,0,0,1,2.93-1.07,4.33,4.33,0,0,1,1.56.24,2.85,2.85,0,0,1,1,.6,3.36,3.36,0,0,1,.61.79,4.68,4.68,0,0,1,.35,1,8.89,8.89,0,0,1,.26,2.2,6.34,6.34,0,0,1-.86,3.73,3.45,3.45,0,0,1-3,1.19,4.15,4.15,0,0,1-1.91-.38,3,3,0,0,1-1.2-1.11,4.08,4.08,0,0,1-.53-1.41A10.19,10.19,0,0,1,57,112.46Zm2.59,0a6.34,6.34,0,0,0,.32,2.45,1,1,0,0,0,.92.66.93.93,0,0,0,.68-.28,1.65,1.65,0,0,0,.43-.88,9.35,9.35,0,0,0,.14-1.88,6.57,6.57,0,0,0-.32-2.51,1,1,0,0,0-1-.64,1,1,0,0,0-.93.65A6.94,6.94,0,0,0,59.6,112.46Z"/><path class="cls-1" d="M65.76,112.46a5.64,5.64,0,0,1,1-3.75,3.78,3.78,0,0,1,2.94-1.07,4.33,4.33,0,0,1,1.56.24,2.85,2.85,0,0,1,1,.6,3.3,3.3,0,0,1,.6.79,4.17,4.17,0,0,1,.36,1,9.4,9.4,0,0,1,.26,2.2,6.41,6.41,0,0,1-.86,3.73,3.45,3.45,0,0,1-3,1.19,4.23,4.23,0,0,1-1.92-.38,3.08,3.08,0,0,1-1.19-1.11,3.89,3.89,0,0,1-.53-1.41A9.47,9.47,0,0,1,65.76,112.46Zm2.59,0a6.39,6.39,0,0,0,.31,2.45,1,1,0,0,0,.92.66.94.94,0,0,0,.69-.28,1.65,1.65,0,0,0,.43-.88,9.35,9.35,0,0,0,.14-1.88,6.57,6.57,0,0,0-.32-2.51,1,1,0,0,0-1-.64,1,1,0,0,0-.93.65A6.7,6.7,0,0,0,68.35,112.46Z"/><path class="cls-1" d="M74.51,112.46a5.64,5.64,0,0,1,1-3.75,3.77,3.77,0,0,1,2.94-1.07,4.24,4.24,0,0,1,1.55.24,2.81,2.81,0,0,1,1,.6,3.59,3.59,0,0,1,.6.79,4.17,4.17,0,0,1,.36,1,9.4,9.4,0,0,1,.26,2.2,6.33,6.33,0,0,1-.87,3.73,3.42,3.42,0,0,1-3,1.19,4.23,4.23,0,0,1-1.92-.38,3.18,3.18,0,0,1-1.2-1.11,4.09,4.09,0,0,1-.52-1.41A9.47,9.47,0,0,1,74.51,112.46Zm2.58,0a6.34,6.34,0,0,0,.32,2.45,1,1,0,0,0,.92.66,1,1,0,0,0,.69-.28,1.73,1.73,0,0,0,.43-.88,9.35,9.35,0,0,0,.14-1.88,6.57,6.57,0,0,0-.32-2.51,1,1,0,0,0-1-.64,1,1,0,0,0-.94.65A6.94,6.94,0,0,0,77.09,112.46Z"/><path class="cls-1" d="M83.25,112.46a5.63,5.63,0,0,1,1-3.75,3.76,3.76,0,0,1,2.93-1.07,4.26,4.26,0,0,1,1.56.24,2.68,2.68,0,0,1,1,.6,3.36,3.36,0,0,1,.61.79,4.16,4.16,0,0,1,.35,1,8.9,8.9,0,0,1,.27,2.2,6.33,6.33,0,0,1-.87,3.73,3.44,3.44,0,0,1-3,1.19,4.18,4.18,0,0,1-1.91-.38,3,3,0,0,1-1.2-1.11,4.29,4.29,0,0,1-.53-1.41A10.19,10.19,0,0,1,83.25,112.46Zm2.59,0a6.34,6.34,0,0,0,.32,2.45,1,1,0,0,0,.92.66,1,1,0,0,0,.69-.28,1.81,1.81,0,0,0,.43-.88,9.52,9.52,0,0,0,.13-1.88A6.62,6.62,0,0,0,88,110a1,1,0,0,0-1-.64,1,1,0,0,0-.94.65A6.94,6.94,0,0,0,85.84,112.46Z"/><path class="cls-1" d="M91.75,112.76h3.79v2H91.75Z"/><path class="cls-1" d="M102.28,107.64v9.55H99.64v-6.26a7.29,7.29,0,0,1-1.24.79,10.52,10.52,0,0,1-1.5.58v-2.14a6.43,6.43,0,0,0,2.07-1,4.24,4.24,0,0,0,1.15-1.49Z"/><path class="cls-3" d="M65.69,131.26l3.59-1.7,5.46,7a77.8,77.8,0,0,1,21.17-11c.46,1.74.45,1.73-1,2.6A75.71,75.71,0,0,0,74.62,146c0,.05-.08.07-.21.19Z"/></g></svg>