<svg id="Layer_1" data-name="Layer 1" xmlns="http://www.w3.org/2000/svg" viewBox="0 0 150 150"><defs><style>.cls-1{fill:#fff;}.cls-2{fill:#085493;}.cls-3{fill:#217c7d;}.cls-4{fill:#0a6564;}</style></defs><g id="_2" data-name="2"><circle class="cls-1" cx="74.28" cy="74.39" r="73.44"/><path class="cls-2" d="M74.27,148.7A74.3,74.3,0,0,1,21.72,21.84a74.32,74.32,0,1,1,81.48,121A73.75,73.75,0,0,1,74.27,148.7Zm0-146.88a72.57,72.57,0,1,0,72.57,72.57A72.64,72.64,0,0,0,74.27,1.82Z"/><path class="cls-2" d="M20.76,46.83A4.82,4.82,0,0,0,21.83,46l.75,1a3.11,3.11,0,0,1-.53.49s-.38.26-1,.66a3.89,3.89,0,0,1-.37,1.62,3.58,3.58,0,0,1-2,2.06,3.93,3.93,0,0,1-3-.26,4,4,0,0,1-2.21-2.06,3.52,3.52,0,0,1,.15-2.86,3.47,3.47,0,0,1,2-2,4,4,0,0,1,3,.27,4.78,4.78,0,0,1,1.46.94A3.71,3.71,0,0,1,20.76,46.83Zm-1.28.77a2.24,2.24,0,0,0-.58-.74,4,4,0,0,0-1-.59,2.83,2.83,0,0,0-2-.26,2.07,2.07,0,0,0-1.22,2.74,2.83,2.83,0,0,0,1.54,1.32,2.84,2.84,0,0,0,2,.27,1.85,1.85,0,0,0,1.19-1.06,2,2,0,0,0,.16-.61,4.93,4.93,0,0,0-.82.66l-.61-.74A4.91,4.91,0,0,1,19.48,47.6Z"/><path class="cls-2" d="M24.35,42.46l-.7-.41a2.17,2.17,0,0,1-.12,2,1.92,1.92,0,0,1-.71.73,1.43,1.43,0,0,1-.9.19,3.11,3.11,0,0,1-1.14-.45l-3-1.76.74-1.24,2.14,1.28a7.06,7.06,0,0,0,1.25.65.71.71,0,0,0,.5,0,.81.81,0,0,0,.4-.38,1.14,1.14,0,0,0,.17-.67,1.06,1.06,0,0,0-.23-.6,5.79,5.79,0,0,0-1.2-.84l-2-1.18.73-1.23L25,41.31Z"/><path class="cls-2" d="M23.38,37.11l-1,.91a2.06,2.06,0,0,1-.48-1.3,2.76,2.76,0,0,1,.65-1.51,3.36,3.36,0,0,1,1-1,1.49,1.49,0,0,1,.86-.19,3.19,3.19,0,0,1,1.15.62l1.34,1a5.51,5.51,0,0,0,.89.58,3.23,3.23,0,0,0,.74.23l-.85,1.14-.43-.14-.16-.06a2.72,2.72,0,0,1,0,.95,2.25,2.25,0,0,1-.39.83,1.87,1.87,0,0,1-1.16.79,1.63,1.63,0,0,1-1.74-1,1.43,1.43,0,0,1-.08-.82A5.21,5.21,0,0,1,24.17,37a8,8,0,0,0,.55-1.34l-.12-.08a.73.73,0,0,0-.6-.19,1.25,1.25,0,0,0-.6.52,1.07,1.07,0,0,0-.24.57A1.08,1.08,0,0,0,23.38,37.11Zm2.09-.85a8.3,8.3,0,0,1-.35.84,2.6,2.6,0,0,0-.26.78.59.59,0,0,0,.24.53.71.71,0,0,0,.55.13.84.84,0,0,0,.52-.33,1.34,1.34,0,0,0,.24-.75.87.87,0,0,0-.18-.56,2.75,2.75,0,0,0-.53-.47Z"/><path class="cls-2" d="M29.26,35.71l-5.69-4.9.94-1.09,5.69,4.9Z"/><path class="cls-2" d="M26.65,29.34l-1-.92,1-1,1,.92Zm4.48,4.25-3.94-3.74,1-1.05,3.94,3.75Z"/><path class="cls-2" d="M31.16,25.9l.79.84-.71.67L32.75,29a5,5,0,0,0,.55.55.34.34,0,0,0,.22,0,.45.45,0,0,0,.23-.11,2.28,2.28,0,0,0,.32-.5l.86.72a2.85,2.85,0,0,1-.68.94,1.82,1.82,0,0,1-.6.39,1,1,0,0,1-.56.07,1.24,1.24,0,0,1-.54-.27,7.48,7.48,0,0,1-.73-.7l-1.63-1.72-.48.45L28.92,28l.48-.46-.74-.78.47-1.61,1.32,1.4Z"/><path class="cls-2" d="M31.58,25.47l1.19-1,3.45,2.18-1.45-3.8,1.16-.94,1.8,5.28.34,1a3.54,3.54,0,0,1,.17.79,1.54,1.54,0,0,1-.05.57,1.77,1.77,0,0,1-.27.53,2.8,2.8,0,0,1-.51.53,4.29,4.29,0,0,1-.69.45l-.81-.8a3,3,0,0,0,.51-.33.94.94,0,0,0,.4-.7,2.16,2.16,0,0,0-.19-.81Z"/><path class="cls-2" d="M42.24,24.11l-3.7-6.53,2-1.12,3.71,3.79-1.35-5.13,2-1.12,3.7,6.54-1.23.69-2.91-5.14L46,22l-1.27.72-4.21-4.42,2.91,5.15Z"/><path class="cls-2" d="M49.28,16.15,48,16.43a2,2,0,0,1,.25-1.37,2.73,2.73,0,0,1,1.32-1A3.48,3.48,0,0,1,51,13.75a1.42,1.42,0,0,1,.83.28,3.1,3.1,0,0,1,.68,1.12l.63,1.55a5.51,5.51,0,0,0,.47.95,3.36,3.36,0,0,0,.52.57l-1.31.55a3.18,3.18,0,0,1-.29-.34l-.12-.13a2.46,2.46,0,0,1-.52.8,2.17,2.17,0,0,1-.75.51,1.82,1.82,0,0,1-1.4.09,1.49,1.49,0,0,1-.89-.88,1.54,1.54,0,0,1-.12-.84,1.46,1.46,0,0,1,.36-.75,4.51,4.51,0,0,1,.93-.75,8.5,8.5,0,0,0,1.15-.86l-.06-.14a.71.71,0,0,0-.41-.46,1.26,1.26,0,0,0-.79.13,1,1,0,0,0-.49.37A1.14,1.14,0,0,0,49.28,16.15Zm2.23.33q-.23.19-.72.54a2.34,2.34,0,0,0-.63.54.59.59,0,0,0-.06.57.7.7,0,0,0,.41.4.81.81,0,0,0,.61,0,1.28,1.28,0,0,0,.59-.52.94.94,0,0,0,.13-.58,2.56,2.56,0,0,0-.22-.67Z"/><path class="cls-2" d="M59.72,16.47l-1.38.42-.81-2.66a4.25,4.25,0,0,0-.42-1.06.78.78,0,0,0-.4-.3.92.92,0,0,0-.52,0,1.25,1.25,0,0,0-.58.39,1,1,0,0,0-.23.64,4.62,4.62,0,0,0,.25,1.23l.72,2.36L55,17.92l-1.59-5.21,1.28-.39.23.77a2.19,2.19,0,0,1,1.45-1.41,2.24,2.24,0,0,1,.88-.09,1.42,1.42,0,0,1,.7.25,1.48,1.48,0,0,1,.44.49,4.05,4.05,0,0,1,.36.91Z"/><path class="cls-2" d="M61.29,12.25l-1.33,0a2.11,2.11,0,0,1,.52-1.3A2.84,2.84,0,0,1,62,10.3a3.69,3.69,0,0,1,1.45-.06,1.48,1.48,0,0,1,.77.44,3,3,0,0,1,.44,1.23l.31,1.65a5.41,5.41,0,0,0,.27,1,3.2,3.2,0,0,0,.4.67l-1.4.28L64,15.14c0-.08-.06-.13-.08-.16a2.55,2.55,0,0,1-.67.68,2.09,2.09,0,0,1-.84.35A1.84,1.84,0,0,1,61,15.82a1.49,1.49,0,0,1-.7-1,1.52,1.52,0,0,1,.06-.85,1.34,1.34,0,0,1,.49-.66,4.8,4.8,0,0,1,1.06-.56,7,7,0,0,0,1.3-.62l0-.14a.76.76,0,0,0-.32-.54,1.24,1.24,0,0,0-.79,0,1,1,0,0,0-.56.27A1,1,0,0,0,61.29,12.25Zm2.12.77a7.4,7.4,0,0,1-.82.39,2.91,2.91,0,0,0-.72.4.6.6,0,0,0-.18.55.69.69,0,0,0,.33.47.77.77,0,0,0,.6.11,1.33,1.33,0,0,0,.68-.4.9.9,0,0,0,.25-.54,2.93,2.93,0,0,0-.09-.69Z"/><path class="cls-2" d="M66.44,15.49l1.65,0a.59.59,0,0,0,.23.38A1.05,1.05,0,0,0,69,16a1.73,1.73,0,0,0,.82-.25.72.72,0,0,0,.25-.39,2.2,2.2,0,0,0,0-.66L70,13.91a2,2,0,0,1-1.54,1,2,2,0,0,1-1.82-.76A3.2,3.2,0,0,1,66,12.41a3,3,0,0,1,.46-2.14A2.16,2.16,0,0,1,68,9.39a2,2,0,0,1,1.74.73l-.07-.76L71,9.23l.46,4.86a4.76,4.76,0,0,1,0,1.45,1.72,1.72,0,0,1-.37.78,1.88,1.88,0,0,1-.72.5,4.28,4.28,0,0,1-1.19.27,3.1,3.1,0,0,1-2-.29,1.43,1.43,0,0,1-.69-1.14A.81.81,0,0,1,66.44,15.49Zm1-3.3a2,2,0,0,0,.46,1.23,1,1,0,0,0,.86.32,1.16,1.16,0,0,0,.85-.49A1.85,1.85,0,0,0,69.82,12a1.91,1.91,0,0,0-.46-1.22,1.1,1.1,0,0,0-.92-.32,1.06,1.06,0,0,0-.81.48A1.87,1.87,0,0,0,67.41,12.19Z"/><path class="cls-2" d="M75.9,12.89l1.43.25a2.29,2.29,0,0,1-.88,1.2,2.51,2.51,0,0,1-1.49.4,2.43,2.43,0,0,1-2.1-.94,3.16,3.16,0,0,1-.53-1.87,3.05,3.05,0,0,1,.72-2.12,2.31,2.31,0,0,1,1.8-.75,2.41,2.41,0,0,1,1.91.81,3.53,3.53,0,0,1,.65,2.46l-3.6,0a1.47,1.47,0,0,0,.34,1,1.08,1.08,0,0,0,.83.36.92.92,0,0,0,.57-.18A1.2,1.2,0,0,0,75.9,12.89ZM76,11.44a1.34,1.34,0,0,0-.32-.95,1,1,0,0,0-.74-.33,1,1,0,0,0-.78.34,1.29,1.29,0,0,0-.31.93Z"/><path class="cls-2" d="M79,9.2l1.31.17-.1.74A2.17,2.17,0,0,1,82,9.47a1.87,1.87,0,0,1,.87.34,1.67,1.67,0,0,1,.54.72,2.48,2.48,0,0,1,.85-.54,1.87,1.87,0,0,1,.91-.1,2,2,0,0,1,1,.37,1.49,1.49,0,0,1,.52.79,3,3,0,0,1,0,1.14l-.45,3.45-1.43-.19.41-3.08a2.46,2.46,0,0,0,0-1.06.68.68,0,0,0-.57-.38A1,1,0,0,0,84,11a1.05,1.05,0,0,0-.45.48,4,4,0,0,0-.27,1.1l-.34,2.59L81.52,15l.39-2.95a4.58,4.58,0,0,0,0-1,.63.63,0,0,0-.19-.37.81.81,0,0,0-.42-.17,1.1,1.1,0,0,0-.62.1,1,1,0,0,0-.44.47A3.65,3.65,0,0,0,80,12.16l-.35,2.62-1.42-.18Z"/><path class="cls-2" d="M90.85,15.11l1.33.59a2.31,2.31,0,0,1-1.15.94,2.47,2.47,0,0,1-1.55,0,2.44,2.44,0,0,1-1.8-1.42,3.14,3.14,0,0,1,0-2,3,3,0,0,1,1.22-1.87,2.27,2.27,0,0,1,1.92-.29,2.4,2.4,0,0,1,1.65,1.26,3.51,3.51,0,0,1,0,2.54L89,14a1.41,1.41,0,0,0,.09,1.05,1.09,1.09,0,0,0,.71.56.93.93,0,0,0,.6,0A1.1,1.1,0,0,0,90.85,15.11Zm.45-1.39a1.37,1.37,0,0,0-.07-1,1,1,0,0,0-.64-.51,1,1,0,0,0-.84.14,1.28,1.28,0,0,0-.53.83Z"/><path class="cls-2" d="M97.43,19.21l-1.34-.52,1-2.59a4.8,4.8,0,0,0,.33-1.1.8.8,0,0,0-.14-.48.9.9,0,0,0-.41-.32,1.3,1.3,0,0,0-.7,0,1.07,1.07,0,0,0-.58.36A4.86,4.86,0,0,0,95,15.64l-.89,2.3-1.34-.52,2-5.07,1.25.48-.29.74a2.17,2.17,0,0,1,2-.21,2,2,0,0,1,.75.47,1.37,1.37,0,0,1,.4.63,1.62,1.62,0,0,1,.05.66,4.49,4.49,0,0,1-.28.93Z"/><path class="cls-2" d="M103.22,15.86l-.48,1-.9-.41-.92,2a4.61,4.61,0,0,0-.3.71.34.34,0,0,0,0,.22.4.4,0,0,0,.19.17,2.27,2.27,0,0,0,.58.12l-.36,1.06a2.84,2.84,0,0,1-1.12-.28,1.81,1.81,0,0,1-.58-.42,1,1,0,0,1-.27-.5,1.25,1.25,0,0,1,.05-.59,7.11,7.11,0,0,1,.38-.94l1-2.15-.6-.28.49-1,.6.28.45-1,1.67-.16-.81,1.75Z"/><path class="cls-2" d="M105.19,20.23l1.32.67a1.83,1.83,0,0,0-.13,1.21,1.68,1.68,0,0,0,.74.89,1.71,1.71,0,0,0,1.1.33.92.92,0,0,0,.7-.41.66.66,0,0,0,.11-.47,1.17,1.17,0,0,0-.28-.56c-.12-.15-.4-.46-.85-.93a4.27,4.27,0,0,1-1-1.55,2,2,0,0,1,.23-1.65,2,2,0,0,1,2-.86,3.73,3.73,0,0,1,1.39.57A3.22,3.22,0,0,1,112,19.14a2.19,2.19,0,0,1-.26,1.8l-1.31-.76a1.3,1.3,0,0,0,.09-.93,1.56,1.56,0,0,0-.67-.73,1.85,1.85,0,0,0-1-.33.54.54,0,0,0-.45.27.55.55,0,0,0-.06.5,4.16,4.16,0,0,0,.91,1.18,8,8,0,0,1,1.09,1.33,2.09,2.09,0,0,1-.11,2.26,2.19,2.19,0,0,1-1,.83,2.15,2.15,0,0,1-1.31.16,4.29,4.29,0,0,1-1.52-.65,3.25,3.25,0,0,1-1.49-1.73A2.92,2.92,0,0,1,105.19,20.23Z"/><path class="cls-2" d="M112.74,21.57l1.2.95-1.39,3.83,3.4-2.22,1.16.93L112.34,28l-.86.53a3.71,3.71,0,0,1-.73.34,1.62,1.62,0,0,1-.57.07,1.72,1.72,0,0,1-.58-.15,2.87,2.87,0,0,1-.62-.39,4.62,4.62,0,0,1-.59-.58l.61-1a2.9,2.9,0,0,0,.43.43.92.92,0,0,0,.77.24,2.15,2.15,0,0,0,.75-.36Z"/><path class="cls-2" d="M115,28.36l1.19.85a1.1,1.1,0,0,0-.18.72,1.34,1.34,0,0,0,.42.71,1.38,1.38,0,0,0,.74.43.45.45,0,0,0,.41-.14.4.4,0,0,0,.11-.27,1.12,1.12,0,0,0-.21-.47,7.6,7.6,0,0,1-1.09-2,1.38,1.38,0,0,1,.39-1.33,1.5,1.5,0,0,1,1.22-.46,2.61,2.61,0,0,1,1.58.86,3,3,0,0,1,.94,1.42,1.87,1.87,0,0,1-.21,1.29l-1.15-.76a.87.87,0,0,0,.1-.58,1.18,1.18,0,0,0-.38-.61,1.56,1.56,0,0,0-.7-.45.36.36,0,0,0-.32.09.36.36,0,0,0-.08.29,5.67,5.67,0,0,0,.69,1.23,3.9,3.9,0,0,1,.7,1.58,1.32,1.32,0,0,1-.42,1.08,1.61,1.61,0,0,1-1.34.48,2.77,2.77,0,0,1-1.71-.9,3,3,0,0,1-.94-1.55A2.11,2.11,0,0,1,115,28.36Z"/><path class="cls-2" d="M124,32.14l-.86.76-.65-.74-1.64,1.45a3.87,3.87,0,0,0-.57.54.3.3,0,0,0-.05.21.38.38,0,0,0,.11.23,1.75,1.75,0,0,0,.48.34l-.75.84a3.17,3.17,0,0,1-.92-.71,1.79,1.79,0,0,1-.36-.62,1,1,0,0,1,0-.57,1.41,1.41,0,0,1,.28-.52,7.54,7.54,0,0,1,.73-.7l1.78-1.57-.43-.5.86-.76.43.5.81-.72,1.59.53-1.44,1.27Z"/><path class="cls-2" d="M123.78,37.86l.67,1.29a2.38,2.38,0,0,1-1.49,0,2.57,2.57,0,0,1-1.22-1,2.43,2.43,0,0,1-.53-2.23,3.17,3.17,0,0,1,1.17-1.56,3,3,0,0,1,2.12-.71,2.36,2.36,0,0,1,1.69,1,2.4,2.4,0,0,1,.51,2,3.54,3.54,0,0,1-1.55,2L123,35.84a1.46,1.46,0,0,0-.58.88,1.08,1.08,0,0,0,.21.88.9.9,0,0,0,.49.34A1.16,1.16,0,0,0,123.78,37.86Zm1.21-.81a1.42,1.42,0,0,0,.56-.83,1,1,0,0,0-.19-.79,1,1,0,0,0-.74-.42,1.35,1.35,0,0,0-.93.32Z"/><path class="cls-2" d="M128.57,38.05l.66,1.15-.64.37a2.14,2.14,0,0,1,1.59,1,1.73,1.73,0,0,1,.27.89,1.71,1.71,0,0,1-.25.88,2.43,2.43,0,0,1,1,.34,2,2,0,0,1,.63.66,2,2,0,0,1,.3,1,1.6,1.6,0,0,1-.31.9,3.33,3.33,0,0,1-.91.69l-3,1.73-.72-1.24,2.7-1.56a2.36,2.36,0,0,0,.83-.65.69.69,0,0,0,0-.68.93.93,0,0,0-.45-.4,1,1,0,0,0-.66-.07,4.09,4.09,0,0,0-1,.46l-2.26,1.31-.72-1.25,2.58-1.49a4,4,0,0,0,.85-.58.61.61,0,0,0,.18-.37.77.77,0,0,0-.12-.44,1.06,1.06,0,0,0-.46-.43,1,1,0,0,0-.64-.07,3.83,3.83,0,0,0-1,.46L124.57,42l-.72-1.25Z"/><ellipse class="cls-3" cx="74.39" cy="74.39" rx="52.72" ry="52.74"/><path class="cls-4" d="M74.39,128A53.61,53.61,0,0,1,36.5,36.48a53.6,53.6,0,0,1,75.79,75.81A53.22,53.22,0,0,1,74.39,128Zm0-105.48a51.87,51.87,0,1,0,51.85,51.87A51.92,51.92,0,0,0,74.39,22.52Z"/><path class="cls-1" d="M74.4,102.35h0a29.7,29.7,0,1,1,21-8.7A29.51,29.51,0,0,1,74.39,102.35Zm0-2.63h0a27.07,27.07,0,1,0-19.16-7.93A26.9,26.9,0,0,0,74.4,99.72Z"/><rect class="cls-1" x="73.08" y="44.34" width="2.62" height="56.59"/><rect class="cls-1" x="46.1" y="71.33" width="56.59" height="2.62"/><path class="cls-1" d="M71.76,102a34.4,34.4,0,0,1-6.67-7.6,39,39,0,0,1,0-43.44,34.91,34.91,0,0,1,6.67-7.61l1.62,2.06a33.14,33.14,0,0,0-6.16,7.09,36.33,36.33,0,0,0,0,40.36,32.91,32.91,0,0,0,6.16,7.08Z"/><path class="cls-1" d="M77,102,75.41,99.9a32.91,32.91,0,0,0,6.16-7.08,36.38,36.38,0,0,0-6.16-47.45L77,43.31a34.91,34.91,0,0,1,6.67,7.61,39,39,0,0,1,0,43.44A34.4,34.4,0,0,1,77,102Z"/><path class="cls-1" d="M74.39,64.82c-17.94,0-22.87-9.45-23.07-9.85l2.34-1.18A13,13,0,0,0,57.84,58c2.86,1.93,8,4.23,16.55,4.23,16.35,0,20.7-8.32,20.74-8.4L97.47,55C97.27,55.37,92.34,64.82,74.39,64.82Z"/><path class="cls-1" d="M95.13,91.48A13.34,13.34,0,0,0,91,87.3c-2.86-1.93-8-4.22-16.56-4.22-16.34,0-20.69,8.31-20.73,8.4l-2.34-1.17c.2-.41,5.13-9.86,23.07-9.86s22.88,9.45,23.08,9.86Z"/><rect class="cls-3" x="42.76" y="61.42" width="62.95" height="23.04"/><path class="cls-1" d="M54.25,79.05v-12a.71.71,0,0,0-.43-.71,3,3,0,0,0-1.07-.17h-.39V64.39h8.33v1.83h-.37a3.08,3.08,0,0,0-1.09.17.69.69,0,0,0-.43.71v12a.68.68,0,0,0,.43.71,2.87,2.87,0,0,0,1.09.17h.37v1.84H52.36V79.93h.39a2.79,2.79,0,0,0,1.07-.17A.69.69,0,0,0,54.25,79.05Z"/><path class="cls-1" d="M71.38,80.2A5.19,5.19,0,0,0,73,80a1.79,1.79,0,0,0,1-.75,2.39,2.39,0,0,0,.32-1.32A2,2,0,0,0,74,76.69a2.74,2.74,0,0,0-1-.8,8.24,8.24,0,0,0-1.46-.57c-.58-.17-1.22-.35-1.94-.53a20.78,20.78,0,0,1-2-.67,6.28,6.28,0,0,1-1.71-1,4.28,4.28,0,0,1-1.19-1.57,5.73,5.73,0,0,1-.44-2.37A5.09,5.09,0,0,1,65,66.3a4.71,4.71,0,0,1,2.12-1.75,7.76,7.76,0,0,1,3.17-.6,6.78,6.78,0,0,1,2.63.45,3.94,3.94,0,0,1,1.74,1.42,7,7,0,0,1,1,2.58l-.93-.83.47-3.31h1.88v5h-2.2A4.61,4.61,0,0,0,74,67.44a3.84,3.84,0,0,0-1.44-1.13,4.67,4.67,0,0,0-1.9-.38,4.07,4.07,0,0,0-1.52.24,1.76,1.76,0,0,0-.86.71A2.28,2.28,0,0,0,68.05,68a2,2,0,0,0,.31,1.13,2.2,2.2,0,0,0,.88.72,7.45,7.45,0,0,0,1.39.49l1.78.46c.75.18,1.48.39,2.17.63a7.16,7.16,0,0,1,1.86,1A4.31,4.31,0,0,1,77.73,74a5.53,5.53,0,0,1,.46,2.37,6.2,6.2,0,0,1-.77,3.19,4.87,4.87,0,0,1-2.22,2,8.38,8.38,0,0,1-3.5.66,9,9,0,0,1-2.94-.45,4.72,4.72,0,0,1-2.17-1.55,6.78,6.78,0,0,1-1.25-3l1,.78-.46,3.87h-2V76.14h2.38a6,6,0,0,0,1.15,2.3,4.62,4.62,0,0,0,1.79,1.33A5.6,5.6,0,0,0,71.38,80.2Z"/><path class="cls-1" d="M90.28,82.18a11,11,0,0,1-3.66-.59,7.74,7.74,0,0,1-4.7-4.66,11.76,11.76,0,0,1,0-7.71,7.86,7.86,0,0,1,1.85-2.86,8.22,8.22,0,0,1,2.85-1.79,11.11,11.11,0,0,1,7.32,0,8.17,8.17,0,0,1,2.86,1.79,7.71,7.71,0,0,1,1.84,2.86,11.76,11.76,0,0,1,0,7.71,7.68,7.68,0,0,1-4.7,4.66A10.89,10.89,0,0,1,90.28,82.18Zm0-2.08a3.86,3.86,0,0,0,1.83-.41,3.49,3.49,0,0,0,1.33-1.29,6.91,6.91,0,0,0,.82-2.19,15,15,0,0,0,.28-3.13,15.18,15.18,0,0,0-.28-3.14,6.91,6.91,0,0,0-.82-2.19,3.46,3.46,0,0,0-1.33-1.28,4.18,4.18,0,0,0-3.65,0,3.39,3.39,0,0,0-1.33,1.28,6.68,6.68,0,0,0-.82,2.19A15.12,15.12,0,0,0,86,73.08a15,15,0,0,0,.29,3.13,6.68,6.68,0,0,0,.82,2.19,3.42,3.42,0,0,0,1.33,1.29A3.84,3.84,0,0,0,90.28,80.1Z"/><path class="cls-1" d="M56.12,114.39l3-.37a1.61,1.61,0,0,0,.39.87,1,1,0,0,0,.68.26,1.24,1.24,0,0,0,1.12-.72,6.72,6.72,0,0,0,.44-2.26,3.62,3.62,0,0,1-1.1.8,3.08,3.08,0,0,1-1.3.26,3.25,3.25,0,0,1-2.43-1,3.59,3.59,0,0,1-1-2.59,3.84,3.84,0,0,1,.51-2,3.28,3.28,0,0,1,1.39-1.32A4.87,4.87,0,0,1,60,105.9a5.2,5.2,0,0,1,2.58.55,3.88,3.88,0,0,1,1.55,1.75,7.35,7.35,0,0,1,.58,3.18,6.18,6.18,0,0,1-1.22,4.25A4.32,4.32,0,0,1,60.12,117a5.48,5.48,0,0,1-2-.3,3.18,3.18,0,0,1-1.23-.86A4,4,0,0,1,56.12,114.39Zm5.48-4.78a1.94,1.94,0,0,0-.44-1.36,1.37,1.37,0,0,0-1.06-.5,1.25,1.25,0,0,0-1,.45,2,2,0,0,0-.39,1.34,2.06,2.06,0,0,0,.41,1.37,1.27,1.27,0,0,0,1,.48,1.35,1.35,0,0,0,1-.46A1.9,1.9,0,0,0,61.6,109.61Z"/><path class="cls-1" d="M66,111.39c0-2,.37-3.46,1.1-4.27a4.27,4.27,0,0,1,3.35-1.22,5.23,5.23,0,0,1,1.78.26,3.24,3.24,0,0,1,1.13.7,3.38,3.38,0,0,1,.69.9,4.43,4.43,0,0,1,.41,1.1,10.25,10.25,0,0,1,.3,2.5,7.33,7.33,0,0,1-1,4.27,3.94,3.94,0,0,1-3.4,1.35,4.83,4.83,0,0,1-2.18-.43,3.54,3.54,0,0,1-1.37-1.27,4.58,4.58,0,0,1-.6-1.62A10.6,10.6,0,0,1,66,111.39Zm3,0a7.31,7.31,0,0,0,.36,2.8,1.13,1.13,0,0,0,1,.75,1.1,1.1,0,0,0,.78-.32,2,2,0,0,0,.49-1,10,10,0,0,0,.16-2.14,7.53,7.53,0,0,0-.36-2.87,1.16,1.16,0,0,0-1.09-.73,1.11,1.11,0,0,0-1.07.75A7.87,7.87,0,0,0,68.93,111.4Z"/><path class="cls-1" d="M76,111.39c0-2,.36-3.46,1.1-4.27a4.26,4.26,0,0,1,3.35-1.22,5.17,5.17,0,0,1,1.77.26,3.29,3.29,0,0,1,1.14.7,3.61,3.61,0,0,1,.69.9,4.43,4.43,0,0,1,.4,1.1,10.25,10.25,0,0,1,.3,2.5,7.41,7.41,0,0,1-1,4.27,3.94,3.94,0,0,1-3.4,1.35,4.9,4.9,0,0,1-2.19-.43,3.52,3.52,0,0,1-1.36-1.27,4.77,4.77,0,0,1-.61-1.62A11.31,11.31,0,0,1,76,111.39Zm3,0a7.31,7.31,0,0,0,.36,2.8,1.12,1.12,0,0,0,1.84.43,2,2,0,0,0,.49-1,10.94,10.94,0,0,0,.15-2.14,7.53,7.53,0,0,0-.36-2.87,1.15,1.15,0,0,0-1.08-.73,1.1,1.1,0,0,0-1.07.75A7.8,7.8,0,0,0,78.91,111.4Z"/><path class="cls-1" d="M92.69,105.9v10.9h-3v-7.15a9.22,9.22,0,0,1-1.42.9,11,11,0,0,1-1.71.66v-2.44a7.3,7.3,0,0,0,2.36-1.18,4.65,4.65,0,0,0,1.31-1.69Z"/><path class="cls-3" d="M65.29,130.86l3.59-1.7,5.47,7a77.84,77.84,0,0,1,21.16-11c.47,1.74.46,1.72-1,2.59a75.56,75.56,0,0,0-20.32,17.8,1.54,1.54,0,0,1-.22.18Z"/></g></svg>